<mxfile host="app.diagrams.net" agent="Mozilla/5.0 (Macintosh; Intel Mac OS X 10_15_7) AppleWebKit/605.1.15 (KHTML, like Gecko) Version/18.3 Safari/605.1.15" version="27.0.5">
  <diagram name="Page-1" id="a0ARstpyRK_P-ix4lsH7">
    <mxGraphModel dx="2018" dy="1120" grid="1" gridSize="10" guides="1" tooltips="1" connect="1" arrows="1" fold="1" page="1" pageScale="1" pageWidth="827" pageHeight="1169" math="0" shadow="0" adaptiveColors="none">
      <root>
        <mxCell id="0" />
        <mxCell id="1" parent="0" />
        <mxCell id="mlGUa6_Ni1E6CcPN0Goh-2" value="" style="rounded=1;whiteSpace=wrap;html=1;arcSize=0;strokeColor=none;fillColor=#D5E8D4;opacity=30;" parent="1" vertex="1">
          <mxGeometry x="850" y="350" width="570" height="329" as="geometry" />
        </mxCell>
        <mxCell id="mlGUa6_Ni1E6CcPN0Goh-1" value="" style="rounded=1;whiteSpace=wrap;html=1;arcSize=0;strokeColor=none;fillColor=#E6D0DE;opacity=30;" parent="1" vertex="1">
          <mxGeometry x="-39" y="350" width="879" height="329" as="geometry" />
        </mxCell>
        <mxCell id="OUMXYwsHuOzbVERew2cC-38" value="" style="rounded=0;whiteSpace=wrap;html=1;fillColor=#f0a30a;fontColor=#000000;strokeColor=#BD7000;" parent="1" vertex="1">
          <mxGeometry x="430" y="438.5" width="70" height="35" as="geometry" />
        </mxCell>
        <mxCell id="OUMXYwsHuOzbVERew2cC-39" value="" style="rounded=0;whiteSpace=wrap;html=1;fillColor=#f0a30a;fontColor=#000000;strokeColor=#BD7000;" parent="1" vertex="1">
          <mxGeometry x="440" y="448.5" width="70" height="35" as="geometry" />
        </mxCell>
        <mxCell id="OUMXYwsHuOzbVERew2cC-55" style="edgeStyle=orthogonalEdgeStyle;rounded=0;orthogonalLoop=1;jettySize=auto;html=1;exitX=1;exitY=0.25;exitDx=0;exitDy=0;entryX=0.5;entryY=0;entryDx=0;entryDy=0;" parent="1" source="OUMXYwsHuOzbVERew2cC-40" target="OUMXYwsHuOzbVERew2cC-43" edge="1">
          <mxGeometry relative="1" as="geometry" />
        </mxCell>
        <mxCell id="mlGUa6_Ni1E6CcPN0Goh-4" style="edgeStyle=elbowEdgeStyle;rounded=0;orthogonalLoop=1;jettySize=auto;html=1;exitX=1;exitY=0.5;exitDx=0;exitDy=0;entryX=0;entryY=0.5;entryDx=0;entryDy=0;" parent="1" source="OUMXYwsHuOzbVERew2cC-40" target="OUMXYwsHuOzbVERew2cC-59" edge="1">
          <mxGeometry relative="1" as="geometry" />
        </mxCell>
        <mxCell id="OUMXYwsHuOzbVERew2cC-40" value="" style="rounded=0;whiteSpace=wrap;html=1;fillColor=#f0a30a;fontColor=#000000;strokeColor=#BD7000;" parent="1" vertex="1">
          <mxGeometry x="450" y="458.5" width="70" height="35" as="geometry" />
        </mxCell>
        <mxCell id="OUMXYwsHuOzbVERew2cC-65" style="edgeStyle=orthogonalEdgeStyle;rounded=0;orthogonalLoop=1;jettySize=auto;html=1;exitX=1.009;exitY=0.409;exitDx=0;exitDy=0;entryX=0;entryY=0.5;entryDx=0;entryDy=0;exitPerimeter=0;" parent="1" source="OUMXYwsHuOzbVERew2cC-80" target="OUMXYwsHuOzbVERew2cC-22" edge="1">
          <mxGeometry relative="1" as="geometry">
            <mxPoint x="120" y="460" as="sourcePoint" />
          </mxGeometry>
        </mxCell>
        <mxCell id="OUMXYwsHuOzbVERew2cC-64" style="edgeStyle=orthogonalEdgeStyle;rounded=0;orthogonalLoop=1;jettySize=auto;html=1;exitX=1;exitY=0.5;exitDx=0;exitDy=0;entryX=0.25;entryY=1;entryDx=0;entryDy=0;" parent="1" source="OUMXYwsHuOzbVERew2cC-22" target="OUMXYwsHuOzbVERew2cC-35" edge="1">
          <mxGeometry relative="1" as="geometry" />
        </mxCell>
        <mxCell id="OUMXYwsHuOzbVERew2cC-22" value="&lt;span style=&quot;font-size: 16px; text-align: start; caret-color: rgb(32, 33, 34); color: rgb(32, 33, 34); font-family: sans-serif; font-style: italic;&quot;&gt;t&lt;/span&gt;&amp;nbsp;step estimator" style="rounded=0;whiteSpace=wrap;html=1;fillColor=#dae8fc;strokeColor=#6c8ebf;" parent="1" vertex="1">
          <mxGeometry x="160" y="380" width="80" height="40" as="geometry" />
        </mxCell>
        <mxCell id="OUMXYwsHuOzbVERew2cC-52" style="edgeStyle=orthogonalEdgeStyle;rounded=0;orthogonalLoop=1;jettySize=auto;html=1;exitX=0.5;exitY=0;exitDx=0;exitDy=0;entryX=0;entryY=0.75;entryDx=0;entryDy=0;" parent="1" source="OUMXYwsHuOzbVERew2cC-35" target="OUMXYwsHuOzbVERew2cC-38" edge="1">
          <mxGeometry relative="1" as="geometry" />
        </mxCell>
        <mxCell id="OUMXYwsHuOzbVERew2cC-35" value="Encoder" style="shape=trapezoid;perimeter=trapezoidPerimeter;whiteSpace=wrap;html=1;fixedSize=1;direction=south;fillColor=#ffe6cc;strokeColor=#d79b00;rounded=0;" parent="1" vertex="1">
          <mxGeometry x="290" y="400" width="90" height="130" as="geometry" />
        </mxCell>
        <mxCell id="OUMXYwsHuOzbVERew2cC-43" value="Decoder" style="shape=trapezoid;perimeter=trapezoidPerimeter;whiteSpace=wrap;html=1;fixedSize=1;direction=north;fillColor=#ffe6cc;strokeColor=#d79b00;rounded=0;" parent="1" vertex="1">
          <mxGeometry x="570" y="402" width="90" height="130" as="geometry" />
        </mxCell>
        <mxCell id="OUMXYwsHuOzbVERew2cC-45" style="edgeStyle=orthogonalEdgeStyle;rounded=0;orthogonalLoop=1;jettySize=auto;html=1;exitX=0.973;exitY=0.591;exitDx=0;exitDy=0;exitPerimeter=0;" parent="1" source="OUMXYwsHuOzbVERew2cC-80" edge="1">
          <mxGeometry relative="1" as="geometry">
            <mxPoint x="120" y="480" as="sourcePoint" />
            <mxPoint x="290" y="480" as="targetPoint" />
          </mxGeometry>
        </mxCell>
        <mxCell id="OUMXYwsHuOzbVERew2cC-58" value="" style="endArrow=classic;html=1;rounded=0;exitX=0.5;exitY=1;exitDx=0;exitDy=0;entryX=-0.05;entryY=0.588;entryDx=0;entryDy=0;entryPerimeter=0;" parent="1" source="OUMXYwsHuOzbVERew2cC-43" edge="1">
          <mxGeometry width="50" height="50" relative="1" as="geometry">
            <mxPoint x="490" y="530" as="sourcePoint" />
            <mxPoint x="696" y="467.03999999999996" as="targetPoint" />
          </mxGeometry>
        </mxCell>
        <mxCell id="OUMXYwsHuOzbVERew2cC-62" style="edgeStyle=orthogonalEdgeStyle;rounded=0;orthogonalLoop=1;jettySize=auto;html=1;exitX=1;exitY=0.5;exitDx=0;exitDy=0;entryX=0;entryY=0.5;entryDx=0;entryDy=0;" parent="1" source="OUMXYwsHuOzbVERew2cC-59" target="OUMXYwsHuOzbVERew2cC-61" edge="1">
          <mxGeometry relative="1" as="geometry" />
        </mxCell>
        <mxCell id="OUMXYwsHuOzbVERew2cC-59" value="Angular Regression Module" style="rounded=0;whiteSpace=wrap;html=1;fillColor=#f8cecc;strokeColor=#b85450;" parent="1" vertex="1">
          <mxGeometry x="555" y="590" width="120" height="60" as="geometry" />
        </mxCell>
        <mxCell id="OUMXYwsHuOzbVERew2cC-71" style="edgeStyle=orthogonalEdgeStyle;orthogonalLoop=1;jettySize=auto;html=1;exitX=1;exitY=0.5;exitDx=0;exitDy=0;entryX=0;entryY=0.75;entryDx=0;entryDy=0;rounded=0;curved=0;" parent="1" source="OUMXYwsHuOzbVERew2cC-61" target="OUMXYwsHuOzbVERew2cC-69" edge="1">
          <mxGeometry relative="1" as="geometry">
            <Array as="points">
              <mxPoint x="860" y="620" />
              <mxPoint x="860" y="492" />
            </Array>
          </mxGeometry>
        </mxCell>
        <mxCell id="OUMXYwsHuOzbVERew2cC-61" value="Relative Angles" style="rounded=0;whiteSpace=wrap;html=1;" parent="1" vertex="1">
          <mxGeometry x="710" y="610" width="100" height="20" as="geometry" />
        </mxCell>
        <mxCell id="OUMXYwsHuOzbVERew2cC-66" value="Denoised Images" style="text;html=1;align=center;verticalAlign=middle;whiteSpace=wrap;rounded=0;" parent="1" vertex="1">
          <mxGeometry x="730" y="540" width="60" height="30" as="geometry" />
        </mxCell>
        <mxCell id="OUMXYwsHuOzbVERew2cC-67" value="Noisy Images" style="text;html=1;align=center;verticalAlign=middle;whiteSpace=wrap;rounded=0;" parent="1" vertex="1">
          <mxGeometry x="15" y="540" width="60" height="30" as="geometry" />
        </mxCell>
        <mxCell id="OUMXYwsHuOzbVERew2cC-68" value="Latent Representations" style="text;html=1;align=center;verticalAlign=middle;whiteSpace=wrap;rounded=0;" parent="1" vertex="1">
          <mxGeometry x="427.5" y="535" width="95" height="40" as="geometry" />
        </mxCell>
        <mxCell id="OUMXYwsHuOzbVERew2cC-100" style="edgeStyle=none;orthogonalLoop=1;jettySize=auto;html=1;exitX=1;exitY=0.5;exitDx=0;exitDy=0;entryX=0;entryY=0.5;entryDx=0;entryDy=0;" parent="1" source="OUMXYwsHuOzbVERew2cC-69" target="OUMXYwsHuOzbVERew2cC-96" edge="1">
          <mxGeometry relative="1" as="geometry" />
        </mxCell>
        <mxCell id="OUMXYwsHuOzbVERew2cC-69" value="3D Reconstruction Module" style="rounded=0;whiteSpace=wrap;html=1;fillColor=#e1d5e7;strokeColor=#9673a6;" parent="1" vertex="1">
          <mxGeometry x="891" y="426.5" width="160" height="87" as="geometry" />
        </mxCell>
        <mxCell id="OUMXYwsHuOzbVERew2cC-76" value="" style="shape=image;verticalLabelPosition=bottom;labelBackgroundColor=default;verticalAlign=top;imageAspect=0;image=data:image/png,iVBORw0KGgoAAAANSUhEUgAAAHwAAAB4CAYAAAAwj5aoAAAAAXNSR0IArs4c6QAAAIRlWElmTU0AKgAAAAgABQESAAMAAAABAAEAAAEaAAUAAAABAAAASgEbAAUAAAABAAAAUgEoAAMAAAABAAIAAIdpAAQAAAABAAAAWgAAAAAAAABIAAAAAQAAAEgAAAABAAOgAQADAAAAAQABAACgAgAEAAAAAQAAAHygAwAEAAAAAQAAAHgAAAAAiNAfIgAAAAlwSFlzAAALEwAACxMBAJqcGAAAQABJREFUeAHt3deuLUWSxvF18N57u4GDF9xzx6O0eJEWTzYjnTvuQMK7hffe+85f9v5nFYPmBRAp1VRVZsQXX3wRmWutfbp7zpw7d+7Jw+Hw73H9M/7+Cjx9wchRsZ/8++f6T4YUUPA5rrjiisMFF1xwOP/88w+//vrr4bzzzpvPP//887xbM+f9jz/+mLbef//998Nvv/02L76eL7300nlnd9FFF02fX3755XDhhRfOWN9///3EYG/d9dNPP83rsssum/HgGmJ89913M17+Ypjnx+7bb7+dz+bOnDkzsd1d5n744YcZmx9OfNzhueOR/Y8//jjjpoUXftb5uTwbl1xyyUFermJbh+fds7F/tsY+G9iGd7p4h2vgR5e4ppN3dtaLG05cWlcLuF999dXEXAV/5plnDh988MHhmmuumcG/+eabFVjyyFfIr7/+ega6+OKLDx9//PGcv+qqq6awxEBMAyWOgmiUK6+88sD3yy+/XIRvvPHG6W/uk08+Odxyyy2Hm2+++fDhhx9Oeyzffffdw7XXXjsLL8EbbrhhiqY5xHvzzTfnOiw4EjQvF+JZv+6662Ze4uMMA0+88TNw1hw1kka7/PLLZ64agSbEZsdGkeDRB4a499577+Gzzz6bxUhLRSA47jSEi3txcVUgMdhcffXVUztxcFV0mhj44SA+PzH5yDMe1j2Lhb863X333dP//Keeeupf4+lEcQADQQYpYOY4ffTRRxNUVwFAkK0LMT6CELZC800ka8RFlL2kjE8//XTekbv11ltnY7BRuM8//3zaKY4GwOP6669fQuMg3snJyUpc8pqLeJpEfE2ES8LgKgecxBJbQXrGj63cxEgbROWggDhZhyEX/uIR3hqubRp8YCuE05N9O5EtH/6eb7vttpmfmBqKLa6aRw5ffPHFzEdOaoQnDnwNMQ3xxcNfPniPcVw7HKhiIoYMEoZ5z4RGPKHcCSfJut8OVij2sNgj1PGFMNtwJYMMwdlI8qabblqF0XAumISCWzNJyJqOb0eJZ05MdsSRj3l8amLPFQsnYuBBOL4GTsQimjzdnUDytTPlsW+Imsc9jmLDoxUO8vUuF3hw4OFJO3hvvfXWLJYCyxtX8XGxITyzZwsfb+9OAnPpaLPQyMW3sQrOgCAWBQHmQr7d8t57700hOAssEc3BB/k6mugwag6CepcMvIqKrHf2BFBQwhAWUT4KIglHEjENRVYQXW1niM0+gfHlQwAjgQjOhuAEhSOWEXbr8pKPOO7wPOPjjrO8+cW9ZnEaOXnEkJ95XDzD4QsfjneXAZsfDp7p4QS8/fbb/9TY+GsGeaqDdx9nPl5oLS+YsOgpTuO/7TzekEbCJZjiA0JWUuYVisgCAXWXRIkAJQKiRNK1gioKPORgwZQUguysaQ6XBPkTy+eWZ0loSIUVF1ccfedQTAMHfDURcSWpwDiaj6e5YrXr2hlEw7/G54fj22+/PQWWD1+c5FBMnM2LrRBOQ3l6NsceFg3ZamTPuNGGPb5yEh8v+oiBb/nhCZem7MJwh28OBlzPGss8zRprhwNnWFKS4WQeaWIjomiOIYUiNjufJ4ZgbCUvUANRl2Z555135rOEJCtGHY1YXc9XQR1jBn/DuphiSMgzwaxrBCLjaMfDY0ck/PfxPOOoGDgogkL7rmLAtWZ0+slXLJh4lJc48Nw1KRzPho8bunjveO1EEENsWHIx2HQKwOenLnJSiwro7tRTbMM7vJqFPX954f+XL23vv//+NA4AiJ0l6cSRaN+EkUZOcpJSaPeOlDvuuGOSrQDsJWfnSg6xBEPWs8ITVTzHmHm4BHOx0TTuOp9dx6G7y7okidOxnWjmigvPFyQfMxrCEI+vnInM/q677pp5srcZ5KDZYcrJnJOPNvgTWg7W8BGPLxt54w4X/5qMZvKkvTWFw4m25s3BkBtb2NbTjA3u4oqpLtadTGxpyW+M4/qWrss4CQYAmQgC1iGSEdhuUVC2SAki2UiyZ+f4YgsHPqEEtuZCRpw+tyQMI2EVVJLmXOIphrvdz77TxjM8yYojbsLYlU4KReHrbo4N3ooCHxe8cFRQu91nPH5OMbh+IlpXMHkTWaPjBYePAtHABZNueNJXHPNsfCeKA16ajI3NB0+hxMdX8/p48eUMBg588FcvfGHiKm/DOlt68h9jK7hkACKIhE4WFJg78QFYE0yhvRt2sSTMOwEEVyiJlqTAxKwxxLvnnnsWUQUjIAwDabH7Pe5Ywg8P3GBpQtxwibOk+eLmuaLwN3A1Z00TsoXruQseXE3NzsWfNngSkJ/c5KMg8qEBbIXDsZ9OfPDVJLAbmlDjwYcpX5hiKbYGgtWpCFssGmg0OVrX/AptHS+x+WgyOOKLPcb2s4wQHQlWJK947kQnChEUs+IIbvcqJkB3wutyeBJmg7hLMoQxD4+deSJItjlYkmF/2pkzCXwIp5mIpAB2gMYyCI6fpnHh046DU4FwMIhDMPHYw8S7AoQlJ7biPfHEE9NGUeTOHy8YbI7H4+QMA1dr8sNDfHrAgW2elnJQmE4zjQBbXDkY7ppLjTQirNasO2VohoPLmnf6qmFjHem6BAlDpwAgIEKcEPAMSJIKZAA3CIYEW8TZw4Cl49wRQFphdTZbaxXY5xx869YIAxeWovpCxF6cxBJfI7qIjBeh7QIDHiy5wNH1Gg6Go1OMBx98cL7jqJCw2DpyrcN1GYpgXlw64EcXvMz5XgDfR4tCpgnRfcTBYScffuJoMs+w3e+8887pyxa+XOHLi4Z8xIbNBm9NLKarRslWk8l7jO1IR8IA5nhRGIkT32XOOwEVUjA2BiKIEgc5ArPV3YIhxR4ZCbBTAP7IsnE38CCOI4qdRPhrRo0BR1E0lbhisednF/GRqKTZWm9XWWNHYAKKzwY2O9zZ0sBnJZHkBc88W7nLzYBnzkUX+SkEfvKz7t1lHQ6u5jUkP3OuNhBeBj3gycnmUAPDeqcQbeQjFr3c+cnFM0zr+Fbw9bOMeBImAgKJa15Azggibw1pwgiqsPmxMy8gHKQFc4Igw5+No0mXW0eKsJ4JUdcSjm/JJw7x2YgLx0+9OBKkJsBXsvzMi2fXKZociG+OmAqCs93JpwLCkg/OcvTRYE7+7hqLPV98bQz8xNPcbPi5K4qBMx/z7MqvZpTPyfhzMWxDLEN90tRppyn5WPdlkiae21TWHP81C4z1hxcC1OkSdCk2J3eFckfc0eROBEVCgrjIAyeiZxi6URH51wR+CkVeoWEh744sHopijYjmiUgoBcNDAyVkO0UMfCXOV3E8a0qienYyOHbdrYunSPjKBy+XeDTxeSqOBjCvCGKwN48frjjCN+SruMfxeW6H0qcmqDlgeFYo+cCjD+1wgg0Pb3Pw5OmzXnPDxJsNvdjDMycP6y78xGqsHa5QOj5HwQnsXbI5IUNMtggISASEzUlcoL6sICMh/oTXgYTr81hChhg1lWfNQvCaT0yxYIsLR5NYJwYc9r5gEhcXPmGLCVdemtTdHEwiscUTNq7i7P8qFn94FVQ8TRMu/mLTwG9gYotlmBfvjTfeWPxwN3Cgs9guz2Lz9YwbfWmm+HSkufjyxJsG6uW9WsGy4TRIY31ps+uISAhECAgYEGBgEjAfuASBIoycwAi5EDSv29wlbJ6/ThTLMEcw9pITy7Mk2YYvwQqpidhIzuXLHt4S1ZCGuHiWjzX+fPeFxNnFDi9DwVz7b9Z2sSZmVy40oYFYcpCTCx4N/dFGM8Fiw6/mko/GwV8h+fGhlY8x6wYbfONGIxwUknYw+YnB15w6WYdNT7mfFn37WQaEyIhzBlKCHTsEPHv27DzCgOhuO6FCe3ZU1qFI6mrvLgIpIjuJKBQba+1uMQyFI7gdSyyxHOfw+cE1+DreiYS3PGDB9a5hYEmeiOYc0zjLlb85NhqcBoQj1AMPPDB9NAkcQlqTg2/qYvpGLabTBj9xND/7Cg8frmIoLPFhwlIwBWUvR7zN04FO5mgQV7p51kyaXgzY4sKGK55YeGowdo21wwnYLiKooBJBQOBIeyaSNXfBBSJQXenjgehIWEdCg7BHUBLWJCsBseERiqjePRNCgdu1RIClMAS3ppPh8nHhDdudraTxwkfybM1rJpysK5TPdRzkx9cFO0xr7UB4YliHoSE1s9wU82R84VJAGHIlPh3YsvEcH8WASwtc4DpNcIVBWz60sAHxl781OotdQd2bkwdOsNj6MjrG9rOM8ILqFoPInl0IIRKgZ+QA6nIJSE5zVHRzghoJzwdpBCSAvMQJwV5TERGWZ+KJBUdDKbDfzsQgonli+CIDzzNfaxXC7pAD4fnhLBYbsWs6nOQJQ7N5VmyciR5HhSciPvKtKbyLIVd54aEw/JqXi9g1Cl5OBjz4qwGN4cIx7xKfHnwVFCae+OGqefEy4ODeBrVJ2KjTGMf1LZ14kgOkaI5JwQUWUDDi6BTJeCeS4GwERcazAHytm6uZYBO8DvXMXlzYfODC953CvEQkRpyXX3552igWTr4A4R0Goa2xh8UXhl1ARPP4EsNJwsb8ww8/vGx8nuKHqxh88cHPO3uYCiFP8XDGwyWGE8NQaAXgC0NslxOUXz4waWRescTR3GHzYUMDfOQlPh5yh6+Z+KobXfm4+zjGqbGOdF2LgEAM2mlAzNkpAgmqIYhiEE1AnYoo0QVHyLN1O5WN4msMvjqPqDCJwt9zwrhLmL9LXPiOXoniBdOuNXDnjzsRDPHFJqbftjglIiwYsM1pTnhswsLLoI01Qw5OP8JrnE6GTiynjXg44MYPvgLApl15wYDFvtwVnQ9uMPDmIw+ayIkWsOxaGmosPjBqQutOU7nQxL9bjLF9aQMiQUIghyzAHAhjPaEFZithtpqCAIqteMjx52Oevy41j2DdnAjWPVtXUNg4SQhhiYhhrSPRnN1FGDEkXQNUeGLBJa41YpvD33viKSSu4uFpd8BMTDoY7OWMAy1oxcZQOD44sre7YDkV+SiI+GLgjVd6W+cvf3n0XQZv7/Jxx9NQQHPs8QgbDg7y00x0FauxnhBD3pchAtqB3okAGGmJVBCBAZkTxF1QgRBQeF1fx0qGjQQdm45naxIiomSswdwLQngiscOxk8UzLoR1d7ERQ0G94xU3GNbk5i4OrgSxg901FHvP4sixQtPCZc2A5xJLrvDY4g4Hpjk5meNnA9Do9ddfn2vsHP/x1gDW3fHgWxOGbd6gMXy+MGiIh8GWtuKy828FjXWkSxCRyBNGQMLpZuIAkiTyutq6S3LsJGQggQws84Z3wzty7mJoBEl4ZtOR5Oi3QwiQUAogts7VhEbFVcRwze+LSzR+/O1qvu0ueZvz80pB+dkh5vHHyzs+8tdomhNP8cSvYHAVkb14Nok7zejEHwe5exfPszg1ufgw8aOHuw3CF5Y6sKWbZ3wMOAZ7fBRcLNq5O97H2L6lE11hJVKhJGaXCowIgt4lJIArgSTvVECEWN49u4jGjz0iyCuamJKDV5PY0T4SJAXP8P1Bsrjx8cVEXHP8Ek5MDUJgHFw+++QldkcfbMVgBw8fGB2ZCamA1jW3pmFHONzTQD4VRzwFdxzjwoZPOvqSCU+D4S53BRPbPDu7VQ7isDEHQw3Y0ARvWojD1hod2Bti0wiugssH5zG2ghMVEENBJEkkQJ6JpSvdFVAgiVZccwTyjhSSFUUD+WOHdV9CiI2kHWyeAJKBKQY/sRGWhC9C8Ly77rvvvmnbrvCN3rwhhgsHWEThSyCFNyd5PNlVGO80gFMszdJwAuCiiASE6z3B3eOjuTWImLhpYrg1tVje+eNJA3qwo705d80Ey8BZHTQErWnPRtNoDhuLn5i4yIGNeVwq+PoMlwADJCKouIgYCiCQDiaENf+NDkm4BCaEgIgpGnI6jK/PbIXtmNRckkbanQh1vuLzcUdULDgloFGIK64iiee5QiqsY8yQD1z4YuMnj3aWZ+v484MlZ89y0CB8+HsnpKbF2bs4+MnHhZcGNQcbb3nA5AuPhoriY+I4/oHF3xb4GjDpKC8c6YC3eD5yFU9haWFoWHEMMR3/sOHww6djn836DFdw4iOo8xEDzLFdI5hAHWcSkIwd624Qji8bg43ECC+wCwnxxNJc5iqGL418+Gssa54VE7b4eCqCYZ1A1uCK7V3hCICXGBrCPB4E4afQ5jWjOXkQTzz/rEhk/wjCDw5fAz8ciK14iuWZPTy4nsXFk4Z83NlpHvO4agQXbJh0UGS54O+/umTdTrWB1ARHjQbDPH7s2fERFwd4Yhmnp9V2pCtqzoISEAnBOXaEEUNA9uZPxp8RBWFf00gKAUnDEBwmO6QkyldR4LMpQTZhE8ga3xoxThK2nnBiwUx8fBRVg/hSqWH4snPBxBNntgpHOEPRYONtpys2oX23iL91gx6e4REXd++09C4/c45tGHIXvy+B/OHjJx5t5eAoh8neZaSXNbnJHb5nDeVyusDrnZ78XGNsv8O9Ge1gSTMmkoB2ACLuAhGCrW4yR2yCKQxhJEdQpCuq5OAixFZyBsI+69zbZQkjDnw++BjePUsKvjssQuNkJ+AKT+z+89vWOqVqGMXwGYi/ddiw5OAzlD0sAyc5yUHR+NYA4oiPlzka0U4hzcuDb1gaHD+xjXJiQyd+OHm3VmE1Cl7m4IvlOW5wxaOXebY1sjjrT6uI6jDGDAhiII4AZ3eJemaLvN3RnAQ8I8oGFnEQk7AkKr67nSchn2GKhoPPLuRdeGgcuNaJb15SGssO0nDW8TTHjoj8zLHHSeLiE4i9S7x2FK7tKHnjbeApTwIWnx3ebFx2nHf4cYXNB0daOVI1iIL5mGDn89aAj7dTQdPhJJbBR/PRSiOzE8dFBz7mDDhsXNYq/r7g60sbAogQS9AEYAyona7okjEnScEAK7KkShpRzeBiA4cA5olkTiEcqUSVoCaBpVjtNrHY4ydeBRA/MRTTOn+YODgpiA0PFmEUSh5s3NnXEHjCE1su5r3Hi72YdFEAzeVZAxHYkKMYfunIDz7+4cmfLb6OeNzwgoGTHGB6VnR3cfCQizn59/eStCgfXPGE666W/OA21pc2XSoYokgL4gtUBVdM63Wt5xLsFAhcMCSISCRHKgHtctjWCIGwd8kb5mARHZZYyBNOPAUnDixFFIeteWKwI6AdxabfohLv23w54C6WzzaYFRanGhSuy1Ao+BpJDHETGBcXYV3wYNjBCqYBrdul4iq4zSVW+rIXC+/i+XcDWE5bGLjL2UWb9FOr8qe5/OWWnbvvKGNsn+EIIScxTgITo+4Q1PHpS4E5SdfliiI4P0WTqEROvxnOQiPYxwCCbM3pfvZODk3nX67geRfDP/SLTQzJm9eInvkpAq7eJd1zHxNi4abxiIofH8Xyrvnw4OckgSMWH2v8KhKbGtF3DkW329nCyJ8+ikM/8fDnRy9YBh/vhjX2hnma8MWzTaA+NJOP9XjRSh54s7HWpto30ASH30OJcpKYzxpEvbus++ODpIguKV3DVmEFQdK7oAWLtI5WQIQNOHwQV0Djsccem+QVjtgE5a/TzfVLwYnB38BDwsQglt0jdheB8cbJCYN7WHaBeZwVTJ52Q3PyIqjhFIIlFj87zmBb8eAonDnFxB2eRte4Toc+fpw69LDr6cZPwyswH3FwpZGmso6jqx3sp2Onpo1YXk429eJrDr/GOtIJRlBCt0MR5oSELiQiAAHZS5CN3WT38wXuTihriBsRRsbugiFhpBWNSGzMSUoj1FCaRfKKTEj4YkuKrVieFaIi4kFAPhUKH3Gt5Y8bX5zcNbk1cXDHhwZi4ACLPvTwjjP+Lo1l3fBu4IevotHIH23orIHoKqZLkdm509mzSz6w5IJXm0AO5vHWfPA1D395WrNp6eiZ3xjHVXBG/tYrgEEoyQCQPCEQOxm/uwlhHgGFR8xu4CvButOO0b2CmvcO1+WZn6TZExVBiRDTpbnEsW7+lPTEwlGixCEg/nFhD9uuEovQeGgqOcBSeDau8OVbIczJz07EQ3HZKihO+LJP+L4gER0XjeKCISa8NkW/lZ12+LOB6ZktXHHEhG9ervIz2PKlqZzcnZIKqwY1JhzP9P9LwQkssEQIiCAw87pLJz300EMzqMCtIQA40SokG8U0CMbGLnEZiMCUjO7UUJJiJwHEFQuuIUHc4MPAlS8e/rZOXPGcCiXNlw9bHCQNR2MRFj4MXPgqFPwajr88cHKxJSp+jlJxsoVnXTEUia98YHq2aXBJN+/+TZu92JoJjwreJtGYGsU8G3nKEQ++vnOJJ0dNgpNTk3168Dv9PrXtcMEQ1qFAJQ7IzuAgsAEk0RGRgOHv2zAkBRwpPj5vCaRI7K0hA4OtGIiy1QDeiSthYnnXDDi0I6zDkDDBFc46Ya3FXT4KZl18ebFTeMUQ37o1OGI5rokGB2+xcTHYaRzieraeFgrggsMeN0e8mObEMY93z/LhT0OXNfzK22ljna4KixOd8KYZXHNyMc8OJwNPdtbpKqcxtoL7nESSSJwlzsE7Eu7+scSXDoQkDEyShC6ZyEBHwE6QTN1OVEMRzBFEYuYl0Y5gg7x5/uyLhyexJFXh8VEIMc3zYeM7QwWXh3nJwxCbvzk5uxNYPnwUBpZhDjZ+Lv5dbGHjao1PfDs56GfNRpAnPEU0X141tHX+7J228Ohrs8SDn4GzdXk41p1etFAXtbCBcRN3jK3gdp8Agkna3YWMy+9YCQMBLrC7ITgRFZAIdjs7eH3ZYE8Q6xLzzN5gR5iOJ3i6F2a203D8H35hSQQ3TWjeVZNJmmgVhX9fYnDTHOzhV2x44lojND7lYU4smAaN8HNZkwM9CO0ZD7HxcHxrXrH4s7PGjwYaC57iwCt/8ZywMHGDac5dbeAoNmxz3s3DFke89PNLZ4ztd7ifDAISnpEAjoK+DPhSgqDPW87EIo5kdJ7dQiQBETQElpAEJC4ZArLxThidy887wt7xgCkG4nw0JH/r+OGCGwzrYkm645+ACsaOSDiw856w+SU4LF/05IWT3SMe3z7KzMkJX40nrlPM5zEt4lQO1uG5w5GHZ7H44yNvG6P8zeMsTwXVkP38oiutDTa4wKjZzePKjx42A7vG+tMqEsj4wCe2b+yI6jBCWxMIODDkkQZmjS0BFcg8wdlpGkVgr4kkBY+dP15oNImZT0jrkuYDnx9+EvHumUBsxCQuDBzcXUQiggaFh7fjHTc+bKwrKDzx4Xg38GbnVNCgePpnVI0AG6dy5IuLj7xONHHYyMEO7OOChgoB2+VZTp0CNSlffubxw4eemtPAycaDb85dTnIVu7zY8m+sgutYgHVyJAjlOPdFxzqR3IEQmJ05dztbQAQ0iuSJgKx5Yrkj4/eoAhPK54s7MfAwr+n8vjdwIK4kCSeWhrFuXlzJ2l1sxOPj0uFh9gXSboHRieA7BK5i8rGOCy1qQk1rTa4KISZhNTsssfnAok07UnOIY03u+NEPlkYJ05rc4LGHAQsn368qOB5sae+imztNrfGFSx9548i3sX6HSwIRneXibA5gO424OlBBEWEPnF07CmFBrJnzUWAQyOVdYnaTpNhKAIYLcReBvMM32PKTkHmCEjl8dprMl01FUgRcJK5IhDbPPwzzcoJtt8hVU8rRvDhyN+9y3JvHD4Ym0xQ40IONRhaLnTWcCA9LcSsAf9hy12yGHPjSXpFxVwt648ofnm//8qMHvgrapmHvXTynAxt5036M7UubAugUwBJCzAXY0QMAEUkCzw4KYsSVMHCJCMymQsHybA4GW6cGXMN84khcw8A1JNyfU2FI0pqECCtBieEqNtHguvMlKtEVQ1w+xl58ttbxkB8N8OjoVTwDLm4utrAd9+KUn0bHhS1Nia3A7F1s48lHbO+amG5yw5efvKzjDRf3tNWYbGDipxH4aSC4bUJ54jnG9l81MoGURBVfcIHMcXY3iAwAMGJA60xdTiy7E0EkfG7yN08EtmIRUpIIK5i4Gqrk4LMVVyMY7HEzJO2dqO64uErefLw84yK+QplPfNia1OczDopnHX82cZYnWycIvniJ6yKwhtfInQIKxcac/MWAh7ed6h0WfNzM06JGssaOL/7u1tjDfPXVV+cJRwsNRHOnQg3B3nONw85Yn+HAJCwBZARzIa1A1pGy5u5dUxAHuGKxP+2k+Q7PcaeISCOGbDYISaDdIXFFcyc4ATSXZ/glTnzzLnyt+56Bi3fcrGkqtn4mKqSBq7UaSRHkUV4w5GdnKpqccDbc4eMFNzFrNJhOH3zguNjiYTPIi00c26F0atAEf/iKiIe8cYErlhycjrhni4vNIDc2eNOVH97yM1bBBWr3EkAQhVIQAQQD2oWQzlY8RWUjuGE3s0fIhTgCkneHLWkDIb7iiF+R2UmWWHD5ePYrgnCS4GOOsLjgKx4cyeOKnxguQ552qrvCGoQxRyh++HuuwcUQX9PJFUcczMUfB+92Oj8XrgZOfi3giyNe/PmygykfDSDvuLGHWQN5N+jFDq+Kal7jiNU8bD6wG+tLm0nHGpENoglGgAqmyAKVnG5il6C6ru4VTBF0tnXHIGw7QLdJki2h2dQsyMIlDH8cYImLfAUkPuH8Q4RnPCo4TCLxIwghiMieDXxzhNPcnuVUHtZdfNjLCw4xccDfPG4w3TWINTsYFns5wRBDrnLAFbamoSeOreGdP53Y00bc+LDFk04uOWgyeJ7ZuePnTi/+9Blj+9L27LPPmpjJMdYAgJAWWEdyAoyUgaAAkpO4wV5h7RLCmOeveDB8NiFMCL4S9iwRYnivsRKFkHDYKA5+MDQNca0rCl8+cAw+7H3hw1lRYLCTn/Vy0ZBwOrn8AqhxNI/cfR9hzx93seDBlbPc2fop6BJDzgqDZw0Ag68czLMpdo2Fj43WejmL06bgDysdxSx3a+LhKs/Tj7TtL22EQVyhfB7qDoXyXpKOJd1sVwHsDxk6SHF1Ex8kdSZbf1xBAlFDcYkqhiQJxlcc5AjGj1gSY9+zOJ51PxsxJANHgXCGZY2teY1ALLmZI7TLFxzvYuCMj7zwsc6HYPAISgPv4cmHjaaIl2J1krnj4zLotW94eluTHwzawcedPjabuPSzbuBg3d82/EZnLyZfvH0k0JDeasVGLaw31md4OweIRErcPFAdohiOeH99kiQiBJcMkQwBkFIYa4LBcKwpqiLwNa+DE4Ut8b0TU9LhKZbkcXLBYmeOsOIRA08Js8ejwnomgnVFNe9Poeb8FMMPJ03Dlwa4msOXv/n9DsJffIWRPx58xMCPVuUqFzHaDPIUQ3w4bPuyR1M5FFvDwaGP+erixOlkcPd3BE3rBMXViYoLHLwa6zO8ztHBuk4yAhCn3SkwcuY0hSOV0EhrBIkptO7yVzCJSZSPhhFcFxLH7kSeCMgX0xqiSLKtcH28iCtBSRni44k/HFzEYS8ufHHwIBp8uTmdiAKvXHBQPP4w5SO+4sgdBl8XTeAZGlcscfjJTQ40UDA6wMabnUsMnD0bng247OLZX+6smRND7t3pHiaOGseAz8ZdTrQZY/sMZygYAwETwk5SRO8EACqwUSAJ8Se+QtW1fAWVTAkTSTGM7GsK9uY0lF1CLIUhKBEjLwYe7HHW3QrjHZY7DjgTHk9Y5hRPPppJLL7s4BCFbYWRL74K7M6+4ounmexIfMsHL+/ydsHDm0YwFEsB5AOPNtbjrmHYKKQTxRob8eQCh//eF3/zYu3xxIAr15Pxn1QaY/sMd7wQywCgQHYqESQJsMID9mwgSBCJS9CuMUdgwRoImyeiAno2RxzvYoipmITBQRyJsZVk4vn8Fd9/0R2eJNmzEZ9Pf9QgGjz5Ea9iaFrPMPm68CeSO3z3Llw1KlyDb02gWXCkES3Eko8Y5s1pYAO3ctFYfMRmJzZccWiveVyGPOmDhwumBuDjY4kGOKsh7c3BNZzajXWkI2I3AVUoyQjOSVBBdAqBzAvAVpcj7Q5YEkTik1iwrCOHKEyXOE4Gc0SQNGy+GkgCGg43NoS07rndpYh2A1vzYuFql1jTQJK3RjRzbFximsdTPJiKx99pwEZsfr0rogY1z15xPIvv3Z0ufDyzl6tYuMN215hyx9OgIT1c8NkrnKLSwxxb+tLJvBoYeCo0jjgY8pKreHJzjbH9aRVpi5JH1BDUvF2CpM9sxAAhI4h3NkgggJxg3hWiIhGGEHw1jrvPdf6aSEzCwPAuQc8lIEG4MOLoyyPhYLEzT2hcCcff3bs1guFnmO/ZGtFwTiDxsuFPTM3nczmx5W2eDrjDY4MPu3h6x509TubF4tfHhxPBt286yYW+4qoBHQ1+8sdLATUTvkanQ7H4e64202j8n/UtnaOCEpqxd8+IduyZQwg5hCssIpIlfjuyQHwQ915hiSRxg595TQVHMtYdgYqnENb5h01wfprEX7PwaDf2DIcIfSzBs3txhwUbN/Y1o5yIRHD8xDBHcNw0L5E9u/jxZ+9i68+48qWlJhDPoKV1nDS8Oz4GXw3CXiF921YD+cFvY3jmR2ca4OL9ueeem35xhwlbc8CTZ2M9IcnIXWDgROTkXSfaISVLEEUipEDItYO8S85xahBMAWBI9v7775+kfRabkxxBYNSZPh74SAxuOwM/8wpmR+CnEMXEu8byLFkcYbuIJ0/2FQxHOcbBs4uw4hJNk4hjx2lIOsQDHjs+PuNxqtBiyoEeNQRdzIv/yCOPCD+by443B18h/Qb33vcQsXGAp/nlRluxYbMT22XOO319dPRn3vUZThRJuetsYiIASOIKgQQbibqA6mTCIkNoZCRDUMTdHduaB5417/D4mIfbjkUWNvEk15HPjg2hKyoMYsPhw5YAYhKDT/gaRfL88eyzVT5ETXR3O67TRbPJEa75vnN454enPN3FlR9MO1aj9N4fq2pANnzkFE4a4Ofyzh5nDdQFEydaGxVfrfjBNsTE07prjO1bOjDi6ApEJEp8YiJueDesmReALSEkqwEUyRyBBYMpMCKaSJH8zf7xxx+f/nwVkB0MQsPXZOYcb5I2cCSuiw9fYojr3bM/qBgawbqTAp/j+J/WwIGNd6JoQI3C1138xPNR4F2OjmnrsHHyJRAOfLFd4XjGl2ae6QCfLmkjviLDhseejXfx+bjscIUVC38NC1dO/iNoJ+OnlhNFHA3GR9Oz8wVcjP3veLqsHS6g4LqGIVDClpRjCLBCJzhRJFFnwkDIveD8jZoE+Uhly14zuRRBYXDAxxHc6QOHWI5edsRROH4EJ1hFMu/ZbnDB7DRKZLnCw9VHDV748SWavMRgz18T2uFOB/9Ly7Qw7y90YtCnAmkKGDDFKJamlbfGhgNDfFxp5d2zYoufHmwUlw1fG6fc2dOQxriYVy/+vtiK6e8NY2w7HDmEEWMAlIAE8CwhwEjqeGC6R8GRYCdgpwB0ti5B2cFh1xp7xSOIBiMugdiKRTyJKqZk2eNEeHxgE693OwUXF0xXTVmTscFREeHFhdDmFV48Q2PXLEQ8GTvqlVdemfg1GZ5powgaQEz5OC1p6aTjj6s84lDzyBMf7+xgqkMbrDrgFXda+iiEzRZXd3P5xRGPxtrhdhEQVwE4AkBAkREuqIJbY6u7gCqUzhbcumJaF1jiBMlfYhVfURWJcDoacQVwKQCRFAymBMUjKH52gsbDm9gaV5yKbY6tQdhyFBunmtUz3D6jNR9bdvLAER/Fws+8d/7sNJ87fzrwx4Ody47LBp5c2dNj//MSvjm86agpNYNhDb561PzyhUsLQ03E85Fm4MDPfYztd3hFFgyYBhBQAQTwT4wSRRY48RUNMQE862zC8BHQHEJEiZA1BH1r5AsbIet8xOVjKAIbnMw5rnAw5x1nRz5/gtYI+ItZQ8qjxuOnGbzjQoiaybzmkEO7w5zCsHPxibd5scTGkY/cxNUM+GtQ/PjRg41c5c0GPjwa0rQi4ycHfOGwd4lpc/GhhcGWvybSEPDFEtu7tcb6WSYwsQ3diSQBgSKSEH0ZQgx54lg3j5BTgC9C7mwS35yrLiQOYvzY+lKEIDzvdgp/63ZntsTT9ZKHIVHHOj+c+YmJo2Lilgju/KzjzlcMd2tOExzFCk9TGexgKYAvouzN4QPPaeROP/zYGebYwRVHETWKOw6wfMmypnhychl84GgqsdVDTjYeHenET1GtaTxzdFALX3r3R/r6b4ozJpQAjm9BzBmSF6yGQN4ccMAGPzsAEUOBrAmukyUIz7tnRSSoRuMjURiSISQubCVFcGtsHd+JggM74koaLkwiFoM/X0VwT0yc8FMMvGAqmG+/uBFJfnyssekLkdzyY8uOXvh5ppVm826jyENeYpuD5z2e9MSHLRsxcfMOX0OVM16waV0+3tlb8x+ilDNtNIF4NGqsz3CiA2fs2ecKonaD0a4iLhsBiCs54hLALmte0ZCEZU1gd8IQxbzLsWPe4A+rnUMEpPESy44wzJuTFOHcrSmEdwnii4tRg/JTeHEV0LxBMBhytZNgWJerwU4hcDM0oGLBEgNv8cXEi26GvOQCX2y4MIuneekHH5YiWvdOOwU1+iihAb3M4wBbo+NA305X8650k9tfvqVXDGASc/e/AigRl3eFQsROF1AxOkoSAzhSgjspkCUkMZCA4VlRFN86H+R0tGLA9CxxvGBLiD8eBEso64T0312XvHXFgM1fbJwJCqd8xDXgwIYJHzfFxRO2Nf4G7DBwlCMfz4rc6cLXz8qT8a3e3Tw+cnbBVwBNhbM4/Ivj+w0+vpD6EmznyskJ44ju+xRMeuHMF7Z84GkwGDTobxNyWDvccaZTCEIMiXjnIJiieLaL2FhXeAHY60xFIz4hvCMhOcElRwg4FYYQbNhKGL6TRTxz4sMiqCZiY/44/gghGUKwEddnf4UTwzquOPKz5iKOd2JZx8WXTZc4cis+G5/pDTlXIOKLKZY8DLmmXc3hXd5s09IpIg9/LNGQ/OGWr0LjUQ7u1vHC2buc5WHOxhIDFgx4ctGcLvbyHmP7D0AggCQQd6IihiQHjsTbAwJ2vPNREALprorKtsaBjwTi7BEmhruiiglPwyDPxl1cR6aC6Hw2cHGKrxjiaz7PMBTXOlt8NLQ1AwcniHnYmtFOcWrBNdiaixMfBcVLLj4r5SOOd8MaLOISvzxgeWYrB3H9OwKtYOCYJmKy9d8iwRmeovLRBPytF9Nc2tES/04etaOF+ObG2AruDwpGRootSYII4M4JaUEQ7CjSCNYV0G6GQSjHqB0sKSLwQz5fxxNsjYKUdb52Ln9JWZdQu1lRE4mNNTYSxVmDSJwv8cRnhzs+eIgBBw98rTv28Pdc07krsnhxl7MiOD5hil/TimWwt24NhvzohqMi2u1w+eFwuvvmu8LCscbPO65wcNDYbRR/qqabNQ2icdQCR3nAoYMcNfgYW8GJAIB4DFwIFxwBz+yQsAbUEQyU2I4/IgvoM4oNQtYN/kS3rpmcDpJ1IUtIO0MsguFCEF3tLmHCsQuHuASBjYP3GtCzBpML3nBdcL3j5jOWjQtf+NYVho3CmCNyxSCeOVhyE18+nuUmLj7i0sh7sdMPnnlf3MTlz8bwnr15POHImz+/bNLLOltrNTqN2MmB3RhbwRnacURDRvEBeFeMwKxJRlcpgi4E5rPFLrdmlymOS9KEcIejyxGKNIxEskZssTQSYXEitKTdYZeAYsFRLBiwXOKJRbQEkbw5AsSdL1xz/MTeP/OXA6HlJXfxNajYbP2GtmaErxmsy0NTy0sD29n42BjH03/MEUNcV83Jj481umkKz3DxtO4jTpHh+T7hWV5OHThyY89fju3w9Ttc4YiCvIIkPJGBdpx7Jq51Pu5sBDAK4B1JBAlVQuYRIw7S/bZFUqHC8BlpOKrg6GwDeXZiOubZ1YSKw05MglU8fvISlwh4OxpxIma7g79YYtRY3mHxkRueYsDm59mcyxx7cZxwuBv0Mq9RreEuNlwxaaEx+Gsum8yzk4OvZ/bysua7hrt6sTfYGpqRbXXwrNka61u67hOYg+TsLIQk5IgU1KVzkWBvIM+PbR0nAAwiE5h4yEq2uRLiJybBJA9PByNMIMLBZ9+6ZzEUHiYuGglXwvGzxq6YhDFXw+ATBz6+6ZrjWxOKp9H9PHXE80/AGpoWxOYjliEfmHLF0502hvjy0wzW6GOdXoa8YdJBDM8ufuwrqAbKx+lKIzZyMODCYENbm2OM7V/LGBNAUorNSKHME4uYilNTACSO935G2GnImXOEOA3yk1S7gL3njlkxEa2zE0/CjnZ4nT7wiIKLNWKzIyBRS5gIjk4/fczBkJ9BcO+44gVTbHxhW3PJHTdxKoq8YDoZCNrOUmDxbQ7xNAix4WkEHNu9/JyicoLNj3ZsceGLj9g4W1doz05FMcSPk3jeNYQYcKz5uPE73ntj/S3dzjWAK7SC6gpBJeXdZ3Q/R3S6HQAYCQUQcN+RyLMpEckh510xdKmj1Rxx7SZCGJ0kxFI8IsEupobB1R0XYvDHBx5O4rjzkzwMFx+2clN8AitkPORiDYfu8OWOJx9NqckUUp4K5q6I8sJJA7n4emcT/5oOX2uKaA4H+uMs976Vm9eE1YVN7zipjQaTl6J7ho2/e2Md6RFI+IIzBOw/h1bhCEE0JCTpWWKCIIqMI7JkFJqNxtFxxJWMBkGozhRTJzuinR6w+HU8mhMPH4WzCzQDwdg1T2B25jtpcBeL4HzZylXBPCuUf8BwuslLbPH6jE9AOWhWubErrqaRk8EW5womptiJz0ezKpI77WjmLqYBDz4MubSz2SuqpqKluwLjJaam4id3+XiHLb8xtiNdVwNlbAgEXIfpKus6XDEIJuGaBFGBvSMMxxcLiSmg7uXjstNgm8vPOzzE3CVENCQVShEkLTEFgutiY1Q4mIrnZLL7/K8kEBUnvPHze9scn3Dk6B9N8MMBhkbSqJqbeBpAbPl4Lnd23nFTAL4a0V0RFJuOhFdwI6z00fCdFnISQ7FoxRYP8eTV6RMn7+zSoM1DW836f8fa4UAlC4C4ikz8jlzPCikRO0iBgRue+SqOhpEkDGQN5FxE1wgwxOGnqGyJofCKITlCGuLy5SMpXawhYBHMR4A7UcMkGuy44OnZOltYNYciWhPTmubY86eDuAY7XMSEKYYcFVZ8a2LQAYZBK2tOhRpAMWBqknjigRNfOYtL73LCS3xYBr5wcKYbHvLmj4d1d/b86DbG9h+AKHF3IAjpeM9AzJsroKSR6XhBUpKCAPdcMAIj5HhVWMlINjHYmfOOnN2A/CnJtfPEEFcybHGSLH8x+GpQMVw4wO3zmaD8+JjDVW5ycI8Xrmy8w7Tum3oNQXy/HrzbKOLQil8NShsFsftga2Rzdn9aucvVlRaw6GyX26EwbQg5ykmeuPWxAlMjyVsMjYifmNY0lDwa63e4BYFcAuyFYUxcBDgTyo6uU1sP2JpiKWo/cRAgsiEGfHEc15KsCBKVADEcp3ayNXPiShgusdnAJTY8R6o7GzHwIRR/heNDGLjyiS+R+i5Q4eQWD9qYh6X48DzDMPDyXCG9i6cZNK48xcDbZ7N3vBUNjpz5w1YsczW1JoVlXV6KLjea4SWmGGJqHCdmfNkruntjfUtXJAly5lBgOwpB68RHHDDxDEQQQtCdrwQEVgB2BELIHb7E3fnqYMmb489GbGLAlLzCiK+YkhVDIp7jm4g4EUkj4WlHKTChFDWexYRFaALCEBsHAx+54Ia/mHDgWZOj/GhCJzzFsL7HT1uYNoLmgScfmvITR65iF09+5hQMnsGXbtb44KPoagebLX+bi0/+03n8n7XDCaH7CsYYKaOdWaKCCuBC2iCWYAqg0I4Xu4SAbFxEUWCF8OXJGuEQdcH3GxcObIVQENgS88wHH9gwzcGDyw8ega17lhdxvOMmL3i44OhPyASTd8KnAX+71L1i0wQ+IQ1asIer+HLHyTN+8cItH83lma984InNpo8knGmAm4Zy1wx4eHang2exXDjQSUycPec7yY7/swoeCcJIiqHjmEiIEdW3RF+6dBYbhCRXIQgpEDElywbxkpaUz0JC24X+Id/wbs1laLyOMIKw9QXGervPzz42hMNdHHHxxYFf33LxNe/i410+vhnLB0+7VdPBUEDNJwf4YspNfBjykTMs2nhnhzcsjYoPHuwMGGJaF0c83wM6WWpqdz782WoCfuIUS400CV98FN+JyE4DGDSTJw77sQoO4GT8JzQMiQFxPBEOKPC61JzgyNlBkkFOh/H139smAOL8BGfHvsIRlqiSlrwENZROrUt1u9gEMh8vtuYlJ65Y1sWyI/FUDDY4uOOGAwz4bIgBAyeYCq2J5ccftuLBPI5/7MAfTnHl7TJHD340Yy83nMSxxoedInj3/3uMBopkTiz46rDn5t/N2Ws+sfDHNW3scnnlT0PFp2l/CxG7scqvSwVEWtKSl7QECEMU4gFzB6gpBNLZAnv3mYQwmwh6NmAia+chI+GS9e/xMInk/6UFHHweffTRuYMqAD84didOBGoNd3ngaw4Pg9Ce2RLOUBBi48jHukbAweWEw9scW9gVi+hiOJlqRJitwxMTTzka9KETPzwUxnNN6Asxbp1udMeBv6bzjofmVWzY/bdf5GoernzUwXcY/PHGt7EKLjgB3SUhUQH77PP/T4zYilAxAfsDgaJH1m4jnrtLQETtPo1ECIQlTJiXXnppCqeAdrIBT0IElLBEiKtA/HWsHeLZvHhOEcma44+3eXFxwNuc3aLpDPFhEcyzvOSv2bzjLy/rYuNfLOt0kpshH9idHgogJnw4+BnmNLzc5OiPWXIw8Nds4rnoT2N8NQLd7Hh2chKPjWd8PHfC0QwXH8uaBT9j/eElAX2mAZS0AiQqZ2IQQBLADd1DKMFrFuuEITA7okhUkoqhqxMZLuHsALGJyl7isK1LWEIu3c4XD37wxIMpST7scYLlXdH5WMdLAeC7sw0LX/HEgeld/uZo0i6CBUfBYLiLY12BssNBzvDSih/e7njRzKVQYhoKJIZ3eGpRUeUgpgb0LH/c/BqBIx9ffPnLscbzHyIZ47gKbkFiDPtMk2wCEkVwNp4lIQDigkjMQFIgc2wRShx3l0EMsWAodFivvfbanK944hMIXgLExZ2fYuPjiodnjUMMz2Lho2HkwbdG9MxO4VzEVQy4fBIZdzppBDuW8Gxxiy+umpufIuDPxh2ejeEyaAMPP8/W3envUngx7G42NZ+NSD+71zpefMVtE8hHzuLS5HSHb39pQ0CQPmcUjcASyxEZc4K4IwDYvKDsgBPAYOMyIsAWWe+ENoiDrHfFJ7ZnOxSmS8LefTbBVzR3BYJpXWy+BPUuDiEUCC4cJw6u/Hxc4Cc2P3c58ZEjPNierYtvJ9pxsIir0LSqoHBxNw/bMSymxnRpONwM/grub/7WfI7LSyyD9jDEh4lLOciNrXcxxcFbTvD7eJSD06CxdnhHNCBGdbN3yQgsqAAC61oDqWw0C1sBkSQQ8es6SSGUIB3PkpYk7LpXgRTKLpQIHAUxYIuJA1/PBIYvD40gSZ+V8hAzscSu6/nxr+jydvSJCaM/g/Jhi6PY7GBoDv54esffuvx71tje+bZDcaoIey3pIQe21j1bN/ChARuaG3tsHHC0edzFl5d5F9sxtn8tk4TEFA0wJ4XiFHnE90WyxtY8EgTSdQrkMzl/kYjOV2DiEKpCSkx8iepWxZOoneO9HYWTovNPCPfiWNcwxHEpnMuwhp+COMnElC9fIrnk6ZjE0Zo5HHDTSAomnjtbNvKC4Z0WnsXutOCPgxwU2pqj2jp/udABJn/54lgMHE6LNXPAm44092WvRsfDsS3P9BLHgNFYv8MREZhDux0B/2zoHREFaR0pxZWQ3ShRnSQoQp4JjJDkrGsQ5O0ix5d3CZuD69IIfJwOL7744oxrTseLqaCEIjwhxZG8iz/O8pAkG354ioOHmIZ3WH1OKqp1A45BE7Fh+ihhA9M3ZVxg4OqXiqNeIz3//PNzTr5wFAWGhmDvVIIDk64K5SonTYG7dXM4wKGHC54c2NHNxqKBOXbsrbnkQwtcG+tnmUUF5YAQEgAdi5IkKMI6jIiAkCImH4lHHAHPiMOVJDv2kncRBL45WHwQI4JTRod3IrDVcHAqIgE70gnO3hqOYsHT6XgTAzY+hPC3BOLJl72LkGwTHje8cIWvsQ2Fhy0Wf+ueaeDPxWnA1rdl+dsQFcnzcfwRJx3N++OTvHEyioWzOTFogZshrjWXHGEpNgxznuHKlxbmGmuHM5KkwhFAAIV1mTeQ9+WA+ACJXNGQQtR/xwuWk6EvgAiy5++PKgpIzHayIii85Ow6f34logTET1C7iKBsxfAxIq4GTQR88I8fkdhIHl+FUdiaEbaTQrFwS1T4NQVMouJJl5pLzGLJnfhywwtvGN7Fs3E0qJzEloM1c047mOLhTRc2x9EY9BBT4eQhHo7+JlJOmp8Ghvw0pFOUH501aWN9aUPAAjCgioqEd4kpliNa0MjWHNZ89vEjjKNNwhIV1DzCFdZPL4kZCSl5scQglDh8YfGv6azx0bX+oQIuHvw1AwETlBD5iQfTEWjHyk+BrePFjziwcReTrTWNBl9MF1zDs4ZxlyvbeNMo8RXNc/qy89HnblPQV3wYOCiYjcUGT5d1GAbOYnqXv3zVQL3UoeYwR1PzsMbYfofrTt1XAggjQgA7QAchRAh3oGwEI6Z3iRkKIZiLHx8YNZEYhnmk7Q5zxbBD6v5ToivpCkhYxdcg4hg4wMMHJv7eJcyPvaZQULGI5ieRecVwF4/otFAQuRJNPLkqtjsbxzNcc3RySrizhy8nOHJhB4+vu6LShAaKbmST3njWyHDwK57nii4+3jDlSmcxxIfRd6kRYvuWrjOQ9SXG0RJhwC7C2Uk1AiJsfIFhj4gd4VlQwjqqBCamJASGI4a7Cx4sRSKUYiNOYF2us8W1BkMBJAiXWJ5dMAjAX7HhmpeT4kjcM574wSEMDna8mBpGHDkojNhwzcONIwxz7nY/LBrx8+x/GVHunYDi4qtB5GRz4VZueMPCh4Y2zgsvvDDx/MmZXjUKLFcfl3B8JxELhiLTiX74Ghq/sb60IcpIwgQjUoYCEklCBEJIQdmw5cuvXU1cwTQEIvysE0VS1g1zPq/bTY5w9opFIMk40vkTxbpY3iUncRwUHla7EEd8DbY4EpoPDoqHG77F7HRi04khpoGDOBpWfPjyczePB640YUMvDVFx5AcLRwMn/M6ePTs3A/548THw42ueXvKiS6eTuHjiohE0Kztz7rA0qkte1RH2nwpOFA5EqJuJTxyJAZKYrtZJSEhQAVtHBlkYsJwcbL37Jtx/FgwJArjE4C9BlzU4ErGuALoWeUnBxwkf4mkOzzDEIZx5dxwIRnRr+HsXkyB2h7s4uMJiZ/CBARsv+ohLaCOe/OEpKn//zi+OfBWElvw9szO8K6Bc+MjROm7wcKCt+RrQPF3EwYGtE0Ecz2G5q426xHEGHf9nFZwBoggxQkIA4DoOQcGA9CXGO3tEBXEnsO5lTyzJKrh3xN2twzFv9xBbcvyRty5u4ipkO4pI7NiI2TwMDUIocXCWg2OUnbjuLiJpoOLg4eKvUGIrstzg86GJd5zC1oBODzZ84eLBnz0/GtDWM2xHsaMcx7i4V0h+8KyzVUjczcvbJQ4bnGGaw4utDSG+dfPlUsH/9LPMUSRRQgiii1x2QaQkbY6d5HxB82/ZgiOdiIrks5G94rInPoKKLCGkDMQ0F5t2rPie2SkObgQmlmc4diBffv6ZEYbPx7jZsTiKkyAwcTLP3ho74hIHvstQRJcmZC8+G7nSQ5w4mxcDXzFwY6fp3OlEE5/J5uDVPH5iWZOzOZtGY/OTjwLzozvOadQXbQ3F3rqCG3jQ36mUzubXz1TAI6IAAAYMSURBVDKEONkhupYDgLoaKCKCeEZGISVOfMVGWMERYgtHh7OtCNa8i6NrJe4ZUbGQU0RJultnb63iemfHjwB4Egw3zWFNUyicb686X1G9w8FNfvLF17r5coDpi6Y47MSVBy5yVXhFE5ePd3lZM08TMfBQKP5pAhMnsf2tQiyx8+EvB/8ryzRjb05+mk9jwYYJBwe8YHimqUs8+tAEtk07xvazrOSRlIREdbZErWkIhVZEQSXHlliKo2CC8EMQUUefu3VY1iXIj515SSDFFlG7XyIG0XHpcuwjL6aBlyYjuL9q4QqfIO7scIUH27rE4eFiDVfcFR4Xw+4kIGxiilkDwmArtjh8FUYMRWEvNzHwtWbQrWc6GuKJAw8uLnwNRVcwPrDgKrJ4+Ghow+ngo9g6DdUFrjzFh8nPr4YxtoIrAtEI4UIA+L6jgDlyzBPDDgeOFOIw3NlI0N0FK+JsJAjDEU8kpAgolgtBSRFeMXVuxWCnmITB0x0X6zWNncwHhmbCCa5mMjQhG3/9krM8YBnwiYevZxguMdo9+MlDweFaZyumXHAxx86QL56uiioeGzqIVUGP469rCsXHdyXcxMqPj0stxKeveE6wuOBBC/E8s6X1GFvBKzYAAYgtSEMQwnFGEBABAEtMAu0oZP0+V2h2/NwV153gSErIf3WY+LreLhLHadAu9c5eTKLzJy5uniVlvV3TbuBnDo64Bl64ytE6f9zkQXCCEZifNZfmgi9vPnThj7O7+DTAT052pjm7U2wjbPhywNEdH4UST07mYbATR1zPbQo5w6q5qoemroHxxUs92Xk3OtLXt/RIKZrEFMvo+EQeQd2HRAUmimd3ogiGKOEkYM5uZ+MYQgJRa4T2M02DWSeUOWviu/r9zFcMzcCerbvLFy5J4yZBXOMvl04qRcieiHgR23rNSgfYFYAPG/iwaVAx5WENpkbyEWSY84UJPlyx6FHebOBYV3ADpryN8mp30xsvTVJs7zaMnG0U2DjS3rOc4KXlBB7/Z31LlyRBEUGyXcyB6IIS3XrvEiOsIgscQYQF3BceHgxrOrVGElNRIooHPJd5mLrefCcJW+v9973ENmoWQrqIgp+48uBnBxKmEwOOpoTPHy87lrji9z0CDwX3MVCRaMHXPNt2uRxh4euCpYHEaLeKo1Hlb+BmTjxYcuKbXnJgK49O3pPxHyvHRw7mFVosPi4+cPdjFdwCI0kQCjF3YIaEJeHLmzvyErTjANtVkVJszYA4AmyQhefLDWIE8JwoEuSngz1LShyczIklpkLqaOtOBXccxXN5F4ufeJ5xkx8+MOQitvWEly+bisJfHHHZaBIXvvIUk1Y4wFF0c+J7F0MzyMnlP1Ispn/FcudLF/qIyc/3FTnULLDxcokptr/9w6cDDL6+m9AIhsKLLVc2fMRorCMdKd0laTvKkaQozn6fD8j4vJUEERPWGgL8CISYZ6eAOxEUkI81fr4x1pHwEPdtkz2BCYK0RCXk84wI4hi+gLh8TikMP/YKK1HvGlM8nCRsZ+MhLi5sNJ7YcK0pmmfiKbL4tMBJnnzxUBRzOCsKG764yE9jGOL0Ryr48qAzrHKVHyz3GhsHcWo4ecDC1b0id7rAEld8seknZ7Fobb2xCl7SnARjXKEk388E8wDMSZS9pJEgtqZRDO9ESGANVEK6Dg57zy6JhEcAX/pOxpHlGQ5OYnpm7zjss9qx7Vksoiikd8la46shHNUV0bOc48GXsPKEXy4atotocuUjhtw7VWiSdp1eMBSXv2Ljzp9dvz744VJB5WvIrw1kna+i4slGDDuYn+IqtHk2Npt3GP9vwX0WKJJEACAqmbpIsUoWKGHbUQJLQoKC8mdLQAkh66SwhjB/RNmfjKISg62YimPN0Uco8wR2R14cAw7RagC+8PiyV2Cx4cnB9w/zckzIMOQCF2+28hEbPv+EhMnfGmz/no6XSzN2YsBviFuz4YanjeR0wB1njWceJm3o3l/kaEx7c7iwZ4urq4bT2BqVbpoajiFnNo0z586d+5/x8mQT/9z/1gr8ryP96b91iv8kt1fg6f8AonbH5ioVY/oAAAAASUVORK5CYII=;aspect=fixed;imageBorder=#000000;" parent="1" vertex="1">
          <mxGeometry x="-20" y="395" width="110" height="110" as="geometry" />
        </mxCell>
        <mxCell id="OUMXYwsHuOzbVERew2cC-79" value="" style="shape=image;verticalLabelPosition=bottom;labelBackgroundColor=default;verticalAlign=top;imageAspect=0;image=data:image/png,iVBORw0KGgoAAAANSUhEUgAAAHwAAAB4CAYAAAAwj5aoAAAAAXNSR0IArs4c6QAAAIRlWElmTU0AKgAAAAgABQESAAMAAAABAAEAAAEaAAUAAAABAAAASgEbAAUAAAABAAAAUgEoAAMAAAABAAIAAIdpAAQAAAABAAAAWgAAAAAAAABIAAAAAQAAAEgAAAABAAOgAQADAAAAAQABAACgAgAEAAAAAQAAAHygAwAEAAAAAQAAAHgAAAAAiNAfIgAAAAlwSFlzAAALEwAACxMBAJqcGAAAQABJREFUeAHt3deuLUWSxvF18N57u4GDF9xzx6O0eJEWTzYjnTvuQMK7hffe+85f9v5nFYPmBRAp1VRVZsQXX3wRmWutfbp7zpw7d+7Jw+Hw73H9M/7+Cjx9wchRsZ/8++f6T4YUUPA5rrjiisMFF1xwOP/88w+//vrr4bzzzpvPP//887xbM+f9jz/+mLbef//998Nvv/02L76eL7300nlnd9FFF02fX3755XDhhRfOWN9///3EYG/d9dNPP83rsssum/HgGmJ89913M17+Ypjnx+7bb7+dz+bOnDkzsd1d5n744YcZmx9OfNzhueOR/Y8//jjjpoUXftb5uTwbl1xyyUFermJbh+fds7F/tsY+G9iGd7p4h2vgR5e4ppN3dtaLG05cWlcLuF999dXEXAV/5plnDh988MHhmmuumcG/+eabFVjyyFfIr7/+ega6+OKLDx9//PGcv+qqq6awxEBMAyWOgmiUK6+88sD3yy+/XIRvvPHG6W/uk08+Odxyyy2Hm2+++fDhhx9Oeyzffffdw7XXXjsLL8EbbrhhiqY5xHvzzTfnOiw4EjQvF+JZv+6662Ze4uMMA0+88TNw1hw1kka7/PLLZ64agSbEZsdGkeDRB4a499577+Gzzz6bxUhLRSA47jSEi3txcVUgMdhcffXVUztxcFV0mhj44SA+PzH5yDMe1j2Lhb863X333dP//Keeeupf4+lEcQADQQYpYOY4ffTRRxNUVwFAkK0LMT6CELZC800ka8RFlL2kjE8//XTekbv11ltnY7BRuM8//3zaKY4GwOP6669fQuMg3snJyUpc8pqLeJpEfE2ES8LgKgecxBJbQXrGj63cxEgbROWggDhZhyEX/uIR3hqubRp8YCuE05N9O5EtH/6eb7vttpmfmBqKLa6aRw5ffPHFzEdOaoQnDnwNMQ3xxcNfPniPcVw7HKhiIoYMEoZ5z4RGPKHcCSfJut8OVij2sNgj1PGFMNtwJYMMwdlI8qabblqF0XAumISCWzNJyJqOb0eJZ05MdsSRj3l8amLPFQsnYuBBOL4GTsQimjzdnUDytTPlsW+Imsc9jmLDoxUO8vUuF3hw4OFJO3hvvfXWLJYCyxtX8XGxITyzZwsfb+9OAnPpaLPQyMW3sQrOgCAWBQHmQr7d8t57700hOAssEc3BB/k6mugwag6CepcMvIqKrHf2BFBQwhAWUT4KIglHEjENRVYQXW1niM0+gfHlQwAjgQjOhuAEhSOWEXbr8pKPOO7wPOPjjrO8+cW9ZnEaOXnEkJ95XDzD4QsfjneXAZsfDp7p4QS8/fbb/9TY+GsGeaqDdx9nPl5oLS+YsOgpTuO/7TzekEbCJZjiA0JWUuYVisgCAXWXRIkAJQKiRNK1gioKPORgwZQUguysaQ6XBPkTy+eWZ0loSIUVF1ccfedQTAMHfDURcSWpwDiaj6e5YrXr2hlEw7/G54fj22+/PQWWD1+c5FBMnM2LrRBOQ3l6NsceFg3ZamTPuNGGPb5yEh8v+oiBb/nhCZem7MJwh28OBlzPGss8zRprhwNnWFKS4WQeaWIjomiOIYUiNjufJ4ZgbCUvUANRl2Z555135rOEJCtGHY1YXc9XQR1jBn/DuphiSMgzwaxrBCLjaMfDY0ck/PfxPOOoGDgogkL7rmLAtWZ0+slXLJh4lJc48Nw1KRzPho8bunjveO1EEENsWHIx2HQKwOenLnJSiwro7tRTbMM7vJqFPX954f+XL23vv//+NA4AiJ0l6cSRaN+EkUZOcpJSaPeOlDvuuGOSrQDsJWfnSg6xBEPWs8ITVTzHmHm4BHOx0TTuOp9dx6G7y7okidOxnWjmigvPFyQfMxrCEI+vnInM/q677pp5srcZ5KDZYcrJnJOPNvgTWg7W8BGPLxt54w4X/5qMZvKkvTWFw4m25s3BkBtb2NbTjA3u4oqpLtadTGxpyW+M4/qWrss4CQYAmQgC1iGSEdhuUVC2SAki2UiyZ+f4YgsHPqEEtuZCRpw+tyQMI2EVVJLmXOIphrvdz77TxjM8yYojbsLYlU4KReHrbo4N3ooCHxe8cFRQu91nPH5OMbh+IlpXMHkTWaPjBYePAtHABZNueNJXHPNsfCeKA16ajI3NB0+hxMdX8/p48eUMBg588FcvfGHiKm/DOlt68h9jK7hkACKIhE4WFJg78QFYE0yhvRt2sSTMOwEEVyiJlqTAxKwxxLvnnnsWUQUjIAwDabH7Pe5Ywg8P3GBpQtxwibOk+eLmuaLwN3A1Z00TsoXruQseXE3NzsWfNngSkJ/c5KMg8qEBbIXDsZ9OfPDVJLAbmlDjwYcpX5hiKbYGgtWpCFssGmg0OVrX/AptHS+x+WgyOOKLPcb2s4wQHQlWJK947kQnChEUs+IIbvcqJkB3wutyeBJmg7hLMoQxD4+deSJItjlYkmF/2pkzCXwIp5mIpAB2gMYyCI6fpnHh046DU4FwMIhDMPHYw8S7AoQlJ7biPfHEE9NGUeTOHy8YbI7H4+QMA1dr8sNDfHrAgW2elnJQmE4zjQBbXDkY7ppLjTQirNasO2VohoPLmnf6qmFjHem6BAlDpwAgIEKcEPAMSJIKZAA3CIYEW8TZw4Cl49wRQFphdTZbaxXY5xx869YIAxeWovpCxF6cxBJfI7qIjBeh7QIDHiy5wNH1Gg6Go1OMBx98cL7jqJCw2DpyrcN1GYpgXlw64EcXvMz5XgDfR4tCpgnRfcTBYScffuJoMs+w3e+8887pyxa+XOHLi4Z8xIbNBm9NLKarRslWk8l7jO1IR8IA5nhRGIkT32XOOwEVUjA2BiKIEgc5ArPV3YIhxR4ZCbBTAP7IsnE38CCOI4qdRPhrRo0BR1E0lbhisednF/GRqKTZWm9XWWNHYAKKzwY2O9zZ0sBnJZHkBc88W7nLzYBnzkUX+SkEfvKz7t1lHQ6u5jUkP3OuNhBeBj3gycnmUAPDeqcQbeQjFr3c+cnFM0zr+Fbw9bOMeBImAgKJa15Azggibw1pwgiqsPmxMy8gHKQFc4Igw5+No0mXW0eKsJ4JUdcSjm/JJw7x2YgLx0+9OBKkJsBXsvzMi2fXKZociG+OmAqCs93JpwLCkg/OcvTRYE7+7hqLPV98bQz8xNPcbPi5K4qBMx/z7MqvZpTPyfhzMWxDLEN90tRppyn5WPdlkiae21TWHP81C4z1hxcC1OkSdCk2J3eFckfc0eROBEVCgrjIAyeiZxi6URH51wR+CkVeoWEh744sHopijYjmiUgoBcNDAyVkO0UMfCXOV3E8a0qienYyOHbdrYunSPjKBy+XeDTxeSqOBjCvCGKwN48frjjCN+SruMfxeW6H0qcmqDlgeFYo+cCjD+1wgg0Pb3Pw5OmzXnPDxJsNvdjDMycP6y78xGqsHa5QOj5HwQnsXbI5IUNMtggISASEzUlcoL6sICMh/oTXgYTr81hChhg1lWfNQvCaT0yxYIsLR5NYJwYc9r5gEhcXPmGLCVdemtTdHEwiscUTNq7i7P8qFn94FVQ8TRMu/mLTwG9gYotlmBfvjTfeWPxwN3Cgs9guz2Lz9YwbfWmm+HSkufjyxJsG6uW9WsGy4TRIY31ps+uISAhECAgYEGBgEjAfuASBIoycwAi5EDSv29wlbJ6/ThTLMEcw9pITy7Mk2YYvwQqpidhIzuXLHt4S1ZCGuHiWjzX+fPeFxNnFDi9DwVz7b9Z2sSZmVy40oYFYcpCTCx4N/dFGM8Fiw6/mko/GwV8h+fGhlY8x6wYbfONGIxwUknYw+YnB15w6WYdNT7mfFn37WQaEyIhzBlKCHTsEPHv27DzCgOhuO6FCe3ZU1qFI6mrvLgIpIjuJKBQba+1uMQyFI7gdSyyxHOfw+cE1+DreiYS3PGDB9a5hYEmeiOYc0zjLlb85NhqcBoQj1AMPPDB9NAkcQlqTg2/qYvpGLabTBj9xND/7Cg8frmIoLPFhwlIwBWUvR7zN04FO5mgQV7p51kyaXgzY4sKGK55YeGowdo21wwnYLiKooBJBQOBIeyaSNXfBBSJQXenjgehIWEdCg7BHUBLWJCsBseERiqjePRNCgdu1RIClMAS3ppPh8nHhDdudraTxwkfybM1rJpysK5TPdRzkx9cFO0xr7UB4YliHoSE1s9wU82R84VJAGHIlPh3YsvEcH8WASwtc4DpNcIVBWz60sAHxl781OotdQd2bkwdOsNj6MjrG9rOM8ILqFoPInl0IIRKgZ+QA6nIJSE5zVHRzghoJzwdpBCSAvMQJwV5TERGWZ+KJBUdDKbDfzsQgonli+CIDzzNfaxXC7pAD4fnhLBYbsWs6nOQJQ7N5VmyciR5HhSciPvKtKbyLIVd54aEw/JqXi9g1Cl5OBjz4qwGN4cIx7xKfHnwVFCae+OGqefEy4ODeBrVJ2KjTGMf1LZ14kgOkaI5JwQUWUDDi6BTJeCeS4GwERcazAHytm6uZYBO8DvXMXlzYfODC953CvEQkRpyXX3552igWTr4A4R0Goa2xh8UXhl1ARPP4EsNJwsb8ww8/vGx8nuKHqxh88cHPO3uYCiFP8XDGwyWGE8NQaAXgC0NslxOUXz4waWRescTR3GHzYUMDfOQlPh5yh6+Z+KobXfm4+zjGqbGOdF2LgEAM2mlAzNkpAgmqIYhiEE1AnYoo0QVHyLN1O5WN4msMvjqPqDCJwt9zwrhLmL9LXPiOXoniBdOuNXDnjzsRDPHFJqbftjglIiwYsM1pTnhswsLLoI01Qw5OP8JrnE6GTiynjXg44MYPvgLApl15wYDFvtwVnQ9uMPDmIw+ayIkWsOxaGmosPjBqQutOU7nQxL9bjLF9aQMiQUIghyzAHAhjPaEFZithtpqCAIqteMjx52Oevy41j2DdnAjWPVtXUNg4SQhhiYhhrSPRnN1FGDEkXQNUeGLBJa41YpvD33viKSSu4uFpd8BMTDoY7OWMAy1oxcZQOD44sre7YDkV+SiI+GLgjVd6W+cvf3n0XQZv7/Jxx9NQQHPs8QgbDg7y00x0FauxnhBD3pchAtqB3okAGGmJVBCBAZkTxF1QgRBQeF1fx0qGjQQdm45naxIiomSswdwLQngiscOxk8UzLoR1d7ERQ0G94xU3GNbk5i4OrgSxg901FHvP4sixQtPCZc2A5xJLrvDY4g4Hpjk5meNnA9Do9ddfn2vsHP/x1gDW3fHgWxOGbd6gMXy+MGiIh8GWtuKy828FjXWkSxCRyBNGQMLpZuIAkiTyutq6S3LsJGQggQws84Z3wzty7mJoBEl4ZtOR5Oi3QwiQUAogts7VhEbFVcRwze+LSzR+/O1qvu0ueZvz80pB+dkh5vHHyzs+8tdomhNP8cSvYHAVkb14Nok7zejEHwe5exfPszg1ufgw8aOHuw3CF5Y6sKWbZ3wMOAZ7fBRcLNq5O97H2L6lE11hJVKhJGaXCowIgt4lJIArgSTvVECEWN49u4jGjz0iyCuamJKDV5PY0T4SJAXP8P1Bsrjx8cVEXHP8Ek5MDUJgHFw+++QldkcfbMVgBw8fGB2ZCamA1jW3pmFHONzTQD4VRzwFdxzjwoZPOvqSCU+D4S53BRPbPDu7VQ7isDEHQw3Y0ARvWojD1hod2Bti0wiugssH5zG2ghMVEENBJEkkQJ6JpSvdFVAgiVZccwTyjhSSFUUD+WOHdV9CiI2kHWyeAJKBKQY/sRGWhC9C8Ly77rvvvmnbrvCN3rwhhgsHWEThSyCFNyd5PNlVGO80gFMszdJwAuCiiASE6z3B3eOjuTWImLhpYrg1tVje+eNJA3qwo705d80Ey8BZHTQErWnPRtNoDhuLn5i4yIGNeVwq+PoMlwADJCKouIgYCiCQDiaENf+NDkm4BCaEgIgpGnI6jK/PbIXtmNRckkbanQh1vuLzcUdULDgloFGIK64iiee5QiqsY8yQD1z4YuMnj3aWZ+v484MlZ89y0CB8+HsnpKbF2bs4+MnHhZcGNQcbb3nA5AuPhoriY+I4/oHF3xb4GjDpKC8c6YC3eD5yFU9haWFoWHEMMR3/sOHww6djn836DFdw4iOo8xEDzLFdI5hAHWcSkIwd624Qji8bg43ECC+wCwnxxNJc5iqGL418+Gssa54VE7b4eCqCYZ1A1uCK7V3hCICXGBrCPB4E4afQ5jWjOXkQTzz/rEhk/wjCDw5fAz8ciK14iuWZPTy4nsXFk4Z83NlpHvO4agQXbJh0UGS54O+/umTdTrWB1ARHjQbDPH7s2fERFwd4Yhmnp9V2pCtqzoISEAnBOXaEEUNA9uZPxp8RBWFf00gKAUnDEBwmO6QkyldR4LMpQTZhE8ga3xoxThK2nnBiwUx8fBRVg/hSqWH4snPBxBNntgpHOEPRYONtpys2oX23iL91gx6e4REXd++09C4/c45tGHIXvy+B/OHjJx5t5eAoh8neZaSXNbnJHb5nDeVyusDrnZ78XGNsv8O9Ge1gSTMmkoB2ACLuAhGCrW4yR2yCKQxhJEdQpCuq5OAixFZyBsI+69zbZQkjDnw++BjePUsKvjssQuNkJ+AKT+z+89vWOqVqGMXwGYi/ddiw5OAzlD0sAyc5yUHR+NYA4oiPlzka0U4hzcuDb1gaHD+xjXJiQyd+OHm3VmE1Cl7m4IvlOW5wxaOXebY1sjjrT6uI6jDGDAhiII4AZ3eJemaLvN3RnAQ8I8oGFnEQk7AkKr67nSchn2GKhoPPLuRdeGgcuNaJb15SGssO0nDW8TTHjoj8zLHHSeLiE4i9S7x2FK7tKHnjbeApTwIWnx3ebFx2nHf4cYXNB0daOVI1iIL5mGDn89aAj7dTQdPhJJbBR/PRSiOzE8dFBz7mDDhsXNYq/r7g60sbAogQS9AEYAyona7okjEnScEAK7KkShpRzeBiA4cA5olkTiEcqUSVoCaBpVjtNrHY4ydeBRA/MRTTOn+YODgpiA0PFmEUSh5s3NnXEHjCE1su5r3Hi72YdFEAzeVZAxHYkKMYfunIDz7+4cmfLb6OeNzwgoGTHGB6VnR3cfCQizn59/eStCgfXPGE666W/OA21pc2XSoYokgL4gtUBVdM63Wt5xLsFAhcMCSISCRHKgHtctjWCIGwd8kb5mARHZZYyBNOPAUnDixFFIeteWKwI6AdxabfohLv23w54C6WzzaYFRanGhSuy1Ao+BpJDHETGBcXYV3wYNjBCqYBrdul4iq4zSVW+rIXC+/i+XcDWE5bGLjL2UWb9FOr8qe5/OWWnbvvKGNsn+EIIScxTgITo+4Q1PHpS4E5SdfliiI4P0WTqEROvxnOQiPYxwCCbM3pfvZODk3nX67geRfDP/SLTQzJm9eInvkpAq7eJd1zHxNi4abxiIofH8Xyrvnw4OckgSMWH2v8KhKbGtF3DkW329nCyJ8+ikM/8fDnRy9YBh/vhjX2hnma8MWzTaA+NJOP9XjRSh54s7HWpto30ASH30OJcpKYzxpEvbus++ODpIguKV3DVmEFQdK7oAWLtI5WQIQNOHwQV0Djsccem+QVjtgE5a/TzfVLwYnB38BDwsQglt0jdheB8cbJCYN7WHaBeZwVTJ52Q3PyIqjhFIIlFj87zmBb8eAonDnFxB2eRte4Toc+fpw69LDr6cZPwyswH3FwpZGmso6jqx3sp2Onpo1YXk429eJrDr/GOtIJRlBCt0MR5oSELiQiAAHZS5CN3WT38wXuTihriBsRRsbugiFhpBWNSGzMSUoj1FCaRfKKTEj4YkuKrVieFaIi4kFAPhUKH3Gt5Y8bX5zcNbk1cXDHhwZi4ACLPvTwjjP+Lo1l3fBu4IevotHIH23orIHoKqZLkdm509mzSz6w5IJXm0AO5vHWfPA1D395WrNp6eiZ3xjHVXBG/tYrgEEoyQCQPCEQOxm/uwlhHgGFR8xu4CvButOO0b2CmvcO1+WZn6TZExVBiRDTpbnEsW7+lPTEwlGixCEg/nFhD9uuEovQeGgqOcBSeDau8OVbIczJz07EQ3HZKihO+LJP+L4gER0XjeKCISa8NkW/lZ12+LOB6ZktXHHEhG9ervIz2PKlqZzcnZIKqwY1JhzP9P9LwQkssEQIiCAw87pLJz300EMzqMCtIQA40SokG8U0CMbGLnEZiMCUjO7UUJJiJwHEFQuuIUHc4MPAlS8e/rZOXPGcCiXNlw9bHCQNR2MRFj4MXPgqFPwajr88cHKxJSp+jlJxsoVnXTEUia98YHq2aXBJN+/+TZu92JoJjwreJtGYGsU8G3nKEQ++vnOJJ0dNgpNTk3168Dv9PrXtcMEQ1qFAJQ7IzuAgsAEk0RGRgOHv2zAkBRwpPj5vCaRI7K0hA4OtGIiy1QDeiSthYnnXDDi0I6zDkDDBFc46Ya3FXT4KZl18ebFTeMUQ37o1OGI5rokGB2+xcTHYaRzieraeFgrggsMeN0e8mObEMY93z/LhT0OXNfzK22ljna4KixOd8KYZXHNyMc8OJwNPdtbpKqcxtoL7nESSSJwlzsE7Eu7+scSXDoQkDEyShC6ZyEBHwE6QTN1OVEMRzBFEYuYl0Y5gg7x5/uyLhyexJFXh8VEIMc3zYeM7QwWXh3nJwxCbvzk5uxNYPnwUBpZhDjZ+Lv5dbGHjao1PfDs56GfNRpAnPEU0X141tHX+7J228Ohrs8SDn4GzdXk41p1etFAXtbCBcRN3jK3gdp8Agkna3YWMy+9YCQMBLrC7ITgRFZAIdjs7eH3ZYE8Q6xLzzN5gR5iOJ3i6F2a203D8H35hSQQ3TWjeVZNJmmgVhX9fYnDTHOzhV2x44lojND7lYU4smAaN8HNZkwM9CO0ZD7HxcHxrXrH4s7PGjwYaC57iwCt/8ZywMHGDac5dbeAoNmxz3s3DFke89PNLZ4ztd7ifDAISnpEAjoK+DPhSgqDPW87EIo5kdJ7dQiQBETQElpAEJC4ZArLxThidy887wt7xgCkG4nw0JH/r+OGCGwzrYkm645+ACsaOSDiw856w+SU4LF/05IWT3SMe3z7KzMkJX40nrlPM5zEt4lQO1uG5w5GHZ7H44yNvG6P8zeMsTwXVkP38oiutDTa4wKjZzePKjx42A7vG+tMqEsj4wCe2b+yI6jBCWxMIODDkkQZmjS0BFcg8wdlpGkVgr4kkBY+dP15oNImZT0jrkuYDnx9+EvHumUBsxCQuDBzcXUQiggaFh7fjHTc+bKwrKDzx4Xg38GbnVNCgePpnVI0AG6dy5IuLj7xONHHYyMEO7OOChgoB2+VZTp0CNSlffubxw4eemtPAycaDb85dTnIVu7zY8m+sgutYgHVyJAjlOPdFxzqR3IEQmJ05dztbQAQ0iuSJgKx5Yrkj4/eoAhPK54s7MfAwr+n8vjdwIK4kCSeWhrFuXlzJ2l1sxOPj0uFh9gXSboHRieA7BK5i8rGOCy1qQk1rTa4KISZhNTsssfnAok07UnOIY03u+NEPlkYJ05rc4LGHAQsn368qOB5sae+imztNrfGFSx9548i3sX6HSwIRneXibA5gO424OlBBEWEPnF07CmFBrJnzUWAQyOVdYnaTpNhKAIYLcReBvMM32PKTkHmCEjl8dprMl01FUgRcJK5IhDbPPwzzcoJtt8hVU8rRvDhyN+9y3JvHD4Ym0xQ40IONRhaLnTWcCA9LcSsAf9hy12yGHPjSXpFxVwt648ofnm//8qMHvgrapmHvXTynAxt5036M7UubAugUwBJCzAXY0QMAEUkCzw4KYsSVMHCJCMymQsHybA4GW6cGXMN84khcw8A1JNyfU2FI0pqECCtBieEqNtHguvMlKtEVQ1w+xl58ttbxkB8N8OjoVTwDLm4utrAd9+KUn0bHhS1Nia3A7F1s48lHbO+amG5yw5efvKzjDRf3tNWYbGDipxH4aSC4bUJ54jnG9l81MoGURBVfcIHMcXY3iAwAMGJA60xdTiy7E0EkfG7yN08EtmIRUpIIK5i4Gqrk4LMVVyMY7HEzJO2dqO64uErefLw84yK+QplPfNia1OczDopnHX82cZYnWycIvniJ6yKwhtfInQIKxcac/MWAh7ed6h0WfNzM06JGssaOL/7u1tjDfPXVV+cJRwsNRHOnQg3B3nONw85Yn+HAJCwBZARzIa1A1pGy5u5dUxAHuGKxP+2k+Q7PcaeISCOGbDYISaDdIXFFcyc4ATSXZ/glTnzzLnyt+56Bi3fcrGkqtn4mKqSBq7UaSRHkUV4w5GdnKpqccDbc4eMFNzFrNJhOH3zguNjiYTPIi00c26F0atAEf/iKiIe8cYErlhycjrhni4vNIDc2eNOVH97yM1bBBWr3EkAQhVIQAQQD2oWQzlY8RWUjuGE3s0fIhTgCkneHLWkDIb7iiF+R2UmWWHD5ePYrgnCS4GOOsLjgKx4cyeOKnxguQ552qrvCGoQxRyh++HuuwcUQX9PJFUcczMUfB+92Oj8XrgZOfi3giyNe/PmygykfDSDvuLGHWQN5N+jFDq+Kal7jiNU8bD6wG+tLm0nHGpENoglGgAqmyAKVnG5il6C6ru4VTBF0tnXHIGw7QLdJki2h2dQsyMIlDH8cYImLfAUkPuH8Q4RnPCo4TCLxIwghiMieDXxzhNPcnuVUHtZdfNjLCw4xccDfPG4w3TWINTsYFns5wRBDrnLAFbamoSeOreGdP53Y00bc+LDFk04uOWgyeJ7ZuePnTi/+9Blj+9L27LPPmpjJMdYAgJAWWEdyAoyUgaAAkpO4wV5h7RLCmOeveDB8NiFMCL4S9iwRYnivsRKFkHDYKA5+MDQNca0rCl8+cAw+7H3hw1lRYLCTn/Vy0ZBwOrn8AqhxNI/cfR9hzx93seDBlbPc2fop6BJDzgqDZw0Ag68czLMpdo2Fj43WejmL06bgDysdxSx3a+LhKs/Tj7TtL22EQVyhfB7qDoXyXpKOJd1sVwHsDxk6SHF1Ex8kdSZbf1xBAlFDcYkqhiQJxlcc5AjGj1gSY9+zOJ51PxsxJANHgXCGZY2teY1ALLmZI7TLFxzvYuCMj7zwsc6HYPAISgPv4cmHjaaIl2J1krnj4zLotW94eluTHwzawcedPjabuPSzbuBg3d82/EZnLyZfvH0k0JDeasVGLaw31md4OweIRErcPFAdohiOeH99kiQiBJcMkQwBkFIYa4LBcKwpqiLwNa+DE4Ut8b0TU9LhKZbkcXLBYmeOsOIRA08Js8ejwnomgnVFNe9Poeb8FMMPJ03Dlwa4msOXv/n9DsJffIWRPx58xMCPVuUqFzHaDPIUQ3w4bPuyR1M5FFvDwaGP+erixOlkcPd3BE3rBMXViYoLHLwa6zO8ztHBuk4yAhCn3SkwcuY0hSOV0EhrBIkptO7yVzCJSZSPhhFcFxLH7kSeCMgX0xqiSLKtcH28iCtBSRni44k/HFzEYS8ufHHwIBp8uTmdiAKvXHBQPP4w5SO+4sgdBl8XTeAZGlcscfjJTQ40UDA6wMabnUsMnD0bng247OLZX+6smRND7t3pHiaOGseAz8ZdTrQZY/sMZygYAwETwk5SRO8EACqwUSAJ8Se+QtW1fAWVTAkTSTGM7GsK9uY0lF1CLIUhKBEjLwYe7HHW3QrjHZY7DjgTHk9Y5hRPPppJLL7s4BCFbYWRL74K7M6+4ounmexIfMsHL+/ydsHDm0YwFEsB5AOPNtbjrmHYKKQTxRob8eQCh//eF3/zYu3xxIAr15Pxn1QaY/sMd7wQywCgQHYqESQJsMID9mwgSBCJS9CuMUdgwRoImyeiAno2RxzvYoipmITBQRyJsZVk4vn8Fd9/0R2eJNmzEZ9Pf9QgGjz5Ea9iaFrPMPm68CeSO3z3Llw1KlyDb02gWXCkES3Eko8Y5s1pYAO3ctFYfMRmJzZccWiveVyGPOmDhwumBuDjY4kGOKsh7c3BNZzajXWkI2I3AVUoyQjOSVBBdAqBzAvAVpcj7Q5YEkTik1iwrCOHKEyXOE4Gc0SQNGy+GkgCGg43NoS07rndpYh2A1vzYuFql1jTQJK3RjRzbFximsdTPJiKx99pwEZsfr0rogY1z15xPIvv3Z0ufDyzl6tYuMN215hyx9OgIT1c8NkrnKLSwxxb+tLJvBoYeCo0jjgY8pKreHJzjbH9aRVpi5JH1BDUvF2CpM9sxAAhI4h3NkgggJxg3hWiIhGGEHw1jrvPdf6aSEzCwPAuQc8lIEG4MOLoyyPhYLEzT2hcCcff3bs1guFnmO/ZGtFwTiDxsuFPTM3nczmx5W2eDrjDY4MPu3h6x509TubF4tfHhxPBt286yYW+4qoBHQ1+8sdLATUTvkanQ7H4e64202j8n/UtnaOCEpqxd8+IduyZQwg5hCssIpIlfjuyQHwQ915hiSRxg595TQVHMtYdgYqnENb5h01wfprEX7PwaDf2DIcIfSzBs3txhwUbN/Y1o5yIRHD8xDBHcNw0L5E9u/jxZ+9i68+48qWlJhDPoKV1nDS8Oz4GXw3CXiF921YD+cFvY3jmR2ca4OL9ueeem35xhwlbc8CTZ2M9IcnIXWDgROTkXSfaISVLEEUipEDItYO8S85xahBMAWBI9v7775+kfRabkxxBYNSZPh74SAxuOwM/8wpmR+CnEMXEu8byLFkcYbuIJ0/2FQxHOcbBs4uw4hJNk4hjx2lIOsQDHjs+PuNxqtBiyoEeNQRdzIv/yCOPCD+by443B18h/Qb33vcQsXGAp/nlRluxYbMT22XOO319dPRn3vUZThRJuetsYiIASOIKgQQbibqA6mTCIkNoZCRDUMTdHduaB5417/D4mIfbjkUWNvEk15HPjg2hKyoMYsPhw5YAYhKDT/gaRfL88eyzVT5ETXR3O67TRbPJEa75vnN454enPN3FlR9MO1aj9N4fq2pANnzkFE4a4Ofyzh5nDdQFEydaGxVfrfjBNsTE07prjO1bOjDi6ApEJEp8YiJueDesmReALSEkqwEUyRyBBYMpMCKaSJH8zf7xxx+f/nwVkB0MQsPXZOYcb5I2cCSuiw9fYojr3bM/qBgawbqTAp/j+J/WwIGNd6JoQI3C1138xPNR4F2OjmnrsHHyJRAOfLFd4XjGl2ae6QCfLmkjviLDhseejXfx+bjscIUVC38NC1dO/iNoJ+OnlhNFHA3GR9Oz8wVcjP3veLqsHS6g4LqGIVDClpRjCLBCJzhRJFFnwkDIveD8jZoE+Uhly14zuRRBYXDAxxHc6QOHWI5edsRROH4EJ1hFMu/ZbnDB7DRKZLnCw9VHDV748SWavMRgz18T2uFOB/9Ly7Qw7y90YtCnAmkKGDDFKJamlbfGhgNDfFxp5d2zYoufHmwUlw1fG6fc2dOQxriYVy/+vtiK6e8NY2w7HDmEEWMAlIAE8CwhwEjqeGC6R8GRYCdgpwB0ti5B2cFh1xp7xSOIBiMugdiKRTyJKqZk2eNEeHxgE693OwUXF0xXTVmTscFREeHFhdDmFV48Q2PXLEQ8GTvqlVdemfg1GZ5powgaQEz5OC1p6aTjj6s84lDzyBMf7+xgqkMbrDrgFXda+iiEzRZXd3P5xRGPxtrhdhEQVwE4AkBAkREuqIJbY6u7gCqUzhbcumJaF1jiBMlfYhVfURWJcDoacQVwKQCRFAymBMUjKH52gsbDm9gaV5yKbY6tQdhyFBunmtUz3D6jNR9bdvLAER/Fws+8d/7sNJ87fzrwx4Ody47LBp5c2dNj//MSvjm86agpNYNhDb561PzyhUsLQ03E85Fm4MDPfYztd3hFFgyYBhBQAQTwT4wSRRY48RUNMQE862zC8BHQHEJEiZA1BH1r5AsbIet8xOVjKAIbnMw5rnAw5x1nRz5/gtYI+ItZQ8qjxuOnGbzjQoiaybzmkEO7w5zCsHPxibd5scTGkY/cxNUM+GtQ/PjRg41c5c0GPjwa0rQi4ycHfOGwd4lpc/GhhcGWvybSEPDFEtu7tcb6WSYwsQ3diSQBgSKSEH0ZQgx54lg3j5BTgC9C7mwS35yrLiQOYvzY+lKEIDzvdgp/63ZntsTT9ZKHIVHHOj+c+YmJo2Lilgju/KzjzlcMd2tOExzFCk9TGexgKYAvouzN4QPPaeROP/zYGebYwRVHETWKOw6wfMmypnhychl84GgqsdVDTjYeHenET1GtaTxzdFALX3r3R/r6b4ozJpQAjm9BzBmSF6yGQN4ccMAGPzsAEUOBrAmukyUIz7tnRSSoRuMjURiSISQubCVFcGtsHd+JggM74koaLkwiFoM/X0VwT0yc8FMMvGAqmG+/uBFJfnyssekLkdzyY8uOXvh5ppVm826jyENeYpuD5z2e9MSHLRsxcfMOX0OVM16waV0+3tlb8x+ilDNtNIF4NGqsz3CiA2fs2ecKonaD0a4iLhsBiCs54hLALmte0ZCEZU1gd8IQxbzLsWPe4A+rnUMEpPESy44wzJuTFOHcrSmEdwnii4tRg/JTeHEV0LxBMBhytZNgWJerwU4hcDM0oGLBEgNv8cXEi26GvOQCX2y4MIuneekHH5YiWvdOOwU1+iihAb3M4wBbo+NA305X8650k9tfvqVXDGASc/e/AigRl3eFQsROF1AxOkoSAzhSgjspkCUkMZCA4VlRFN86H+R0tGLA9CxxvGBLiD8eBEso64T0312XvHXFgM1fbJwJCqd8xDXgwIYJHzfFxRO2Nf4G7DBwlCMfz4rc6cLXz8qT8a3e3Tw+cnbBVwBNhbM4/Ivj+w0+vpD6EmznyskJ44ju+xRMeuHMF7Z84GkwGDTobxNyWDvccaZTCEIMiXjnIJiieLaL2FhXeAHY60xFIz4hvCMhOcElRwg4FYYQbNhKGL6TRTxz4sMiqCZiY/44/gghGUKwEddnf4UTwzquOPKz5iKOd2JZx8WXTZc4cis+G5/pDTlXIOKLKZY8DLmmXc3hXd5s09IpIg9/LNGQ/OGWr0LjUQ7u1vHC2buc5WHOxhIDFgx4ctGcLvbyHmP7D0AggCQQd6IihiQHjsTbAwJ2vPNREALprorKtsaBjwTi7BEmhruiiglPwyDPxl1cR6aC6Hw2cHGKrxjiaz7PMBTXOlt8NLQ1AwcniHnYmtFOcWrBNdiaixMfBcVLLj4r5SOOd8MaLOISvzxgeWYrB3H9OwKtYOCYJmKy9d8iwRmeovLRBPytF9Nc2tES/04etaOF+ObG2AruDwpGRootSYII4M4JaUEQ7CjSCNYV0G6GQSjHqB0sKSLwQz5fxxNsjYKUdb52Ln9JWZdQu1lRE4mNNTYSxVmDSJwv8cRnhzs+eIgBBw98rTv28Pdc07krsnhxl7MiOD5hil/TimWwt24NhvzohqMi2u1w+eFwuvvmu8LCscbPO65wcNDYbRR/qqabNQ2icdQCR3nAoYMcNfgYW8GJAIB4DFwIFxwBz+yQsAbUEQyU2I4/IgvoM4oNQtYN/kS3rpmcDpJ1IUtIO0MsguFCEF3tLmHCsQuHuASBjYP3GtCzBpML3nBdcL3j5jOWjQtf+NYVho3CmCNyxSCeOVhyE18+nuUmLj7i0sh7sdMPnnlf3MTlz8bwnr15POHImz+/bNLLOltrNTqN2MmB3RhbwRnacURDRvEBeFeMwKxJRlcpgi4E5rPFLrdmlymOS9KEcIejyxGKNIxEskZssTQSYXEitKTdYZeAYsFRLBiwXOKJRbQEkbw5AsSdL1xz/MTeP/OXA6HlJXfxNajYbP2GtmaErxmsy0NTy0sD29n42BjH03/MEUNcV83Jj481umkKz3DxtO4jTpHh+T7hWV5OHThyY89fju3w9Ttc4YiCvIIkPJGBdpx7Jq51Pu5sBDAK4B1JBAlVQuYRIw7S/bZFUqHC8BlpOKrg6GwDeXZiOubZ1YSKw05MglU8fvISlwh4OxpxIma7g79YYtRY3mHxkRueYsDm59mcyxx7cZxwuBv0Mq9RreEuNlwxaaEx+Gsum8yzk4OvZ/bysua7hrt6sTfYGpqRbXXwrNka61u67hOYg+TsLIQk5IgU1KVzkWBvIM+PbR0nAAwiE5h4yEq2uRLiJybBJA9PByNMIMLBZ9+6ZzEUHiYuGglXwvGzxq6YhDFXw+ATBz6+6ZrjWxOKp9H9PHXE80/AGpoWxOYjliEfmHLF0502hvjy0wzW6GOdXoa8YdJBDM8ufuwrqAbKx+lKIzZyMODCYENbm2OM7V/LGBNAUorNSKHME4uYilNTACSO935G2GnImXOEOA3yk1S7gL3njlkxEa2zE0/CjnZ4nT7wiIKLNWKzIyBRS5gIjk4/fczBkJ9BcO+44gVTbHxhW3PJHTdxKoq8YDoZCNrOUmDxbQ7xNAix4WkEHNu9/JyicoLNj3ZsceGLj9g4W1doz05FMcSPk3jeNYQYcKz5uPE73ntj/S3dzjWAK7SC6gpBJeXdZ3Q/R3S6HQAYCQUQcN+RyLMpEckh510xdKmj1Rxx7SZCGJ0kxFI8IsEupobB1R0XYvDHBx5O4rjzkzwMFx+2clN8AitkPORiDYfu8OWOJx9NqckUUp4K5q6I8sJJA7n4emcT/5oOX2uKaA4H+uMs976Vm9eE1YVN7zipjQaTl6J7ho2/e2Md6RFI+IIzBOw/h1bhCEE0JCTpWWKCIIqMI7JkFJqNxtFxxJWMBkGozhRTJzuinR6w+HU8mhMPH4WzCzQDwdg1T2B25jtpcBeL4HzZylXBPCuUf8BwuslLbPH6jE9AOWhWubErrqaRk8EW5womptiJz0ezKpI77WjmLqYBDz4MubSz2SuqpqKluwLjJaam4id3+XiHLb8xtiNdVwNlbAgEXIfpKus6XDEIJuGaBFGBvSMMxxcLiSmg7uXjstNgm8vPOzzE3CVENCQVShEkLTEFgutiY1Q4mIrnZLL7/K8kEBUnvPHze9scn3Dk6B9N8MMBhkbSqJqbeBpAbPl4Lnd23nFTAL4a0V0RFJuOhFdwI6z00fCdFnISQ7FoxRYP8eTV6RMn7+zSoM1DW836f8fa4UAlC4C4ikz8jlzPCikRO0iBgRue+SqOhpEkDGQN5FxE1wgwxOGnqGyJofCKITlCGuLy5SMpXawhYBHMR4A7UcMkGuy44OnZOltYNYciWhPTmubY86eDuAY7XMSEKYYcFVZ8a2LQAYZBK2tOhRpAMWBqknjigRNfOYtL73LCS3xYBr5wcKYbHvLmj4d1d/b86DbG9h+AKHF3IAjpeM9AzJsroKSR6XhBUpKCAPdcMAIj5HhVWMlINjHYmfOOnN2A/CnJtfPEEFcybHGSLH8x+GpQMVw4wO3zmaD8+JjDVW5ycI8Xrmy8w7Tum3oNQXy/HrzbKOLQil8NShsFsftga2Rzdn9aucvVlRaw6GyX26EwbQg5ykmeuPWxAlMjyVsMjYifmNY0lDwa63e4BYFcAuyFYUxcBDgTyo6uU1sP2JpiKWo/cRAgsiEGfHEc15KsCBKVADEcp3ayNXPiShgusdnAJTY8R6o7GzHwIRR/heNDGLjyiS+R+i5Q4eQWD9qYh6X48DzDMPDyXCG9i6cZNK48xcDbZ7N3vBUNjpz5w1YsczW1JoVlXV6KLjea4SWmGGJqHCdmfNkruntjfUtXJAly5lBgOwpB68RHHDDxDEQQQtCdrwQEVgB2BELIHb7E3fnqYMmb489GbGLAlLzCiK+YkhVDIp7jm4g4EUkj4WlHKTChFDWexYRFaALCEBsHAx+54Ia/mHDgWZOj/GhCJzzFsL7HT1uYNoLmgScfmvITR65iF09+5hQMnsGXbtb44KPoagebLX+bi0/+03n8n7XDCaH7CsYYKaOdWaKCCuBC2iCWYAqg0I4Xu4SAbFxEUWCF8OXJGuEQdcH3GxcObIVQENgS88wHH9gwzcGDyw8ega17lhdxvOMmL3i44OhPyASTd8KnAX+71L1i0wQ+IQ1asIer+HLHyTN+8cItH83lma984InNpo8knGmAm4Zy1wx4eHang2exXDjQSUycPec7yY7/swoeCcJIiqHjmEiIEdW3RF+6dBYbhCRXIQgpEDElywbxkpaUz0JC24X+Id/wbs1laLyOMIKw9QXGervPzz42hMNdHHHxxYFf33LxNe/i410+vhnLB0+7VdPBUEDNJwf4YspNfBjykTMs2nhnhzcsjYoPHuwMGGJaF0c83wM6WWpqdz782WoCfuIUS400CV98FN+JyE4DGDSTJw77sQoO4GT8JzQMiQFxPBEOKPC61JzgyNlBkkFOh/H139smAOL8BGfHvsIRlqiSlrwENZROrUt1u9gEMh8vtuYlJ65Y1sWyI/FUDDY4uOOGAwz4bIgBAyeYCq2J5ccftuLBPI5/7MAfTnHl7TJHD340Yy83nMSxxoedInj3/3uMBopkTiz46rDn5t/N2Ws+sfDHNW3scnnlT0PFp2l/CxG7scqvSwVEWtKSl7QECEMU4gFzB6gpBNLZAnv3mYQwmwh6NmAia+chI+GS9e/xMInk/6UFHHweffTRuYMqAD84didOBGoNd3ngaw4Pg9Ce2RLOUBBi48jHukbAweWEw9scW9gVi+hiOJlqRJitwxMTTzka9KETPzwUxnNN6Asxbp1udMeBv6bzjofmVWzY/bdf5GoernzUwXcY/PHGt7EKLjgB3SUhUQH77PP/T4zYilAxAfsDgaJH1m4jnrtLQETtPo1ECIQlTJiXXnppCqeAdrIBT0IElLBEiKtA/HWsHeLZvHhOEcma44+3eXFxwNuc3aLpDPFhEcyzvOSv2bzjLy/rYuNfLOt0kpshH9idHgogJnw4+BnmNLzc5OiPWXIw8Nds4rnoT2N8NQLd7Hh2chKPjWd8PHfC0QwXH8uaBT9j/eElAX2mAZS0AiQqZ2IQQBLADd1DKMFrFuuEITA7okhUkoqhqxMZLuHsALGJyl7isK1LWEIu3c4XD37wxIMpST7scYLlXdH5WMdLAeC7sw0LX/HEgeld/uZo0i6CBUfBYLiLY12BssNBzvDSih/e7njRzKVQYhoKJIZ3eGpRUeUgpgb0LH/c/BqBIx9ffPnLscbzHyIZ47gKbkFiDPtMk2wCEkVwNp4lIQDigkjMQFIgc2wRShx3l0EMsWAodFivvfbanK944hMIXgLExZ2fYuPjiodnjUMMz2Lho2HkwbdG9MxO4VzEVQy4fBIZdzppBDuW8Gxxiy+umpufIuDPxh2ejeEyaAMPP8/W3envUngx7G42NZ+NSD+71zpefMVtE8hHzuLS5HSHb39pQ0CQPmcUjcASyxEZc4K4IwDYvKDsgBPAYOMyIsAWWe+ENoiDrHfFJ7ZnOxSmS8LefTbBVzR3BYJpXWy+BPUuDiEUCC4cJw6u/Hxc4Cc2P3c58ZEjPNierYtvJ9pxsIir0LSqoHBxNw/bMSymxnRpONwM/grub/7WfI7LSyyD9jDEh4lLOciNrXcxxcFbTvD7eJSD06CxdnhHNCBGdbN3yQgsqAAC61oDqWw0C1sBkSQQ8es6SSGUIB3PkpYk7LpXgRTKLpQIHAUxYIuJA1/PBIYvD40gSZ+V8hAzscSu6/nxr+jydvSJCaM/g/Jhi6PY7GBoDv54esffuvx71tje+bZDcaoIey3pIQe21j1bN/ChARuaG3tsHHC0edzFl5d5F9sxtn8tk4TEFA0wJ4XiFHnE90WyxtY8EgTSdQrkMzl/kYjOV2DiEKpCSkx8iepWxZOoneO9HYWTovNPCPfiWNcwxHEpnMuwhp+COMnElC9fIrnk6ZjE0Zo5HHDTSAomnjtbNvKC4Z0WnsXutOCPgxwU2pqj2jp/udABJn/54lgMHE6LNXPAm44092WvRsfDsS3P9BLHgNFYv8MREZhDux0B/2zoHREFaR0pxZWQ3ShRnSQoQp4JjJDkrGsQ5O0ix5d3CZuD69IIfJwOL7744oxrTseLqaCEIjwhxZG8iz/O8pAkG354ioOHmIZ3WH1OKqp1A45BE7Fh+ihhA9M3ZVxg4OqXiqNeIz3//PNzTr5wFAWGhmDvVIIDk64K5SonTYG7dXM4wKGHC54c2NHNxqKBOXbsrbnkQwtcG+tnmUUF5YAQEgAdi5IkKMI6jIiAkCImH4lHHAHPiMOVJDv2kncRBL45WHwQI4JTRod3IrDVcHAqIgE70gnO3hqOYsHT6XgTAzY+hPC3BOLJl72LkGwTHje8cIWvsQ2Fhy0Wf+ueaeDPxWnA1rdl+dsQFcnzcfwRJx3N++OTvHEyioWzOTFogZshrjWXHGEpNgxznuHKlxbmGmuHM5KkwhFAAIV1mTeQ9+WA+ACJXNGQQtR/xwuWk6EvgAiy5++PKgpIzHayIii85Ow6f34logTET1C7iKBsxfAxIq4GTQR88I8fkdhIHl+FUdiaEbaTQrFwS1T4NQVMouJJl5pLzGLJnfhywwtvGN7Fs3E0qJzEloM1c047mOLhTRc2x9EY9BBT4eQhHo7+JlJOmp8Ghvw0pFOUH501aWN9aUPAAjCgioqEd4kpliNa0MjWHNZ89vEjjKNNwhIV1DzCFdZPL4kZCSl5scQglDh8YfGv6azx0bX+oQIuHvw1AwETlBD5iQfTEWjHyk+BrePFjziwcReTrTWNBl9MF1zDs4ZxlyvbeNMo8RXNc/qy89HnblPQV3wYOCiYjcUGT5d1GAbOYnqXv3zVQL3UoeYwR1PzsMbYfofrTt1XAggjQgA7QAchRAh3oGwEI6Z3iRkKIZiLHx8YNZEYhnmk7Q5zxbBD6v5ToivpCkhYxdcg4hg4wMMHJv7eJcyPvaZQULGI5ieRecVwF4/otFAQuRJNPLkqtjsbxzNcc3RySrizhy8nOHJhB4+vu6LShAaKbmST3njWyHDwK57nii4+3jDlSmcxxIfRd6kRYvuWrjOQ9SXG0RJhwC7C2Uk1AiJsfIFhj4gd4VlQwjqqBCamJASGI4a7Cx4sRSKUYiNOYF2us8W1BkMBJAiXWJ5dMAjAX7HhmpeT4kjcM574wSEMDna8mBpGHDkojNhwzcONIwxz7nY/LBrx8+x/GVHunYDi4qtB5GRz4VZueMPCh4Y2zgsvvDDx/MmZXjUKLFcfl3B8JxELhiLTiX74Ghq/sb60IcpIwgQjUoYCEklCBEJIQdmw5cuvXU1cwTQEIvysE0VS1g1zPq/bTY5w9opFIMk40vkTxbpY3iUncRwUHla7EEd8DbY4EpoPDoqHG77F7HRi04khpoGDOBpWfPjyczePB640YUMvDVFx5AcLRwMn/M6ePTs3A/548THw42ueXvKiS6eTuHjiohE0Kztz7rA0qkte1RH2nwpOFA5EqJuJTxyJAZKYrtZJSEhQAVtHBlkYsJwcbL37Jtx/FgwJArjE4C9BlzU4ErGuALoWeUnBxwkf4mkOzzDEIZx5dxwIRnRr+HsXkyB2h7s4uMJiZ/CBARsv+ohLaCOe/OEpKn//zi+OfBWElvw9szO8K6Bc+MjROm7wcKCt+RrQPF3EwYGtE0Ecz2G5q426xHEGHf9nFZwBoggxQkIA4DoOQcGA9CXGO3tEBXEnsO5lTyzJKrh3xN2twzFv9xBbcvyRty5u4ipkO4pI7NiI2TwMDUIocXCWg2OUnbjuLiJpoOLg4eKvUGIrstzg86GJd5zC1oBODzZ84eLBnz0/GtDWM2xHsaMcx7i4V0h+8KyzVUjczcvbJQ4bnGGaw4utDSG+dfPlUsH/9LPMUSRRQgiii1x2QaQkbY6d5HxB82/ZgiOdiIrks5G94rInPoKKLCGkDMQ0F5t2rPie2SkObgQmlmc4diBffv6ZEYbPx7jZsTiKkyAwcTLP3ho74hIHvstQRJcmZC8+G7nSQ5w4mxcDXzFwY6fp3OlEE5/J5uDVPH5iWZOzOZtGY/OTjwLzozvOadQXbQ3F3rqCG3jQ36mUzubXz1TAI6IAAAYMSURBVDKEONkhupYDgLoaKCKCeEZGISVOfMVGWMERYgtHh7OtCNa8i6NrJe4ZUbGQU0RJultnb63iemfHjwB4Egw3zWFNUyicb686X1G9w8FNfvLF17r5coDpi6Y47MSVBy5yVXhFE5ePd3lZM08TMfBQKP5pAhMnsf2tQiyx8+EvB/8ryzRjb05+mk9jwYYJBwe8YHimqUs8+tAEtk07xvazrOSRlIREdbZErWkIhVZEQSXHlliKo2CC8EMQUUefu3VY1iXIj515SSDFFlG7XyIG0XHpcuwjL6aBlyYjuL9q4QqfIO7scIUH27rE4eFiDVfcFR4Xw+4kIGxiilkDwmArtjh8FUYMRWEvNzHwtWbQrWc6GuKJAw8uLnwNRVcwPrDgKrJ4+Ghow+ngo9g6DdUFrjzFh8nPr4YxtoIrAtEI4UIA+L6jgDlyzBPDDgeOFOIw3NlI0N0FK+JsJAjDEU8kpAgolgtBSRFeMXVuxWCnmITB0x0X6zWNncwHhmbCCa5mMjQhG3/9krM8YBnwiYevZxguMdo9+MlDweFaZyumXHAxx86QL56uiioeGzqIVUGP469rCsXHdyXcxMqPj0stxKeveE6wuOBBC/E8s6X1GFvBKzYAAYgtSEMQwnFGEBABAEtMAu0oZP0+V2h2/NwV153gSErIf3WY+LreLhLHadAu9c5eTKLzJy5uniVlvV3TbuBnDo64Bl64ytE6f9zkQXCCEZifNZfmgi9vPnThj7O7+DTAT052pjm7U2wjbPhywNEdH4UST07mYbATR1zPbQo5w6q5qoemroHxxUs92Xk3OtLXt/RIKZrEFMvo+EQeQd2HRAUmimd3ogiGKOEkYM5uZ+MYQgJRa4T2M02DWSeUOWviu/r9zFcMzcCerbvLFy5J4yZBXOMvl04qRcieiHgR23rNSgfYFYAPG/iwaVAx5WENpkbyEWSY84UJPlyx6FHebOBYV3ADpryN8mp30xsvTVJs7zaMnG0U2DjS3rOc4KXlBB7/Z31LlyRBEUGyXcyB6IIS3XrvEiOsIgscQYQF3BceHgxrOrVGElNRIooHPJd5mLrefCcJW+v9973ENmoWQrqIgp+48uBnBxKmEwOOpoTPHy87lrji9z0CDwX3MVCRaMHXPNt2uRxh4euCpYHEaLeKo1Hlb+BmTjxYcuKbXnJgK49O3pPxHyvHRw7mFVosPi4+cPdjFdwCI0kQCjF3YIaEJeHLmzvyErTjANtVkVJszYA4AmyQhefLDWIE8JwoEuSngz1LShyczIklpkLqaOtOBXccxXN5F4ufeJ5xkx8+MOQitvWEly+bisJfHHHZaBIXvvIUk1Y4wFF0c+J7F0MzyMnlP1Ispn/FcudLF/qIyc/3FTnULLDxcokptr/9w6cDDL6+m9AIhsKLLVc2fMRorCMdKd0laTvKkaQozn6fD8j4vJUEERPWGgL8CISYZ6eAOxEUkI81fr4x1pHwEPdtkz2BCYK0RCXk84wI4hi+gLh8TikMP/YKK1HvGlM8nCRsZ+MhLi5sNJ7YcK0pmmfiKbL4tMBJnnzxUBRzOCsKG764yE9jGOL0Ryr48qAzrHKVHyz3GhsHcWo4ecDC1b0id7rAEld8seknZ7Fobb2xCl7SnARjXKEk388E8wDMSZS9pJEgtqZRDO9ESGANVEK6Dg57zy6JhEcAX/pOxpHlGQ5OYnpm7zjss9qx7Vksoiikd8la46shHNUV0bOc48GXsPKEXy4atotocuUjhtw7VWiSdp1eMBSXv2Ljzp9dvz744VJB5WvIrw1kna+i4slGDDuYn+IqtHk2Npt3GP9vwX0WKJJEACAqmbpIsUoWKGHbUQJLQoKC8mdLQAkh66SwhjB/RNmfjKISg62YimPN0Uco8wR2R14cAw7RagC+8PiyV2Cx4cnB9w/zckzIMOQCF2+28hEbPv+EhMnfGmz/no6XSzN2YsBviFuz4YanjeR0wB1njWceJm3o3l/kaEx7c7iwZ4urq4bT2BqVbpoajiFnNo0z586d+5/x8mQT/9z/1gr8ryP96b91iv8kt1fg6f8AonbH5ioVY/oAAAAASUVORK5CYII=;aspect=fixed;imageBorder=#000000;" parent="1" vertex="1">
          <mxGeometry x="-10" y="405" width="110" height="110" as="geometry" />
        </mxCell>
        <mxCell id="OUMXYwsHuOzbVERew2cC-80" value="" style="shape=image;verticalLabelPosition=bottom;labelBackgroundColor=default;verticalAlign=top;imageAspect=0;image=data:image/png,iVBORw0KGgoAAAANSUhEUgAAAHwAAAB4CAYAAAAwj5aoAAAAAXNSR0IArs4c6QAAAIRlWElmTU0AKgAAAAgABQESAAMAAAABAAEAAAEaAAUAAAABAAAASgEbAAUAAAABAAAAUgEoAAMAAAABAAIAAIdpAAQAAAABAAAAWgAAAAAAAABIAAAAAQAAAEgAAAABAAOgAQADAAAAAQABAACgAgAEAAAAAQAAAHygAwAEAAAAAQAAAHgAAAAAiNAfIgAAAAlwSFlzAAALEwAACxMBAJqcGAAAQABJREFUeAHt3deuLUWSxvF18N57u4GDF9xzx6O0eJEWTzYjnTvuQMK7hffe+85f9v5nFYPmBRAp1VRVZsQXX3wRmWutfbp7zpw7d+7Jw+Hw73H9M/7+Cjx9wchRsZ/8++f6T4YUUPA5rrjiisMFF1xwOP/88w+//vrr4bzzzpvPP//887xbM+f9jz/+mLbef//998Nvv/02L76eL7300nlnd9FFF02fX3755XDhhRfOWN9///3EYG/d9dNPP83rsssum/HgGmJ89913M17+Ypjnx+7bb7+dz+bOnDkzsd1d5n744YcZmx9OfNzhueOR/Y8//jjjpoUXftb5uTwbl1xyyUFermJbh+fds7F/tsY+G9iGd7p4h2vgR5e4ppN3dtaLG05cWlcLuF999dXEXAV/5plnDh988MHhmmuumcG/+eabFVjyyFfIr7/+ega6+OKLDx9//PGcv+qqq6awxEBMAyWOgmiUK6+88sD3yy+/XIRvvPHG6W/uk08+Odxyyy2Hm2+++fDhhx9Oeyzffffdw7XXXjsLL8EbbrhhiqY5xHvzzTfnOiw4EjQvF+JZv+6662Ze4uMMA0+88TNw1hw1kka7/PLLZ64agSbEZsdGkeDRB4a499577+Gzzz6bxUhLRSA47jSEi3txcVUgMdhcffXVUztxcFV0mhj44SA+PzH5yDMe1j2Lhb863X333dP//Keeeupf4+lEcQADQQYpYOY4ffTRRxNUVwFAkK0LMT6CELZC800ka8RFlL2kjE8//XTekbv11ltnY7BRuM8//3zaKY4GwOP6669fQuMg3snJyUpc8pqLeJpEfE2ES8LgKgecxBJbQXrGj63cxEgbROWggDhZhyEX/uIR3hqubRp8YCuE05N9O5EtH/6eb7vttpmfmBqKLa6aRw5ffPHFzEdOaoQnDnwNMQ3xxcNfPniPcVw7HKhiIoYMEoZ5z4RGPKHcCSfJut8OVij2sNgj1PGFMNtwJYMMwdlI8qabblqF0XAumISCWzNJyJqOb0eJZ05MdsSRj3l8amLPFQsnYuBBOL4GTsQimjzdnUDytTPlsW+Imsc9jmLDoxUO8vUuF3hw4OFJO3hvvfXWLJYCyxtX8XGxITyzZwsfb+9OAnPpaLPQyMW3sQrOgCAWBQHmQr7d8t57700hOAssEc3BB/k6mugwag6CepcMvIqKrHf2BFBQwhAWUT4KIglHEjENRVYQXW1niM0+gfHlQwAjgQjOhuAEhSOWEXbr8pKPOO7wPOPjjrO8+cW9ZnEaOXnEkJ95XDzD4QsfjneXAZsfDp7p4QS8/fbb/9TY+GsGeaqDdx9nPl5oLS+YsOgpTuO/7TzekEbCJZjiA0JWUuYVisgCAXWXRIkAJQKiRNK1gioKPORgwZQUguysaQ6XBPkTy+eWZ0loSIUVF1ccfedQTAMHfDURcSWpwDiaj6e5YrXr2hlEw7/G54fj22+/PQWWD1+c5FBMnM2LrRBOQ3l6NsceFg3ZamTPuNGGPb5yEh8v+oiBb/nhCZem7MJwh28OBlzPGss8zRprhwNnWFKS4WQeaWIjomiOIYUiNjufJ4ZgbCUvUANRl2Z555135rOEJCtGHY1YXc9XQR1jBn/DuphiSMgzwaxrBCLjaMfDY0ck/PfxPOOoGDgogkL7rmLAtWZ0+slXLJh4lJc48Nw1KRzPho8bunjveO1EEENsWHIx2HQKwOenLnJSiwro7tRTbMM7vJqFPX954f+XL23vv//+NA4AiJ0l6cSRaN+EkUZOcpJSaPeOlDvuuGOSrQDsJWfnSg6xBEPWs8ITVTzHmHm4BHOx0TTuOp9dx6G7y7okidOxnWjmigvPFyQfMxrCEI+vnInM/q677pp5srcZ5KDZYcrJnJOPNvgTWg7W8BGPLxt54w4X/5qMZvKkvTWFw4m25s3BkBtb2NbTjA3u4oqpLtadTGxpyW+M4/qWrss4CQYAmQgC1iGSEdhuUVC2SAki2UiyZ+f4YgsHPqEEtuZCRpw+tyQMI2EVVJLmXOIphrvdz77TxjM8yYojbsLYlU4KReHrbo4N3ooCHxe8cFRQu91nPH5OMbh+IlpXMHkTWaPjBYePAtHABZNueNJXHPNsfCeKA16ajI3NB0+hxMdX8/p48eUMBg588FcvfGHiKm/DOlt68h9jK7hkACKIhE4WFJg78QFYE0yhvRt2sSTMOwEEVyiJlqTAxKwxxLvnnnsWUQUjIAwDabH7Pe5Ywg8P3GBpQtxwibOk+eLmuaLwN3A1Z00TsoXruQseXE3NzsWfNngSkJ/c5KMg8qEBbIXDsZ9OfPDVJLAbmlDjwYcpX5hiKbYGgtWpCFssGmg0OVrX/AptHS+x+WgyOOKLPcb2s4wQHQlWJK947kQnChEUs+IIbvcqJkB3wutyeBJmg7hLMoQxD4+deSJItjlYkmF/2pkzCXwIp5mIpAB2gMYyCI6fpnHh046DU4FwMIhDMPHYw8S7AoQlJ7biPfHEE9NGUeTOHy8YbI7H4+QMA1dr8sNDfHrAgW2elnJQmE4zjQBbXDkY7ppLjTQirNasO2VohoPLmnf6qmFjHem6BAlDpwAgIEKcEPAMSJIKZAA3CIYEW8TZw4Cl49wRQFphdTZbaxXY5xx869YIAxeWovpCxF6cxBJfI7qIjBeh7QIDHiy5wNH1Gg6Go1OMBx98cL7jqJCw2DpyrcN1GYpgXlw64EcXvMz5XgDfR4tCpgnRfcTBYScffuJoMs+w3e+8887pyxa+XOHLi4Z8xIbNBm9NLKarRslWk8l7jO1IR8IA5nhRGIkT32XOOwEVUjA2BiKIEgc5ArPV3YIhxR4ZCbBTAP7IsnE38CCOI4qdRPhrRo0BR1E0lbhisednF/GRqKTZWm9XWWNHYAKKzwY2O9zZ0sBnJZHkBc88W7nLzYBnzkUX+SkEfvKz7t1lHQ6u5jUkP3OuNhBeBj3gycnmUAPDeqcQbeQjFr3c+cnFM0zr+Fbw9bOMeBImAgKJa15Azggibw1pwgiqsPmxMy8gHKQFc4Igw5+No0mXW0eKsJ4JUdcSjm/JJw7x2YgLx0+9OBKkJsBXsvzMi2fXKZociG+OmAqCs93JpwLCkg/OcvTRYE7+7hqLPV98bQz8xNPcbPi5K4qBMx/z7MqvZpTPyfhzMWxDLEN90tRppyn5WPdlkiae21TWHP81C4z1hxcC1OkSdCk2J3eFckfc0eROBEVCgrjIAyeiZxi6URH51wR+CkVeoWEh744sHopijYjmiUgoBcNDAyVkO0UMfCXOV3E8a0qienYyOHbdrYunSPjKBy+XeDTxeSqOBjCvCGKwN48frjjCN+SruMfxeW6H0qcmqDlgeFYo+cCjD+1wgg0Pb3Pw5OmzXnPDxJsNvdjDMycP6y78xGqsHa5QOj5HwQnsXbI5IUNMtggISASEzUlcoL6sICMh/oTXgYTr81hChhg1lWfNQvCaT0yxYIsLR5NYJwYc9r5gEhcXPmGLCVdemtTdHEwiscUTNq7i7P8qFn94FVQ8TRMu/mLTwG9gYotlmBfvjTfeWPxwN3Cgs9guz2Lz9YwbfWmm+HSkufjyxJsG6uW9WsGy4TRIY31ps+uISAhECAgYEGBgEjAfuASBIoycwAi5EDSv29wlbJ6/ThTLMEcw9pITy7Mk2YYvwQqpidhIzuXLHt4S1ZCGuHiWjzX+fPeFxNnFDi9DwVz7b9Z2sSZmVy40oYFYcpCTCx4N/dFGM8Fiw6/mko/GwV8h+fGhlY8x6wYbfONGIxwUknYw+YnB15w6WYdNT7mfFn37WQaEyIhzBlKCHTsEPHv27DzCgOhuO6FCe3ZU1qFI6mrvLgIpIjuJKBQba+1uMQyFI7gdSyyxHOfw+cE1+DreiYS3PGDB9a5hYEmeiOYc0zjLlb85NhqcBoQj1AMPPDB9NAkcQlqTg2/qYvpGLabTBj9xND/7Cg8frmIoLPFhwlIwBWUvR7zN04FO5mgQV7p51kyaXgzY4sKGK55YeGowdo21wwnYLiKooBJBQOBIeyaSNXfBBSJQXenjgehIWEdCg7BHUBLWJCsBseERiqjePRNCgdu1RIClMAS3ppPh8nHhDdudraTxwkfybM1rJpysK5TPdRzkx9cFO0xr7UB4YliHoSE1s9wU82R84VJAGHIlPh3YsvEcH8WASwtc4DpNcIVBWz60sAHxl781OotdQd2bkwdOsNj6MjrG9rOM8ILqFoPInl0IIRKgZ+QA6nIJSE5zVHRzghoJzwdpBCSAvMQJwV5TERGWZ+KJBUdDKbDfzsQgonli+CIDzzNfaxXC7pAD4fnhLBYbsWs6nOQJQ7N5VmyciR5HhSciPvKtKbyLIVd54aEw/JqXi9g1Cl5OBjz4qwGN4cIx7xKfHnwVFCae+OGqefEy4ODeBrVJ2KjTGMf1LZ14kgOkaI5JwQUWUDDi6BTJeCeS4GwERcazAHytm6uZYBO8DvXMXlzYfODC953CvEQkRpyXX3552igWTr4A4R0Goa2xh8UXhl1ARPP4EsNJwsb8ww8/vGx8nuKHqxh88cHPO3uYCiFP8XDGwyWGE8NQaAXgC0NslxOUXz4waWRescTR3GHzYUMDfOQlPh5yh6+Z+KobXfm4+zjGqbGOdF2LgEAM2mlAzNkpAgmqIYhiEE1AnYoo0QVHyLN1O5WN4msMvjqPqDCJwt9zwrhLmL9LXPiOXoniBdOuNXDnjzsRDPHFJqbftjglIiwYsM1pTnhswsLLoI01Qw5OP8JrnE6GTiynjXg44MYPvgLApl15wYDFvtwVnQ9uMPDmIw+ayIkWsOxaGmosPjBqQutOU7nQxL9bjLF9aQMiQUIghyzAHAhjPaEFZithtpqCAIqteMjx52Oevy41j2DdnAjWPVtXUNg4SQhhiYhhrSPRnN1FGDEkXQNUeGLBJa41YpvD33viKSSu4uFpd8BMTDoY7OWMAy1oxcZQOD44sre7YDkV+SiI+GLgjVd6W+cvf3n0XQZv7/Jxx9NQQHPs8QgbDg7y00x0FauxnhBD3pchAtqB3okAGGmJVBCBAZkTxF1QgRBQeF1fx0qGjQQdm45naxIiomSswdwLQngiscOxk8UzLoR1d7ERQ0G94xU3GNbk5i4OrgSxg901FHvP4sixQtPCZc2A5xJLrvDY4g4Hpjk5meNnA9Do9ddfn2vsHP/x1gDW3fHgWxOGbd6gMXy+MGiIh8GWtuKy828FjXWkSxCRyBNGQMLpZuIAkiTyutq6S3LsJGQggQws84Z3wzty7mJoBEl4ZtOR5Oi3QwiQUAogts7VhEbFVcRwze+LSzR+/O1qvu0ueZvz80pB+dkh5vHHyzs+8tdomhNP8cSvYHAVkb14Nok7zejEHwe5exfPszg1ufgw8aOHuw3CF5Y6sKWbZ3wMOAZ7fBRcLNq5O97H2L6lE11hJVKhJGaXCowIgt4lJIArgSTvVECEWN49u4jGjz0iyCuamJKDV5PY0T4SJAXP8P1Bsrjx8cVEXHP8Ek5MDUJgHFw+++QldkcfbMVgBw8fGB2ZCamA1jW3pmFHONzTQD4VRzwFdxzjwoZPOvqSCU+D4S53BRPbPDu7VQ7isDEHQw3Y0ARvWojD1hod2Bti0wiugssH5zG2ghMVEENBJEkkQJ6JpSvdFVAgiVZccwTyjhSSFUUD+WOHdV9CiI2kHWyeAJKBKQY/sRGWhC9C8Ly77rvvvmnbrvCN3rwhhgsHWEThSyCFNyd5PNlVGO80gFMszdJwAuCiiASE6z3B3eOjuTWImLhpYrg1tVje+eNJA3qwo705d80Ey8BZHTQErWnPRtNoDhuLn5i4yIGNeVwq+PoMlwADJCKouIgYCiCQDiaENf+NDkm4BCaEgIgpGnI6jK/PbIXtmNRckkbanQh1vuLzcUdULDgloFGIK64iiee5QiqsY8yQD1z4YuMnj3aWZ+v484MlZ89y0CB8+HsnpKbF2bs4+MnHhZcGNQcbb3nA5AuPhoriY+I4/oHF3xb4GjDpKC8c6YC3eD5yFU9haWFoWHEMMR3/sOHww6djn836DFdw4iOo8xEDzLFdI5hAHWcSkIwd624Qji8bg43ECC+wCwnxxNJc5iqGL418+Gssa54VE7b4eCqCYZ1A1uCK7V3hCICXGBrCPB4E4afQ5jWjOXkQTzz/rEhk/wjCDw5fAz8ciK14iuWZPTy4nsXFk4Z83NlpHvO4agQXbJh0UGS54O+/umTdTrWB1ARHjQbDPH7s2fERFwd4Yhmnp9V2pCtqzoISEAnBOXaEEUNA9uZPxp8RBWFf00gKAUnDEBwmO6QkyldR4LMpQTZhE8ga3xoxThK2nnBiwUx8fBRVg/hSqWH4snPBxBNntgpHOEPRYONtpys2oX23iL91gx6e4REXd++09C4/c45tGHIXvy+B/OHjJx5t5eAoh8neZaSXNbnJHb5nDeVyusDrnZ78XGNsv8O9Ge1gSTMmkoB2ACLuAhGCrW4yR2yCKQxhJEdQpCuq5OAixFZyBsI+69zbZQkjDnw++BjePUsKvjssQuNkJ+AKT+z+89vWOqVqGMXwGYi/ddiw5OAzlD0sAyc5yUHR+NYA4oiPlzka0U4hzcuDb1gaHD+xjXJiQyd+OHm3VmE1Cl7m4IvlOW5wxaOXebY1sjjrT6uI6jDGDAhiII4AZ3eJemaLvN3RnAQ8I8oGFnEQk7AkKr67nSchn2GKhoPPLuRdeGgcuNaJb15SGssO0nDW8TTHjoj8zLHHSeLiE4i9S7x2FK7tKHnjbeApTwIWnx3ebFx2nHf4cYXNB0daOVI1iIL5mGDn89aAj7dTQdPhJJbBR/PRSiOzE8dFBz7mDDhsXNYq/r7g60sbAogQS9AEYAyona7okjEnScEAK7KkShpRzeBiA4cA5olkTiEcqUSVoCaBpVjtNrHY4ydeBRA/MRTTOn+YODgpiA0PFmEUSh5s3NnXEHjCE1su5r3Hi72YdFEAzeVZAxHYkKMYfunIDz7+4cmfLb6OeNzwgoGTHGB6VnR3cfCQizn59/eStCgfXPGE666W/OA21pc2XSoYokgL4gtUBVdM63Wt5xLsFAhcMCSISCRHKgHtctjWCIGwd8kb5mARHZZYyBNOPAUnDixFFIeteWKwI6AdxabfohLv23w54C6WzzaYFRanGhSuy1Ao+BpJDHETGBcXYV3wYNjBCqYBrdul4iq4zSVW+rIXC+/i+XcDWE5bGLjL2UWb9FOr8qe5/OWWnbvvKGNsn+EIIScxTgITo+4Q1PHpS4E5SdfliiI4P0WTqEROvxnOQiPYxwCCbM3pfvZODk3nX67geRfDP/SLTQzJm9eInvkpAq7eJd1zHxNi4abxiIofH8Xyrvnw4OckgSMWH2v8KhKbGtF3DkW329nCyJ8+ikM/8fDnRy9YBh/vhjX2hnma8MWzTaA+NJOP9XjRSh54s7HWpto30ASH30OJcpKYzxpEvbus++ODpIguKV3DVmEFQdK7oAWLtI5WQIQNOHwQV0Djsccem+QVjtgE5a/TzfVLwYnB38BDwsQglt0jdheB8cbJCYN7WHaBeZwVTJ52Q3PyIqjhFIIlFj87zmBb8eAonDnFxB2eRte4Toc+fpw69LDr6cZPwyswH3FwpZGmso6jqx3sp2Onpo1YXk429eJrDr/GOtIJRlBCt0MR5oSELiQiAAHZS5CN3WT38wXuTihriBsRRsbugiFhpBWNSGzMSUoj1FCaRfKKTEj4YkuKrVieFaIi4kFAPhUKH3Gt5Y8bX5zcNbk1cXDHhwZi4ACLPvTwjjP+Lo1l3fBu4IevotHIH23orIHoKqZLkdm509mzSz6w5IJXm0AO5vHWfPA1D395WrNp6eiZ3xjHVXBG/tYrgEEoyQCQPCEQOxm/uwlhHgGFR8xu4CvButOO0b2CmvcO1+WZn6TZExVBiRDTpbnEsW7+lPTEwlGixCEg/nFhD9uuEovQeGgqOcBSeDau8OVbIczJz07EQ3HZKihO+LJP+L4gER0XjeKCISa8NkW/lZ12+LOB6ZktXHHEhG9ervIz2PKlqZzcnZIKqwY1JhzP9P9LwQkssEQIiCAw87pLJz300EMzqMCtIQA40SokG8U0CMbGLnEZiMCUjO7UUJJiJwHEFQuuIUHc4MPAlS8e/rZOXPGcCiXNlw9bHCQNR2MRFj4MXPgqFPwajr88cHKxJSp+jlJxsoVnXTEUia98YHq2aXBJN+/+TZu92JoJjwreJtGYGsU8G3nKEQ++vnOJJ0dNgpNTk3168Dv9PrXtcMEQ1qFAJQ7IzuAgsAEk0RGRgOHv2zAkBRwpPj5vCaRI7K0hA4OtGIiy1QDeiSthYnnXDDi0I6zDkDDBFc46Ya3FXT4KZl18ebFTeMUQ37o1OGI5rokGB2+xcTHYaRzieraeFgrggsMeN0e8mObEMY93z/LhT0OXNfzK22ljna4KixOd8KYZXHNyMc8OJwNPdtbpKqcxtoL7nESSSJwlzsE7Eu7+scSXDoQkDEyShC6ZyEBHwE6QTN1OVEMRzBFEYuYl0Y5gg7x5/uyLhyexJFXh8VEIMc3zYeM7QwWXh3nJwxCbvzk5uxNYPnwUBpZhDjZ+Lv5dbGHjao1PfDs56GfNRpAnPEU0X141tHX+7J228Ohrs8SDn4GzdXk41p1etFAXtbCBcRN3jK3gdp8Agkna3YWMy+9YCQMBLrC7ITgRFZAIdjs7eH3ZYE8Q6xLzzN5gR5iOJ3i6F2a203D8H35hSQQ3TWjeVZNJmmgVhX9fYnDTHOzhV2x44lojND7lYU4smAaN8HNZkwM9CO0ZD7HxcHxrXrH4s7PGjwYaC57iwCt/8ZywMHGDac5dbeAoNmxz3s3DFke89PNLZ4ztd7ifDAISnpEAjoK+DPhSgqDPW87EIo5kdJ7dQiQBETQElpAEJC4ZArLxThidy887wt7xgCkG4nw0JH/r+OGCGwzrYkm645+ACsaOSDiw856w+SU4LF/05IWT3SMe3z7KzMkJX40nrlPM5zEt4lQO1uG5w5GHZ7H44yNvG6P8zeMsTwXVkP38oiutDTa4wKjZzePKjx42A7vG+tMqEsj4wCe2b+yI6jBCWxMIODDkkQZmjS0BFcg8wdlpGkVgr4kkBY+dP15oNImZT0jrkuYDnx9+EvHumUBsxCQuDBzcXUQiggaFh7fjHTc+bKwrKDzx4Xg38GbnVNCgePpnVI0AG6dy5IuLj7xONHHYyMEO7OOChgoB2+VZTp0CNSlffubxw4eemtPAycaDb85dTnIVu7zY8m+sgutYgHVyJAjlOPdFxzqR3IEQmJ05dztbQAQ0iuSJgKx5Yrkj4/eoAhPK54s7MfAwr+n8vjdwIK4kCSeWhrFuXlzJ2l1sxOPj0uFh9gXSboHRieA7BK5i8rGOCy1qQk1rTa4KISZhNTsssfnAok07UnOIY03u+NEPlkYJ05rc4LGHAQsn368qOB5sae+imztNrfGFSx9548i3sX6HSwIRneXibA5gO424OlBBEWEPnF07CmFBrJnzUWAQyOVdYnaTpNhKAIYLcReBvMM32PKTkHmCEjl8dprMl01FUgRcJK5IhDbPPwzzcoJtt8hVU8rRvDhyN+9y3JvHD4Ym0xQ40IONRhaLnTWcCA9LcSsAf9hy12yGHPjSXpFxVwt648ofnm//8qMHvgrapmHvXTynAxt5036M7UubAugUwBJCzAXY0QMAEUkCzw4KYsSVMHCJCMymQsHybA4GW6cGXMN84khcw8A1JNyfU2FI0pqECCtBieEqNtHguvMlKtEVQ1w+xl58ttbxkB8N8OjoVTwDLm4utrAd9+KUn0bHhS1Nia3A7F1s48lHbO+amG5yw5efvKzjDRf3tNWYbGDipxH4aSC4bUJ54jnG9l81MoGURBVfcIHMcXY3iAwAMGJA60xdTiy7E0EkfG7yN08EtmIRUpIIK5i4Gqrk4LMVVyMY7HEzJO2dqO64uErefLw84yK+QplPfNia1OczDopnHX82cZYnWycIvniJ6yKwhtfInQIKxcac/MWAh7ed6h0WfNzM06JGssaOL/7u1tjDfPXVV+cJRwsNRHOnQg3B3nONw85Yn+HAJCwBZARzIa1A1pGy5u5dUxAHuGKxP+2k+Q7PcaeISCOGbDYISaDdIXFFcyc4ATSXZ/glTnzzLnyt+56Bi3fcrGkqtn4mKqSBq7UaSRHkUV4w5GdnKpqccDbc4eMFNzFrNJhOH3zguNjiYTPIi00c26F0atAEf/iKiIe8cYErlhycjrhni4vNIDc2eNOVH97yM1bBBWr3EkAQhVIQAQQD2oWQzlY8RWUjuGE3s0fIhTgCkneHLWkDIb7iiF+R2UmWWHD5ePYrgnCS4GOOsLjgKx4cyeOKnxguQ552qrvCGoQxRyh++HuuwcUQX9PJFUcczMUfB+92Oj8XrgZOfi3giyNe/PmygykfDSDvuLGHWQN5N+jFDq+Kal7jiNU8bD6wG+tLm0nHGpENoglGgAqmyAKVnG5il6C6ru4VTBF0tnXHIGw7QLdJki2h2dQsyMIlDH8cYImLfAUkPuH8Q4RnPCo4TCLxIwghiMieDXxzhNPcnuVUHtZdfNjLCw4xccDfPG4w3TWINTsYFns5wRBDrnLAFbamoSeOreGdP53Y00bc+LDFk04uOWgyeJ7ZuePnTi/+9Blj+9L27LPPmpjJMdYAgJAWWEdyAoyUgaAAkpO4wV5h7RLCmOeveDB8NiFMCL4S9iwRYnivsRKFkHDYKA5+MDQNca0rCl8+cAw+7H3hw1lRYLCTn/Vy0ZBwOrn8AqhxNI/cfR9hzx93seDBlbPc2fop6BJDzgqDZw0Ag68czLMpdo2Fj43WejmL06bgDysdxSx3a+LhKs/Tj7TtL22EQVyhfB7qDoXyXpKOJd1sVwHsDxk6SHF1Ex8kdSZbf1xBAlFDcYkqhiQJxlcc5AjGj1gSY9+zOJ51PxsxJANHgXCGZY2teY1ALLmZI7TLFxzvYuCMj7zwsc6HYPAISgPv4cmHjaaIl2J1krnj4zLotW94eluTHwzawcedPjabuPSzbuBg3d82/EZnLyZfvH0k0JDeasVGLaw31md4OweIRErcPFAdohiOeH99kiQiBJcMkQwBkFIYa4LBcKwpqiLwNa+DE4Ut8b0TU9LhKZbkcXLBYmeOsOIRA08Js8ejwnomgnVFNe9Poeb8FMMPJ03Dlwa4msOXv/n9DsJffIWRPx58xMCPVuUqFzHaDPIUQ3w4bPuyR1M5FFvDwaGP+erixOlkcPd3BE3rBMXViYoLHLwa6zO8ztHBuk4yAhCn3SkwcuY0hSOV0EhrBIkptO7yVzCJSZSPhhFcFxLH7kSeCMgX0xqiSLKtcH28iCtBSRni44k/HFzEYS8ufHHwIBp8uTmdiAKvXHBQPP4w5SO+4sgdBl8XTeAZGlcscfjJTQ40UDA6wMabnUsMnD0bng247OLZX+6smRND7t3pHiaOGseAz8ZdTrQZY/sMZygYAwETwk5SRO8EACqwUSAJ8Se+QtW1fAWVTAkTSTGM7GsK9uY0lF1CLIUhKBEjLwYe7HHW3QrjHZY7DjgTHk9Y5hRPPppJLL7s4BCFbYWRL74K7M6+4ounmexIfMsHL+/ydsHDm0YwFEsB5AOPNtbjrmHYKKQTxRob8eQCh//eF3/zYu3xxIAr15Pxn1QaY/sMd7wQywCgQHYqESQJsMID9mwgSBCJS9CuMUdgwRoImyeiAno2RxzvYoipmITBQRyJsZVk4vn8Fd9/0R2eJNmzEZ9Pf9QgGjz5Ea9iaFrPMPm68CeSO3z3Llw1KlyDb02gWXCkES3Eko8Y5s1pYAO3ctFYfMRmJzZccWiveVyGPOmDhwumBuDjY4kGOKsh7c3BNZzajXWkI2I3AVUoyQjOSVBBdAqBzAvAVpcj7Q5YEkTik1iwrCOHKEyXOE4Gc0SQNGy+GkgCGg43NoS07rndpYh2A1vzYuFql1jTQJK3RjRzbFximsdTPJiKx99pwEZsfr0rogY1z15xPIvv3Z0ufDyzl6tYuMN215hyx9OgIT1c8NkrnKLSwxxb+tLJvBoYeCo0jjgY8pKreHJzjbH9aRVpi5JH1BDUvF2CpM9sxAAhI4h3NkgggJxg3hWiIhGGEHw1jrvPdf6aSEzCwPAuQc8lIEG4MOLoyyPhYLEzT2hcCcff3bs1guFnmO/ZGtFwTiDxsuFPTM3nczmx5W2eDrjDY4MPu3h6x509TubF4tfHhxPBt286yYW+4qoBHQ1+8sdLATUTvkanQ7H4e64202j8n/UtnaOCEpqxd8+IduyZQwg5hCssIpIlfjuyQHwQ915hiSRxg595TQVHMtYdgYqnENb5h01wfprEX7PwaDf2DIcIfSzBs3txhwUbN/Y1o5yIRHD8xDBHcNw0L5E9u/jxZ+9i68+48qWlJhDPoKV1nDS8Oz4GXw3CXiF921YD+cFvY3jmR2ca4OL9ueeem35xhwlbc8CTZ2M9IcnIXWDgROTkXSfaISVLEEUipEDItYO8S85xahBMAWBI9v7775+kfRabkxxBYNSZPh74SAxuOwM/8wpmR+CnEMXEu8byLFkcYbuIJ0/2FQxHOcbBs4uw4hJNk4hjx2lIOsQDHjs+PuNxqtBiyoEeNQRdzIv/yCOPCD+by443B18h/Qb33vcQsXGAp/nlRluxYbMT22XOO319dPRn3vUZThRJuetsYiIASOIKgQQbibqA6mTCIkNoZCRDUMTdHduaB5417/D4mIfbjkUWNvEk15HPjg2hKyoMYsPhw5YAYhKDT/gaRfL88eyzVT5ETXR3O67TRbPJEa75vnN454enPN3FlR9MO1aj9N4fq2pANnzkFE4a4Ofyzh5nDdQFEydaGxVfrfjBNsTE07prjO1bOjDi6ApEJEp8YiJueDesmReALSEkqwEUyRyBBYMpMCKaSJH8zf7xxx+f/nwVkB0MQsPXZOYcb5I2cCSuiw9fYojr3bM/qBgawbqTAp/j+J/WwIGNd6JoQI3C1138xPNR4F2OjmnrsHHyJRAOfLFd4XjGl2ae6QCfLmkjviLDhseejXfx+bjscIUVC38NC1dO/iNoJ+OnlhNFHA3GR9Oz8wVcjP3veLqsHS6g4LqGIVDClpRjCLBCJzhRJFFnwkDIveD8jZoE+Uhly14zuRRBYXDAxxHc6QOHWI5edsRROH4EJ1hFMu/ZbnDB7DRKZLnCw9VHDV748SWavMRgz18T2uFOB/9Ly7Qw7y90YtCnAmkKGDDFKJamlbfGhgNDfFxp5d2zYoufHmwUlw1fG6fc2dOQxriYVy/+vtiK6e8NY2w7HDmEEWMAlIAE8CwhwEjqeGC6R8GRYCdgpwB0ti5B2cFh1xp7xSOIBiMugdiKRTyJKqZk2eNEeHxgE693OwUXF0xXTVmTscFREeHFhdDmFV48Q2PXLEQ8GTvqlVdemfg1GZ5powgaQEz5OC1p6aTjj6s84lDzyBMf7+xgqkMbrDrgFXda+iiEzRZXd3P5xRGPxtrhdhEQVwE4AkBAkREuqIJbY6u7gCqUzhbcumJaF1jiBMlfYhVfURWJcDoacQVwKQCRFAymBMUjKH52gsbDm9gaV5yKbY6tQdhyFBunmtUz3D6jNR9bdvLAER/Fws+8d/7sNJ87fzrwx4Ody47LBp5c2dNj//MSvjm86agpNYNhDb561PzyhUsLQ03E85Fm4MDPfYztd3hFFgyYBhBQAQTwT4wSRRY48RUNMQE862zC8BHQHEJEiZA1BH1r5AsbIet8xOVjKAIbnMw5rnAw5x1nRz5/gtYI+ItZQ8qjxuOnGbzjQoiaybzmkEO7w5zCsHPxibd5scTGkY/cxNUM+GtQ/PjRg41c5c0GPjwa0rQi4ycHfOGwd4lpc/GhhcGWvybSEPDFEtu7tcb6WSYwsQ3diSQBgSKSEH0ZQgx54lg3j5BTgC9C7mwS35yrLiQOYvzY+lKEIDzvdgp/63ZntsTT9ZKHIVHHOj+c+YmJo2Lilgju/KzjzlcMd2tOExzFCk9TGexgKYAvouzN4QPPaeROP/zYGebYwRVHETWKOw6wfMmypnhychl84GgqsdVDTjYeHenET1GtaTxzdFALX3r3R/r6b4ozJpQAjm9BzBmSF6yGQN4ccMAGPzsAEUOBrAmukyUIz7tnRSSoRuMjURiSISQubCVFcGtsHd+JggM74koaLkwiFoM/X0VwT0yc8FMMvGAqmG+/uBFJfnyssekLkdzyY8uOXvh5ppVm826jyENeYpuD5z2e9MSHLRsxcfMOX0OVM16waV0+3tlb8x+ilDNtNIF4NGqsz3CiA2fs2ecKonaD0a4iLhsBiCs54hLALmte0ZCEZU1gd8IQxbzLsWPe4A+rnUMEpPESy44wzJuTFOHcrSmEdwnii4tRg/JTeHEV0LxBMBhytZNgWJerwU4hcDM0oGLBEgNv8cXEi26GvOQCX2y4MIuneekHH5YiWvdOOwU1+iihAb3M4wBbo+NA305X8650k9tfvqVXDGASc/e/AigRl3eFQsROF1AxOkoSAzhSgjspkCUkMZCA4VlRFN86H+R0tGLA9CxxvGBLiD8eBEso64T0312XvHXFgM1fbJwJCqd8xDXgwIYJHzfFxRO2Nf4G7DBwlCMfz4rc6cLXz8qT8a3e3Tw+cnbBVwBNhbM4/Ivj+w0+vpD6EmznyskJ44ju+xRMeuHMF7Z84GkwGDTobxNyWDvccaZTCEIMiXjnIJiieLaL2FhXeAHY60xFIz4hvCMhOcElRwg4FYYQbNhKGL6TRTxz4sMiqCZiY/44/gghGUKwEddnf4UTwzquOPKz5iKOd2JZx8WXTZc4cis+G5/pDTlXIOKLKZY8DLmmXc3hXd5s09IpIg9/LNGQ/OGWr0LjUQ7u1vHC2buc5WHOxhIDFgx4ctGcLvbyHmP7D0AggCQQd6IihiQHjsTbAwJ2vPNREALprorKtsaBjwTi7BEmhruiiglPwyDPxl1cR6aC6Hw2cHGKrxjiaz7PMBTXOlt8NLQ1AwcniHnYmtFOcWrBNdiaixMfBcVLLj4r5SOOd8MaLOISvzxgeWYrB3H9OwKtYOCYJmKy9d8iwRmeovLRBPytF9Nc2tES/04etaOF+ObG2AruDwpGRootSYII4M4JaUEQ7CjSCNYV0G6GQSjHqB0sKSLwQz5fxxNsjYKUdb52Ln9JWZdQu1lRE4mNNTYSxVmDSJwv8cRnhzs+eIgBBw98rTv28Pdc07krsnhxl7MiOD5hil/TimWwt24NhvzohqMi2u1w+eFwuvvmu8LCscbPO65wcNDYbRR/qqabNQ2icdQCR3nAoYMcNfgYW8GJAIB4DFwIFxwBz+yQsAbUEQyU2I4/IgvoM4oNQtYN/kS3rpmcDpJ1IUtIO0MsguFCEF3tLmHCsQuHuASBjYP3GtCzBpML3nBdcL3j5jOWjQtf+NYVho3CmCNyxSCeOVhyE18+nuUmLj7i0sh7sdMPnnlf3MTlz8bwnr15POHImz+/bNLLOltrNTqN2MmB3RhbwRnacURDRvEBeFeMwKxJRlcpgi4E5rPFLrdmlymOS9KEcIejyxGKNIxEskZssTQSYXEitKTdYZeAYsFRLBiwXOKJRbQEkbw5AsSdL1xz/MTeP/OXA6HlJXfxNajYbP2GtmaErxmsy0NTy0sD29n42BjH03/MEUNcV83Jj481umkKz3DxtO4jTpHh+T7hWV5OHThyY89fju3w9Ttc4YiCvIIkPJGBdpx7Jq51Pu5sBDAK4B1JBAlVQuYRIw7S/bZFUqHC8BlpOKrg6GwDeXZiOubZ1YSKw05MglU8fvISlwh4OxpxIma7g79YYtRY3mHxkRueYsDm59mcyxx7cZxwuBv0Mq9RreEuNlwxaaEx+Gsum8yzk4OvZ/bysua7hrt6sTfYGpqRbXXwrNka61u67hOYg+TsLIQk5IgU1KVzkWBvIM+PbR0nAAwiE5h4yEq2uRLiJybBJA9PByNMIMLBZ9+6ZzEUHiYuGglXwvGzxq6YhDFXw+ATBz6+6ZrjWxOKp9H9PHXE80/AGpoWxOYjliEfmHLF0502hvjy0wzW6GOdXoa8YdJBDM8ufuwrqAbKx+lKIzZyMODCYENbm2OM7V/LGBNAUorNSKHME4uYilNTACSO935G2GnImXOEOA3yk1S7gL3njlkxEa2zE0/CjnZ4nT7wiIKLNWKzIyBRS5gIjk4/fczBkJ9BcO+44gVTbHxhW3PJHTdxKoq8YDoZCNrOUmDxbQ7xNAix4WkEHNu9/JyicoLNj3ZsceGLj9g4W1doz05FMcSPk3jeNYQYcKz5uPE73ntj/S3dzjWAK7SC6gpBJeXdZ3Q/R3S6HQAYCQUQcN+RyLMpEckh510xdKmj1Rxx7SZCGJ0kxFI8IsEupobB1R0XYvDHBx5O4rjzkzwMFx+2clN8AitkPORiDYfu8OWOJx9NqckUUp4K5q6I8sJJA7n4emcT/5oOX2uKaA4H+uMs976Vm9eE1YVN7zipjQaTl6J7ho2/e2Md6RFI+IIzBOw/h1bhCEE0JCTpWWKCIIqMI7JkFJqNxtFxxJWMBkGozhRTJzuinR6w+HU8mhMPH4WzCzQDwdg1T2B25jtpcBeL4HzZylXBPCuUf8BwuslLbPH6jE9AOWhWubErrqaRk8EW5womptiJz0ezKpI77WjmLqYBDz4MubSz2SuqpqKluwLjJaam4id3+XiHLb8xtiNdVwNlbAgEXIfpKus6XDEIJuGaBFGBvSMMxxcLiSmg7uXjstNgm8vPOzzE3CVENCQVShEkLTEFgutiY1Q4mIrnZLL7/K8kEBUnvPHze9scn3Dk6B9N8MMBhkbSqJqbeBpAbPl4Lnd23nFTAL4a0V0RFJuOhFdwI6z00fCdFnISQ7FoxRYP8eTV6RMn7+zSoM1DW836f8fa4UAlC4C4ikz8jlzPCikRO0iBgRue+SqOhpEkDGQN5FxE1wgwxOGnqGyJofCKITlCGuLy5SMpXawhYBHMR4A7UcMkGuy44OnZOltYNYciWhPTmubY86eDuAY7XMSEKYYcFVZ8a2LQAYZBK2tOhRpAMWBqknjigRNfOYtL73LCS3xYBr5wcKYbHvLmj4d1d/b86DbG9h+AKHF3IAjpeM9AzJsroKSR6XhBUpKCAPdcMAIj5HhVWMlINjHYmfOOnN2A/CnJtfPEEFcybHGSLH8x+GpQMVw4wO3zmaD8+JjDVW5ycI8Xrmy8w7Tum3oNQXy/HrzbKOLQil8NShsFsftga2Rzdn9aucvVlRaw6GyX26EwbQg5ykmeuPWxAlMjyVsMjYifmNY0lDwa63e4BYFcAuyFYUxcBDgTyo6uU1sP2JpiKWo/cRAgsiEGfHEc15KsCBKVADEcp3ayNXPiShgusdnAJTY8R6o7GzHwIRR/heNDGLjyiS+R+i5Q4eQWD9qYh6X48DzDMPDyXCG9i6cZNK48xcDbZ7N3vBUNjpz5w1YsczW1JoVlXV6KLjea4SWmGGJqHCdmfNkruntjfUtXJAly5lBgOwpB68RHHDDxDEQQQtCdrwQEVgB2BELIHb7E3fnqYMmb489GbGLAlLzCiK+YkhVDIp7jm4g4EUkj4WlHKTChFDWexYRFaALCEBsHAx+54Ia/mHDgWZOj/GhCJzzFsL7HT1uYNoLmgScfmvITR65iF09+5hQMnsGXbtb44KPoagebLX+bi0/+03n8n7XDCaH7CsYYKaOdWaKCCuBC2iCWYAqg0I4Xu4SAbFxEUWCF8OXJGuEQdcH3GxcObIVQENgS88wHH9gwzcGDyw8ega17lhdxvOMmL3i44OhPyASTd8KnAX+71L1i0wQ+IQ1asIer+HLHyTN+8cItH83lma984InNpo8knGmAm4Zy1wx4eHang2exXDjQSUycPec7yY7/swoeCcJIiqHjmEiIEdW3RF+6dBYbhCRXIQgpEDElywbxkpaUz0JC24X+Id/wbs1laLyOMIKw9QXGervPzz42hMNdHHHxxYFf33LxNe/i410+vhnLB0+7VdPBUEDNJwf4YspNfBjykTMs2nhnhzcsjYoPHuwMGGJaF0c83wM6WWpqdz782WoCfuIUS400CV98FN+JyE4DGDSTJw77sQoO4GT8JzQMiQFxPBEOKPC61JzgyNlBkkFOh/H139smAOL8BGfHvsIRlqiSlrwENZROrUt1u9gEMh8vtuYlJ65Y1sWyI/FUDDY4uOOGAwz4bIgBAyeYCq2J5ccftuLBPI5/7MAfTnHl7TJHD340Yy83nMSxxoedInj3/3uMBopkTiz46rDn5t/N2Ws+sfDHNW3scnnlT0PFp2l/CxG7scqvSwVEWtKSl7QECEMU4gFzB6gpBNLZAnv3mYQwmwh6NmAia+chI+GS9e/xMInk/6UFHHweffTRuYMqAD84didOBGoNd3ngaw4Pg9Ce2RLOUBBi48jHukbAweWEw9scW9gVi+hiOJlqRJitwxMTTzka9KETPzwUxnNN6Asxbp1udMeBv6bzjofmVWzY/bdf5GoernzUwXcY/PHGt7EKLjgB3SUhUQH77PP/T4zYilAxAfsDgaJH1m4jnrtLQETtPo1ECIQlTJiXXnppCqeAdrIBT0IElLBEiKtA/HWsHeLZvHhOEcma44+3eXFxwNuc3aLpDPFhEcyzvOSv2bzjLy/rYuNfLOt0kpshH9idHgogJnw4+BnmNLzc5OiPWXIw8Nds4rnoT2N8NQLd7Hh2chKPjWd8PHfC0QwXH8uaBT9j/eElAX2mAZS0AiQqZ2IQQBLADd1DKMFrFuuEITA7okhUkoqhqxMZLuHsALGJyl7isK1LWEIu3c4XD37wxIMpST7scYLlXdH5WMdLAeC7sw0LX/HEgeld/uZo0i6CBUfBYLiLY12BssNBzvDSih/e7njRzKVQYhoKJIZ3eGpRUeUgpgb0LH/c/BqBIx9ffPnLscbzHyIZ47gKbkFiDPtMk2wCEkVwNp4lIQDigkjMQFIgc2wRShx3l0EMsWAodFivvfbanK944hMIXgLExZ2fYuPjiodnjUMMz2Lho2HkwbdG9MxO4VzEVQy4fBIZdzppBDuW8Gxxiy+umpufIuDPxh2ejeEyaAMPP8/W3envUngx7G42NZ+NSD+71zpefMVtE8hHzuLS5HSHb39pQ0CQPmcUjcASyxEZc4K4IwDYvKDsgBPAYOMyIsAWWe+ENoiDrHfFJ7ZnOxSmS8LefTbBVzR3BYJpXWy+BPUuDiEUCC4cJw6u/Hxc4Cc2P3c58ZEjPNierYtvJ9pxsIir0LSqoHBxNw/bMSymxnRpONwM/grub/7WfI7LSyyD9jDEh4lLOciNrXcxxcFbTvD7eJSD06CxdnhHNCBGdbN3yQgsqAAC61oDqWw0C1sBkSQQ8es6SSGUIB3PkpYk7LpXgRTKLpQIHAUxYIuJA1/PBIYvD40gSZ+V8hAzscSu6/nxr+jydvSJCaM/g/Jhi6PY7GBoDv54esffuvx71tje+bZDcaoIey3pIQe21j1bN/ChARuaG3tsHHC0edzFl5d5F9sxtn8tk4TEFA0wJ4XiFHnE90WyxtY8EgTSdQrkMzl/kYjOV2DiEKpCSkx8iepWxZOoneO9HYWTovNPCPfiWNcwxHEpnMuwhp+COMnElC9fIrnk6ZjE0Zo5HHDTSAomnjtbNvKC4Z0WnsXutOCPgxwU2pqj2jp/udABJn/54lgMHE6LNXPAm44092WvRsfDsS3P9BLHgNFYv8MREZhDux0B/2zoHREFaR0pxZWQ3ShRnSQoQp4JjJDkrGsQ5O0ix5d3CZuD69IIfJwOL7744oxrTseLqaCEIjwhxZG8iz/O8pAkG354ioOHmIZ3WH1OKqp1A45BE7Fh+ihhA9M3ZVxg4OqXiqNeIz3//PNzTr5wFAWGhmDvVIIDk64K5SonTYG7dXM4wKGHC54c2NHNxqKBOXbsrbnkQwtcG+tnmUUF5YAQEgAdi5IkKMI6jIiAkCImH4lHHAHPiMOVJDv2kncRBL45WHwQI4JTRod3IrDVcHAqIgE70gnO3hqOYsHT6XgTAzY+hPC3BOLJl72LkGwTHje8cIWvsQ2Fhy0Wf+ueaeDPxWnA1rdl+dsQFcnzcfwRJx3N++OTvHEyioWzOTFogZshrjWXHGEpNgxznuHKlxbmGmuHM5KkwhFAAIV1mTeQ9+WA+ACJXNGQQtR/xwuWk6EvgAiy5++PKgpIzHayIii85Ow6f34logTET1C7iKBsxfAxIq4GTQR88I8fkdhIHl+FUdiaEbaTQrFwS1T4NQVMouJJl5pLzGLJnfhywwtvGN7Fs3E0qJzEloM1c047mOLhTRc2x9EY9BBT4eQhHo7+JlJOmp8Ghvw0pFOUH501aWN9aUPAAjCgioqEd4kpliNa0MjWHNZ89vEjjKNNwhIV1DzCFdZPL4kZCSl5scQglDh8YfGv6azx0bX+oQIuHvw1AwETlBD5iQfTEWjHyk+BrePFjziwcReTrTWNBl9MF1zDs4ZxlyvbeNMo8RXNc/qy89HnblPQV3wYOCiYjcUGT5d1GAbOYnqXv3zVQL3UoeYwR1PzsMbYfofrTt1XAggjQgA7QAchRAh3oGwEI6Z3iRkKIZiLHx8YNZEYhnmk7Q5zxbBD6v5ToivpCkhYxdcg4hg4wMMHJv7eJcyPvaZQULGI5ieRecVwF4/otFAQuRJNPLkqtjsbxzNcc3RySrizhy8nOHJhB4+vu6LShAaKbmST3njWyHDwK57nii4+3jDlSmcxxIfRd6kRYvuWrjOQ9SXG0RJhwC7C2Uk1AiJsfIFhj4gd4VlQwjqqBCamJASGI4a7Cx4sRSKUYiNOYF2us8W1BkMBJAiXWJ5dMAjAX7HhmpeT4kjcM574wSEMDna8mBpGHDkojNhwzcONIwxz7nY/LBrx8+x/GVHunYDi4qtB5GRz4VZueMPCh4Y2zgsvvDDx/MmZXjUKLFcfl3B8JxELhiLTiX74Ghq/sb60IcpIwgQjUoYCEklCBEJIQdmw5cuvXU1cwTQEIvysE0VS1g1zPq/bTY5w9opFIMk40vkTxbpY3iUncRwUHla7EEd8DbY4EpoPDoqHG77F7HRi04khpoGDOBpWfPjyczePB640YUMvDVFx5AcLRwMn/M6ePTs3A/548THw42ueXvKiS6eTuHjiohE0Kztz7rA0qkte1RH2nwpOFA5EqJuJTxyJAZKYrtZJSEhQAVtHBlkYsJwcbL37Jtx/FgwJArjE4C9BlzU4ErGuALoWeUnBxwkf4mkOzzDEIZx5dxwIRnRr+HsXkyB2h7s4uMJiZ/CBARsv+ohLaCOe/OEpKn//zi+OfBWElvw9szO8K6Bc+MjROm7wcKCt+RrQPF3EwYGtE0Ecz2G5q426xHEGHf9nFZwBoggxQkIA4DoOQcGA9CXGO3tEBXEnsO5lTyzJKrh3xN2twzFv9xBbcvyRty5u4ipkO4pI7NiI2TwMDUIocXCWg2OUnbjuLiJpoOLg4eKvUGIrstzg86GJd5zC1oBODzZ84eLBnz0/GtDWM2xHsaMcx7i4V0h+8KyzVUjczcvbJQ4bnGGaw4utDSG+dfPlUsH/9LPMUSRRQgiii1x2QaQkbY6d5HxB82/ZgiOdiIrks5G94rInPoKKLCGkDMQ0F5t2rPie2SkObgQmlmc4diBffv6ZEYbPx7jZsTiKkyAwcTLP3ho74hIHvstQRJcmZC8+G7nSQ5w4mxcDXzFwY6fp3OlEE5/J5uDVPH5iWZOzOZtGY/OTjwLzozvOadQXbQ3F3rqCG3jQ36mUzubXz1TAI6IAAAYMSURBVDKEONkhupYDgLoaKCKCeEZGISVOfMVGWMERYgtHh7OtCNa8i6NrJe4ZUbGQU0RJultnb63iemfHjwB4Egw3zWFNUyicb686X1G9w8FNfvLF17r5coDpi6Y47MSVBy5yVXhFE5ePd3lZM08TMfBQKP5pAhMnsf2tQiyx8+EvB/8ryzRjb05+mk9jwYYJBwe8YHimqUs8+tAEtk07xvazrOSRlIREdbZErWkIhVZEQSXHlliKo2CC8EMQUUefu3VY1iXIj515SSDFFlG7XyIG0XHpcuwjL6aBlyYjuL9q4QqfIO7scIUH27rE4eFiDVfcFR4Xw+4kIGxiilkDwmArtjh8FUYMRWEvNzHwtWbQrWc6GuKJAw8uLnwNRVcwPrDgKrJ4+Ghow+ngo9g6DdUFrjzFh8nPr4YxtoIrAtEI4UIA+L6jgDlyzBPDDgeOFOIw3NlI0N0FK+JsJAjDEU8kpAgolgtBSRFeMXVuxWCnmITB0x0X6zWNncwHhmbCCa5mMjQhG3/9krM8YBnwiYevZxguMdo9+MlDweFaZyumXHAxx86QL56uiioeGzqIVUGP469rCsXHdyXcxMqPj0stxKeveE6wuOBBC/E8s6X1GFvBKzYAAYgtSEMQwnFGEBABAEtMAu0oZP0+V2h2/NwV153gSErIf3WY+LreLhLHadAu9c5eTKLzJy5uniVlvV3TbuBnDo64Bl64ytE6f9zkQXCCEZifNZfmgi9vPnThj7O7+DTAT052pjm7U2wjbPhywNEdH4UST07mYbATR1zPbQo5w6q5qoemroHxxUs92Xk3OtLXt/RIKZrEFMvo+EQeQd2HRAUmimd3ogiGKOEkYM5uZ+MYQgJRa4T2M02DWSeUOWviu/r9zFcMzcCerbvLFy5J4yZBXOMvl04qRcieiHgR23rNSgfYFYAPG/iwaVAx5WENpkbyEWSY84UJPlyx6FHebOBYV3ADpryN8mp30xsvTVJs7zaMnG0U2DjS3rOc4KXlBB7/Z31LlyRBEUGyXcyB6IIS3XrvEiOsIgscQYQF3BceHgxrOrVGElNRIooHPJd5mLrefCcJW+v9973ENmoWQrqIgp+48uBnBxKmEwOOpoTPHy87lrji9z0CDwX3MVCRaMHXPNt2uRxh4euCpYHEaLeKo1Hlb+BmTjxYcuKbXnJgK49O3pPxHyvHRw7mFVosPi4+cPdjFdwCI0kQCjF3YIaEJeHLmzvyErTjANtVkVJszYA4AmyQhefLDWIE8JwoEuSngz1LShyczIklpkLqaOtOBXccxXN5F4ufeJ5xkx8+MOQitvWEly+bisJfHHHZaBIXvvIUk1Y4wFF0c+J7F0MzyMnlP1Ispn/FcudLF/qIyc/3FTnULLDxcokptr/9w6cDDL6+m9AIhsKLLVc2fMRorCMdKd0laTvKkaQozn6fD8j4vJUEERPWGgL8CISYZ6eAOxEUkI81fr4x1pHwEPdtkz2BCYK0RCXk84wI4hi+gLh8TikMP/YKK1HvGlM8nCRsZ+MhLi5sNJ7YcK0pmmfiKbL4tMBJnnzxUBRzOCsKG764yE9jGOL0Ryr48qAzrHKVHyz3GhsHcWo4ecDC1b0id7rAEld8seknZ7Fobb2xCl7SnARjXKEk388E8wDMSZS9pJEgtqZRDO9ESGANVEK6Dg57zy6JhEcAX/pOxpHlGQ5OYnpm7zjss9qx7Vksoiikd8la46shHNUV0bOc48GXsPKEXy4atotocuUjhtw7VWiSdp1eMBSXv2Ljzp9dvz744VJB5WvIrw1kna+i4slGDDuYn+IqtHk2Npt3GP9vwX0WKJJEACAqmbpIsUoWKGHbUQJLQoKC8mdLQAkh66SwhjB/RNmfjKISg62YimPN0Uco8wR2R14cAw7RagC+8PiyV2Cx4cnB9w/zckzIMOQCF2+28hEbPv+EhMnfGmz/no6XSzN2YsBviFuz4YanjeR0wB1njWceJm3o3l/kaEx7c7iwZ4urq4bT2BqVbpoajiFnNo0z586d+5/x8mQT/9z/1gr8ryP96b91iv8kt1fg6f8AonbH5ioVY/oAAAAASUVORK5CYII=;aspect=fixed;imageBorder=#000000;" parent="1" vertex="1">
          <mxGeometry y="415" width="110" height="110" as="geometry" />
        </mxCell>
        <mxCell id="OUMXYwsHuOzbVERew2cC-82" value="" style="shape=image;verticalLabelPosition=bottom;labelBackgroundColor=default;verticalAlign=top;imageAspect=0;image=data:image/png,iVBORw0KGgoAAAANSUhEUgAAAIcAAACECAYAAAC6czikAAAAAXNSR0IArs4c6QAAAIRlWElmTU0AKgAAAAgABQESAAMAAAABAAEAAAEaAAUAAAABAAAASgEbAAUAAAABAAAAUgEoAAMAAAABAAIAAIdpAAQAAAABAAAAWgAAAAAAAABIAAAAAQAAAEgAAAABAAOgAQADAAAAAQABAACgAgAEAAAAAQAAAIegAwAEAAAAAQAAAIQAAAAAbqaz/wAAAAlwSFlzAAALEwAACxMBAJqcGAAAGU5JREFUeAHt3UeoZcUWBuDqts05Z73mnHNuU6sgiIqOFBQRBRUd6fDhyIlTRyKigjhQHIiYtVXEHNscrznnnN/56rnuOW4MKO89Vl2rYN8dKp76//WvVXvvc+6cu+++e34p5V+jrac+A5MzcP680RlizJ+82o/7DJgB5KjpyiuvLE888USc9v0/cAZ++OGHcuKJJ5YddtihfvoZciDGokWL/oFT0j9yzMB3331XFixYEKdl7sxRP+gzMJiBTo7BhPTT8Qx0coznoh8NZqCTYzAh/XQ8A50c47noR4MZ6OQYTEg/Hc9AJ8d4LvrRYAY6OQYT0k/HM9DJMZ6LfjSYgU6OwYT00/EMdHKM56IfDWagk2MwIf10PAOdHOO56EeDGejkGExIPx3PQCfHeC760WAGOjkGE9JPxzPQyTGei340mIFOjsGE9NPxDHRyjOeiHw1moJNjMCH9dDwDnRzjuehHgxno5BhMSD8dz0Anx3gu+tFgBjo5BhPST8cz0Mkxnot+NJiBWUWOn3/+efDxfn36Z/m/Lt3PZg05AD9nzpy6gTWI4FqkOI68uP5H+6jz008/zbT5R+VnU97Md2Vb/1BABGCA6HyxxRabueY8gEaOuXPnzpy77kvE0mQdZaQg07BezZzFf5oiB3AC4ElMXLctvvjiZd111y2rrrpqeffdd8t7771XybHKKqvU/E8//bSsvPLKZaWVVipvvvlm+fLLL2t76m644Ya1/uuvv17mzZtXVlhhhfLVV1+Vzz//vCy77LJl9dVXr12+//779fpvjWNyTLPhuAlyAI8iSJMW7zqQfvzxx7LMMsuUww8/vJx88slltdVWK88991x54IEHKhn22GOP8uKLL5b77ruv7LLLLmWLLbYol156abnpppuKb5Zvv/325YwzzijLL798ufbaa2t7W2+9dfn4449rPeTabLPNKnkeffTRcuedd5YPPvigjsWYJokSY3Utrsde2ZZSenKY7KWXXroCapKBE6SIiUaGnXfeuRxxxBFl0003rfl77rln2XHHHcsSSyxRQQfuYYcdVkn00Ucflf3337+qB5D9JsXBBx9cwVxvvfXKU089VagMBdpqq60qSbRDcRDps88+q79lgjzckfFI9urYqJY2Wk6pyUEtxACs/dRTTy0PP/xwefbZZ8s333xT55yKbLvttuW0004re+21V73OLUhrrLFGrYsIlIWrQC6AcTmUBqmkNddcs3zxxRd1+/DDD8snn3xS21JGXXlLLrlk3QB/7LHHlt12263ceuut9TdNvv3229q28ay//vrlkEMOqeQZ/aRW+frrr2cUpHbW0J905AAgC7SR8/nz55ejjz667LrrrhXMtddeu1x11VVVQcQC1AEYwHvjjTdqHIEIEqsWM2hTvniB1QNMHoC5FbEFEqlHSdQRvyCJuAQZ5SmLLEiw1lprlS233LJMT0/X9sQo1Gq77bYrxkhp9PvYY4/VNsMtGpfrLaR05AhimDzH33//fXnnnXfK22+/XYlA2u+9996qIgAGHnkXMLJqwAMRyEANYOUDVXvaFYCycsfUhmLIQxSxBxKoa49YFCzqyge2vuRrY7nllqtthkt56623quJEnRbIMBxjOnKY9JhwgF1//fXVlZx77rnV/7No8QEVeOGFF6oFUxDWiCgBIssVeAKb7CszSRRkUVZ73Io8hAp1UIdaLLXUUmXFFVes9bWlH4AbI0JwPdrafffdy+abb14ViQrdf//95eWXX65lg+jqImgrKR05AMVVAMmKg7STefJtA6jA0pJVDHLAAQdUgIBLQQAn3lhnnXVqPUtWxKA+oRACXOQBrmOEDLcBQPWBj2xBLiTSt4Q4+tPHPvvsUwNVgSsFEZ9QNBsicDexfEboWF7rJ3tKQw4TG8vRM888s4Lz2muvzSw577rrrroSoQYm3S/esVRkQCQAiwOoDRIhg3JIIB/JWDiiAD6ui1PkKY9cxkEp7F1HAqQIlVGXOxG7uLbBBhvUftRFmiCyoJcLPOigg6r7okDPPPNMueOOO2p8k50YxpdK46iGIBHQ/DzLBLjAlAu5+uqrq2UCT+IGSPdLL71UwQJMrCwQgTUDL5SB9WvXKgW4jz/+eCUF8rB0AOoTqZBMW5QDGQBvY/2snnIZl2P5lMfx888/X0ngWD+UQ0JiCiImURb5sqc0ymEyAeL3UJ988sly3HHH1Yk84YQTyjHHHFMWLlxYXnnllWqtSMBSWS7XABx1AW7y3auwB65AlvWrA1yKgTg290S4lbgfYQyOKdgmm2xSSUIB1NE28iAEctpzERSHGhmLcgju2KrFGJDLWJGGW0MuZNVX9pSGHCYKAO4NmED3LQBgWcjigew6grDIyQATCOIEIJh4AHNJSMNyqQd1sIKQqIcVhz2LZsnq2xsDIok3JK7BOOwRCQmplfstyKYPqqMO0iiDdBSPAsnXB/eFIBGL1MaT/0lFDnMVALn1HW6AlbunsNFGG9XpZHXAYLXUQR0uxsQH2MijnrxYxSARq0YAgSpy2MQRgAa8PYJpG7BIJFEfqxBqEWXk2fSpXeNFMqSgOMqHahmvJK+VlIocIbUU4rLLLiu33357OfTQQ8tRRx1VgaYCVCGUASAsFCnkIQTgSblzpAAwa0YAboEbCtfiujIsmjIBDtDaUEaMIDZwHtfUR1JKhEzGoj9tIypi2SR5bvcjGpLE9U6OvzkDEaixNC6EhLNCoAHYdXtKIjZwnYWqJw9AgCTjwN94443rnksBqPIsHPjq6QPICAZAqoCkFAURQlV8HHX1oR0uBPEolvYQ03iscLSLaI61bUzaDPL/zan5v1dLpRw+fUwgVQDCwlEgajVi2Xr88cfP3L0UR5j86dGyFYDiAgRxDCSK4pxVKwdIbsY1LgUZEACBAOtYfIMcwLVHMCSiQgCmaNo3LirgWD39UY5wg6+++mqZHo1Lv60SAxbpyGFQk8nkekoKCFYYdzNZPKulEqx4amqqHgMEUZADwOoDUGyACM65C0tWoGvTPwWgTsrZtBnuwR6hKIHyNoTRDwJ72ktxoo4+uZMgYCiGvXZaSunJARSbYBIBWDwf7tkIlyGP3Nsch7vgRgSjnp+oG65GOQoBXEoAWIQAuvPoCynkIaCyyKQuVZGUV0856kQ1xC/IYQz6Vj6UsDVi+IzpyWFSWajNhFMOoLgJRQ2QgNULKEl7WDyA1EEKCejassSlHu6FAI4iKatNJHBOWQDtOOrqQ7whqUeFKARCaRdZuCeEiDLK2YIYjltKqckRkwpwz1luuOGGctJJJ9XYATjiCAABnntAhm222aa6FARAGHWVY93IdOCBB1a3gxBig6effnqGCLHisFzVpj5cQxrtOEZOLgsp3FehXkjhXDnk41IQy3h8htZIEQROTQ6DBIgbYoJRN5cAzIrJ++TNMHEHwIHCFQAOWK5L5B5YrlMFgD300ENVeeLRvbriFX0IOikFUlAVbsOmvva5N4EolTEW5FBfW1wQMlvGUq5OjgrBf/ePSQVCSDxLBjZrDFVwTjVYurIebklAc1dTAjALBzpFIf1IF7EId6VNCoAA1Eif1MYYuAzEQgKE0WfEG575uKaedhDERq2Mp+WUXjlM8IMPPliBOeecc2qsYcIBCxDBKVUAIFCAqg4ycAGs3IYUgA7CUBUkUVfcgkDhAhBN0OoVRNfk24JA9lSDymjDOLSLpMo98sgj9f6JcbSqGuY4NTmAYOLd8PIOh1vT/LlEBSgJCQckKxdDsFh5wCb1ylMCxOGOKIY2uQ1gsnruiTIAWl0KAFQEsCpCPORSz5jEFepREufqIak2jdGLP8ZGVUJ96qAb+5OaHAACMisHApDIOYABwZ9TBwAAXsxBUQDJvViKAp0biOASwMAUOwgstRluRBnWDnjEUN9mDNp2U4zS2CK+oTLyI45BLnnGZIwtp9TkiIkFmBWECQc+8BAG0ICiCsjjDqgk3/dUkIv0qwdkcQgiqANMJAIgcJVxDdjKIp72qQsiIZ8+4sGautrSB5eCgEjnOmXRVuspNTmAQRlOP/30+n4HILgN7kJAykKBp4xNHqWI4BMJJBYPcPWpDjJoG4DIoQ5isXrXuQjKgYjURB/qh+oEubSnrjzXkMOxB3NclfdIEUV/LabU5DChZH9qdGc0bjCxcNeoCSuNFUa8SAN8z12AC3jlAQV4Vh9xRgSv9qxeO5QlYhZlPXizIRElUZYqaRcBwn0giUBUOWTi+rTpmZCYp5Pjv2QaLDfchMCQ9QLNJAPGRAPMO6TKAhNJgBMEYOHIQwHUYdE2gSsgWXO4C32FwnAd+uQuKADCREwBcP3oEwG5NfXcaTUW49MfEukLSRCEshijcTu2tZLSKYcYwVcOTaYJ97qdl4qtDEwysFkoAgAWYDZxAdeCTFRDeSDKc85tIBUX4xryIAHQ4yGdawClCgBGliBBEEY+4KNd9cU3xoZIxqQukvksxuSurb3ViweG8pE0e0pFDpPrLujZZ59dgTSR7jhyDcjgGIBAZsHTo8fiNsBQDUBpA3Ak3f0NIAFfvqWujcWrbxkMbPVCrSgG60ZCsY325COMvpEQObUrTY/6D7Jpg6sxVn14zWDvvfeuX7UwhosuuqhcccUVlXDZiWF8qcgBMBMPQGCYXPFFBHzci1gAGbzDyTUAg0J4EAdsYLJ2IIb1Kk9JyL46lASg8V1WSkWhkIJb8IqAOsBWVh/iFv0gqjIII/ZQxjkyyacqymgLIX0mfcV3ZoKEXTn+hnmQ8ptvvrnMH31Hlj8n50AmxQGCCQcyEIBhKema5xms23V7YLF+iTUrC2SgIiGyWCIjIktXL1SFW1MHiECmVsaBFPKiD3GJc+NTHvjqaMcYlVfWG22UUN8tEMOcpVIOk2xC/Y4G0KiBeANJAAuciBPCcpHCNUvbuPeBFOrYuxlGBaZGKx4xgD4A6KsH4hAK41v8+tUGUmlbX4jElenbph/gUqcgIddlDNwhkmlfrGQs1EOgvGjRokpEioQ0raRU5GBRJpoLYPEA4kaoyL777lsVQhmAkHsbMIDP9QCV6xFHABAJEEx7AlFta9MPsyALMJUBmEAWeZTTvmuIoz8qQ53EDdrTjzKIoi9jVJeyKWujgOIeLpJbMR5bfMYWCJKKHCYsJg+IgKcglp6WoaQdCeKGFTAAT9IRBUn4/nApyOBYm0jA8rWjPlXRvvLqI4tN3AJ41g9kpFEeWcUN2qMK6nEj8rkWY0EW/YhREGt6FKwab7gn44nPWA+S/0lHjsnJAyppNvk2Vgoox4ADKqsVtEosFSjyWbINuSw1uQgP8BAMWBEjcBcARCztUBOAO+dmfPtOH/pDRMdcjbaVCTXSvnMk0Z6xI7i9FMSoJ438SUmOybkzuayUTLNMVm2igzTAFfDZIh6wZ92uKSduQQouh+VTEACqiyiAdg2xgjyI6JhiuD9BZVxTX3zi3LH27dVFRH0650qUaTmlJgdisHBvh19wwQX1ZtJOO+1UQeW/pUlCsG7ngAYOcP1W2NTIXUhcSYBG/hFNGUqBLPpCPG7Bl7CV92VrLsZYKIvYQ8yhD2TQjrr6daxs3IEVt4Ry1AE09ic1OcylySXXIn3gu/chKGShJByAQIv7EVyBRC24CHlAB7i2LEu1x/pdj8AVwFSAK5CPOFTFKsR1fWsjAl6qQFWUVc57H1ZIrsWqp2VimMP05DBIiYWzZktQ8o4UAAMMkrBSQLseRAi5BxJFcC4PgK4JPimAmESeutoQsyinbQGsvXsoiMC9WZ7ac11cE8L6zTLtURMvLVOP1lMz5GCpAkKTDxAyzvKBGysUsk7yAUsBIj4BknNJmSAGImhXWxL14HbUV446iSW0g1D6Ukd5RPLMhJJwNdTFMtjNLvVmQ2qCHMCkDFyL1YoVA0C4CD4eMEBi2TYAh/sAFCVwjwKwAJx0CUDUHpeAENRIe+KQWK5GcGrlQjWQh1JQDARFVtf8eO2NN95YyWTMracmyGGSTTZQuRD7+M0N51wGYIGJAKxaQgxEcU2eMsoiizIUgRpYhsbdUKqgPJJFnQhsEYwyINPUKMgN8hgLt6R9m/Fpo3WCNEUOquEhmRiAYgAfuKwXqCwY+IABkHx7BBEkci3Akw9wBJGnvrLAtmkHgagRAnFn3JXNy8OWvupRGe1xOQjjx+N8F0awy0V1clQb/d//ASjArD5IODLEvQwgAY4rARarl49EXATCIAZXhEzAlK8d5Il6HozpQ1seygW5xB0IFCsVxwijrWgfGbSHJEjnvPXUjHIAhPVbNZBxoAKdFSMHsAEmAdfSFjmCJICzwgAoFyBRD6RDgrixRTW0hxzIwN1I+g9yydeeuEQ/9pRETOQXi/UxG1JqcgDfBggkABarpBgSNQgLRQKqoSxyANM1mzZIPFAdu4YMzpEj3AwFUR/QiGMZK89bXOrrl+oIUN3XoDL6QS6EU969FeeIyEW1nFKTAyA2scaCBQsqIMACLjCoB0LEsbLOBanKyUcgQJN/90mce4xPEZQRu1ipABUpwuVwD5RIeWqCTFYq+qYUSIYE2oibcG68nXXWWXU8l1xySbnuuuuqizOuFlNqcgAXqG4uedgFCAACCAkkINmASPatKMQcnqCqz8q5FwmYfmzFAzhLY9ZNLagSKw+35FrccdW/DeHEHtpyrD9joBzIiWzaRERkFrha2iqrTosESUsOkwk09xJYJGJYOQDeMcAAZO+cdZN/ILF+18m+dgAPICByOdqQEEk5cQJ34j0PxNCeuhJXgmRIoC3HyOkY8YCPnGIU46Mq6iDzkUceWV9FnB49uo86tdFG/qQkh8kWW3jI5r8vUYsIGCMuYKWAjQQ0SuA+hDgESNyF68oCm3Joi8KwbiTQlwAXUaZ+eUCnXUQCfGzaCfekvnEAPNpHOAR0XdLmeeedV3+R+cILL6y36GOsrez/82gz4WgpAeujDqyWZbNWgNpcj+Q6ArBcgAGJ5CNLuArXuQUqQj3U8S+7Lr744rq6oFL6ATZiII0+EQ0xrUAQwLgQT55r8vXtXJyi3RiP8h4SThIxxtzCfjzDyUYLHIDGsjGGJxYw+QgAUFbuVTx71wAPXERgxTYkoUQIA0gEoQj+64IXhLyCKI9rUB/QCKF/benTHnGCPMaFTIiiX8eIou2oYwwCXn22mFKSg3X6viugTK5J91UEZPDP/OImU5DBOZehHitFLMCEFVMaVh6rCwrj33accsop9d6Jdz60oQzSIAeAuSBkoFJcSQS3SKMcIji2WjFWJPBrPrfddlvZb7/96rskXJHvrnhg6LlOSykdOQBrC0BYpJWHl26QAQAmG1DynANTEIgQrJ+KIITy8qgCgpF5IALc9alRjCEWiUfwyiOQfG0oqx8E0A+ySM4RyR4B9UtdvJR0zTXX1Bt1rls6W2lFcNsSMYw1HTkMChAmOl6aYaWuAde7EkAFGssNn49QwGTxfD9Q5Is55LF8AEr23II7mt7l4Bq0F8Sx6rFRE30iihtwCGscxqUsxQh3Y4x+gUhAjFz+Pwy106/VE+VoLaUjB4uTgDI9WgJKVMB1IIsF7rnnngq6u5TuSiKA2AKYVAIg3rVQ3ndgXAO+uhTGb52zeooEVMtlCZm4JmSQxCqARhRKY6NW1EUZwWaMx88tILR84zV+z2qMwXl8htpwI3/SkSPmDRkCpMlrQHWHUywyf/R9FlYPfOUBCQxqwr8jBGARIFwFgIHrTS3qoS7CIBclsElcDdIZA3cinyJRDpt6VMIXli6//PKqaOoFuX9r/PJbSmnJMZxEoNtMOisEsO+6cjNuXgkqyb4yCARwpCD7fD4wEUR9Mn/LLbdUgikriPVPBZENAZQXR6jDnaiDcOKMIKBH8/4ll5WSADfGNhx3y+fNkANAtkiAI+lI4n6IxKKBBEDkkBcxA+IgiusA5VK4EUSjMtwPIiAL90QxnMczGCpj007EI9qgQMoOxxfjbHnfDDmGkwwMoFhhANHSF9jACpKoowxCIJKVjDiGciCXvEi+m0IB/Lyk5yJeKqIgFAMptIk03BiCxNZiLBGf+c/2zZIjPhhLt0oAtgCVNYsXgCrmECsghfiAW6AeAeikK3CMHB6Wedbi1r3/MK1dSiNf4Ioc4gxKI2DV1mxNTZODesR9EISIpSp3ggSUwcbNAFl5Fi9NEiPADaApzcLR/3mxKlIXASU3tCKgdW02upKYC/umyeEDBEDAtqoI0MNlIIkUwNeT0R/1fi9FWcSTglDiF8RTN8r8Xhuz4Xrz5JgEIYgyvDZ5/leOhwT6rfb/SnutlZ29DrM1JBKOt5MjIShZhtTJkQWJhOPo5EgISpYhdXJkQSLhODo5EoKSZUidHFmQSDiOTo6EoGQZUidHFiQSjqOTIyEoWYbUyZEFiYTj6ORICEqWIXVyZEEi4Tg6ORKCkmVInRxZkEg4jk6OhKBkGVInRxYkEo6jkyMhKFmG1MmRBYmE4+jkSAhKliF1cmRBIuE4OjkSgpJlSJ0cWZBIOI5OjoSgZBlSJ0cWJBKOo5MjIShZhtTJkQWJhOPo5EgISpYhdXJkQSLhODo5EoKSZUidHFmQSDiOmd/n8BtYPf2zZ8AP3fgxvEhzRj/XeMfoZH5c6Ps+A7/MwELKcX6fjj4DvzED5/8ba99SAiWEzIoAAAAASUVORK5CYII=;" parent="1" vertex="1">
          <mxGeometry x="695" y="400" width="110" height="110" as="geometry" />
        </mxCell>
        <mxCell id="OUMXYwsHuOzbVERew2cC-83" value="" style="shape=image;verticalLabelPosition=bottom;labelBackgroundColor=default;verticalAlign=top;imageAspect=0;image=data:image/png,iVBORw0KGgoAAAANSUhEUgAAAIcAAACECAYAAAC6czikAAAAAXNSR0IArs4c6QAAAIRlWElmTU0AKgAAAAgABQESAAMAAAABAAEAAAEaAAUAAAABAAAASgEbAAUAAAABAAAAUgEoAAMAAAABAAIAAIdpAAQAAAABAAAAWgAAAAAAAABIAAAAAQAAAEgAAAABAAOgAQADAAAAAQABAACgAgAEAAAAAQAAAIegAwAEAAAAAQAAAIQAAAAAbqaz/wAAAAlwSFlzAAALEwAACxMBAJqcGAAAGU5JREFUeAHt3UeoZcUWBuDqts05Z73mnHNuU6sgiIqOFBQRBRUd6fDhyIlTRyKigjhQHIiYtVXEHNscrznnnN/56rnuOW4MKO89Vl2rYN8dKp76//WvVXvvc+6cu+++e34p5V+jrac+A5MzcP680RlizJ+82o/7DJgB5KjpyiuvLE888USc9v0/cAZ++OGHcuKJJ5YddtihfvoZciDGokWL/oFT0j9yzMB3331XFixYEKdl7sxRP+gzMJiBTo7BhPTT8Qx0coznoh8NZqCTYzAh/XQ8A50c47noR4MZ6OQYTEg/Hc9AJ8d4LvrRYAY6OQYT0k/HM9DJMZ6LfjSYgU6OwYT00/EMdHKM56IfDWagk2MwIf10PAOdHOO56EeDGejkGExIPx3PQCfHeC760WAGOjkGE9JPxzPQyTGei340mIFOjsGE9NPxDHRyjOeiHw1moJNjMCH9dDwDnRzjuehHgxno5BhMSD8dz0Anx3gu+tFgBjo5BhPST8cz0Mkxnot+NJiBWUWOn3/+efDxfn36Z/m/Lt3PZg05AD9nzpy6gTWI4FqkOI68uP5H+6jz008/zbT5R+VnU97Md2Vb/1BABGCA6HyxxRabueY8gEaOuXPnzpy77kvE0mQdZaQg07BezZzFf5oiB3AC4ElMXLctvvjiZd111y2rrrpqeffdd8t7771XybHKKqvU/E8//bSsvPLKZaWVVipvvvlm+fLLL2t76m644Ya1/uuvv17mzZtXVlhhhfLVV1+Vzz//vCy77LJl9dVXr12+//779fpvjWNyTLPhuAlyAI8iSJMW7zqQfvzxx7LMMsuUww8/vJx88slltdVWK88991x54IEHKhn22GOP8uKLL5b77ruv7LLLLmWLLbYol156abnpppuKb5Zvv/325YwzzijLL798ufbaa2t7W2+9dfn4449rPeTabLPNKnkeffTRcuedd5YPPvigjsWYJokSY3Utrsde2ZZSenKY7KWXXroCapKBE6SIiUaGnXfeuRxxxBFl0003rfl77rln2XHHHcsSSyxRQQfuYYcdVkn00Ucflf3337+qB5D9JsXBBx9cwVxvvfXKU089VagMBdpqq60qSbRDcRDps88+q79lgjzckfFI9urYqJY2Wk6pyUEtxACs/dRTTy0PP/xwefbZZ8s333xT55yKbLvttuW0004re+21V73OLUhrrLFGrYsIlIWrQC6AcTmUBqmkNddcs3zxxRd1+/DDD8snn3xS21JGXXlLLrlk3QB/7LHHlt12263ceuut9TdNvv3229q28ay//vrlkEMOqeQZ/aRW+frrr2cUpHbW0J905AAgC7SR8/nz55ejjz667LrrrhXMtddeu1x11VVVQcQC1AEYwHvjjTdqHIEIEqsWM2hTvniB1QNMHoC5FbEFEqlHSdQRvyCJuAQZ5SmLLEiw1lprlS233LJMT0/X9sQo1Gq77bYrxkhp9PvYY4/VNsMtGpfrLaR05AhimDzH33//fXnnnXfK22+/XYlA2u+9996qIgAGHnkXMLJqwAMRyEANYOUDVXvaFYCycsfUhmLIQxSxBxKoa49YFCzqyge2vuRrY7nllqtthkt56623quJEnRbIMBxjOnKY9JhwgF1//fXVlZx77rnV/7No8QEVeOGFF6oFUxDWiCgBIssVeAKb7CszSRRkUVZ73Io8hAp1UIdaLLXUUmXFFVes9bWlH4AbI0JwPdrafffdy+abb14ViQrdf//95eWXX65lg+jqImgrKR05AMVVAMmKg7STefJtA6jA0pJVDHLAAQdUgIBLQQAn3lhnnXVqPUtWxKA+oRACXOQBrmOEDLcBQPWBj2xBLiTSt4Q4+tPHPvvsUwNVgSsFEZ9QNBsicDexfEboWF7rJ3tKQw4TG8vRM888s4Lz2muvzSw577rrrroSoQYm3S/esVRkQCQAiwOoDRIhg3JIIB/JWDiiAD6ui1PkKY9cxkEp7F1HAqQIlVGXOxG7uLbBBhvUftRFmiCyoJcLPOigg6r7okDPPPNMueOOO2p8k50YxpdK46iGIBHQ/DzLBLjAlAu5+uqrq2UCT+IGSPdLL71UwQJMrCwQgTUDL5SB9WvXKgW4jz/+eCUF8rB0AOoTqZBMW5QDGQBvY/2snnIZl2P5lMfx888/X0ngWD+UQ0JiCiImURb5sqc0ymEyAeL3UJ988sly3HHH1Yk84YQTyjHHHFMWLlxYXnnllWqtSMBSWS7XABx1AW7y3auwB65AlvWrA1yKgTg290S4lbgfYQyOKdgmm2xSSUIB1NE28iAEctpzERSHGhmLcgju2KrFGJDLWJGGW0MuZNVX9pSGHCYKAO4NmED3LQBgWcjigew6grDIyQATCOIEIJh4AHNJSMNyqQd1sIKQqIcVhz2LZsnq2xsDIok3JK7BOOwRCQmplfstyKYPqqMO0iiDdBSPAsnXB/eFIBGL1MaT/0lFDnMVALn1HW6AlbunsNFGG9XpZHXAYLXUQR0uxsQH2MijnrxYxSARq0YAgSpy2MQRgAa8PYJpG7BIJFEfqxBqEWXk2fSpXeNFMqSgOMqHahmvJK+VlIocIbUU4rLLLiu33357OfTQQ8tRRx1VgaYCVCGUASAsFCnkIQTgSblzpAAwa0YAboEbCtfiujIsmjIBDtDaUEaMIDZwHtfUR1JKhEzGoj9tIypi2SR5bvcjGpLE9U6OvzkDEaixNC6EhLNCoAHYdXtKIjZwnYWqJw9AgCTjwN94443rnksBqPIsHPjq6QPICAZAqoCkFAURQlV8HHX1oR0uBPEolvYQ03iscLSLaI61bUzaDPL/zan5v1dLpRw+fUwgVQDCwlEgajVi2Xr88cfP3L0UR5j86dGyFYDiAgRxDCSK4pxVKwdIbsY1LgUZEACBAOtYfIMcwLVHMCSiQgCmaNo3LirgWD39UY5wg6+++mqZHo1Lv60SAxbpyGFQk8nkekoKCFYYdzNZPKulEqx4amqqHgMEUZADwOoDUGyACM65C0tWoGvTPwWgTsrZtBnuwR6hKIHyNoTRDwJ72ktxoo4+uZMgYCiGvXZaSunJARSbYBIBWDwf7tkIlyGP3Nsch7vgRgSjnp+oG65GOQoBXEoAWIQAuvPoCynkIaCyyKQuVZGUV0856kQ1xC/IYQz6Vj6UsDVi+IzpyWFSWajNhFMOoLgJRQ2QgNULKEl7WDyA1EEKCejassSlHu6FAI4iKatNJHBOWQDtOOrqQ7whqUeFKARCaRdZuCeEiDLK2YIYjltKqckRkwpwz1luuOGGctJJJ9XYATjiCAABnntAhm222aa6FARAGHWVY93IdOCBB1a3gxBig6effnqGCLHisFzVpj5cQxrtOEZOLgsp3FehXkjhXDnk41IQy3h8htZIEQROTQ6DBIgbYoJRN5cAzIrJ++TNMHEHwIHCFQAOWK5L5B5YrlMFgD300ENVeeLRvbriFX0IOikFUlAVbsOmvva5N4EolTEW5FBfW1wQMlvGUq5OjgrBf/ePSQVCSDxLBjZrDFVwTjVYurIebklAc1dTAjALBzpFIf1IF7EId6VNCoAA1Eif1MYYuAzEQgKE0WfEG575uKaedhDERq2Mp+WUXjlM8IMPPliBOeecc2qsYcIBCxDBKVUAIFCAqg4ycAGs3IYUgA7CUBUkUVfcgkDhAhBN0OoVRNfk24JA9lSDymjDOLSLpMo98sgj9f6JcbSqGuY4NTmAYOLd8PIOh1vT/LlEBSgJCQckKxdDsFh5wCb1ylMCxOGOKIY2uQ1gsnruiTIAWl0KAFQEsCpCPORSz5jEFepREufqIak2jdGLP8ZGVUJ96qAb+5OaHAACMisHApDIOYABwZ9TBwAAXsxBUQDJvViKAp0biOASwMAUOwgstRluRBnWDnjEUN9mDNp2U4zS2CK+oTLyI45BLnnGZIwtp9TkiIkFmBWECQc+8BAG0ICiCsjjDqgk3/dUkIv0qwdkcQgiqANMJAIgcJVxDdjKIp72qQsiIZ8+4sGautrSB5eCgEjnOmXRVuspNTmAQRlOP/30+n4HILgN7kJAykKBp4xNHqWI4BMJJBYPcPWpDjJoG4DIoQ5isXrXuQjKgYjURB/qh+oEubSnrjzXkMOxB3NclfdIEUV/LabU5DChZH9qdGc0bjCxcNeoCSuNFUa8SAN8z12AC3jlAQV4Vh9xRgSv9qxeO5QlYhZlPXizIRElUZYqaRcBwn0giUBUOWTi+rTpmZCYp5Pjv2QaLDfchMCQ9QLNJAPGRAPMO6TKAhNJgBMEYOHIQwHUYdE2gSsgWXO4C32FwnAd+uQuKADCREwBcP3oEwG5NfXcaTUW49MfEukLSRCEshijcTu2tZLSKYcYwVcOTaYJ97qdl4qtDEwysFkoAgAWYDZxAdeCTFRDeSDKc85tIBUX4xryIAHQ4yGdawClCgBGliBBEEY+4KNd9cU3xoZIxqQukvksxuSurb3ViweG8pE0e0pFDpPrLujZZ59dgTSR7jhyDcjgGIBAZsHTo8fiNsBQDUBpA3Ak3f0NIAFfvqWujcWrbxkMbPVCrSgG60ZCsY325COMvpEQObUrTY/6D7Jpg6sxVn14zWDvvfeuX7UwhosuuqhcccUVlXDZiWF8qcgBMBMPQGCYXPFFBHzci1gAGbzDyTUAg0J4EAdsYLJ2IIb1Kk9JyL46lASg8V1WSkWhkIJb8IqAOsBWVh/iFv0gqjIII/ZQxjkyyacqymgLIX0mfcV3ZoKEXTn+hnmQ8ptvvrnMH31Hlj8n50AmxQGCCQcyEIBhKema5xms23V7YLF+iTUrC2SgIiGyWCIjIktXL1SFW1MHiECmVsaBFPKiD3GJc+NTHvjqaMcYlVfWG22UUN8tEMOcpVIOk2xC/Y4G0KiBeANJAAuciBPCcpHCNUvbuPeBFOrYuxlGBaZGKx4xgD4A6KsH4hAK41v8+tUGUmlbX4jElenbph/gUqcgIddlDNwhkmlfrGQs1EOgvGjRokpEioQ0raRU5GBRJpoLYPEA4kaoyL777lsVQhmAkHsbMIDP9QCV6xFHABAJEEx7AlFta9MPsyALMJUBmEAWeZTTvmuIoz8qQ53EDdrTjzKIoi9jVJeyKWujgOIeLpJbMR5bfMYWCJKKHCYsJg+IgKcglp6WoaQdCeKGFTAAT9IRBUn4/nApyOBYm0jA8rWjPlXRvvLqI4tN3AJ41g9kpFEeWcUN2qMK6nEj8rkWY0EW/YhREGt6FKwab7gn44nPWA+S/0lHjsnJAyppNvk2Vgoox4ADKqsVtEosFSjyWbINuSw1uQgP8BAMWBEjcBcARCztUBOAO+dmfPtOH/pDRMdcjbaVCTXSvnMk0Z6xI7i9FMSoJ438SUmOybkzuayUTLNMVm2igzTAFfDZIh6wZ92uKSduQQouh+VTEACqiyiAdg2xgjyI6JhiuD9BZVxTX3zi3LH27dVFRH0650qUaTmlJgdisHBvh19wwQX1ZtJOO+1UQeW/pUlCsG7ngAYOcP1W2NTIXUhcSYBG/hFNGUqBLPpCPG7Bl7CV92VrLsZYKIvYQ8yhD2TQjrr6daxs3IEVt4Ry1AE09ic1OcylySXXIn3gu/chKGShJByAQIv7EVyBRC24CHlAB7i2LEu1x/pdj8AVwFSAK5CPOFTFKsR1fWsjAl6qQFWUVc57H1ZIrsWqp2VimMP05DBIiYWzZktQ8o4UAAMMkrBSQLseRAi5BxJFcC4PgK4JPimAmESeutoQsyinbQGsvXsoiMC9WZ7ac11cE8L6zTLtURMvLVOP1lMz5GCpAkKTDxAyzvKBGysUsk7yAUsBIj4BknNJmSAGImhXWxL14HbUV446iSW0g1D6Ukd5RPLMhJJwNdTFMtjNLvVmQ2qCHMCkDFyL1YoVA0C4CD4eMEBi2TYAh/sAFCVwjwKwAJx0CUDUHpeAENRIe+KQWK5GcGrlQjWQh1JQDARFVtf8eO2NN95YyWTMracmyGGSTTZQuRD7+M0N51wGYIGJAKxaQgxEcU2eMsoiizIUgRpYhsbdUKqgPJJFnQhsEYwyINPUKMgN8hgLt6R9m/Fpo3WCNEUOquEhmRiAYgAfuKwXqCwY+IABkHx7BBEkci3Akw9wBJGnvrLAtmkHgagRAnFn3JXNy8OWvupRGe1xOQjjx+N8F0awy0V1clQb/d//ASjArD5IODLEvQwgAY4rARarl49EXATCIAZXhEzAlK8d5Il6HozpQ1seygW5xB0IFCsVxwijrWgfGbSHJEjnvPXUjHIAhPVbNZBxoAKdFSMHsAEmAdfSFjmCJICzwgAoFyBRD6RDgrixRTW0hxzIwN1I+g9yydeeuEQ/9pRETOQXi/UxG1JqcgDfBggkABarpBgSNQgLRQKqoSxyANM1mzZIPFAdu4YMzpEj3AwFUR/QiGMZK89bXOrrl+oIUN3XoDL6QS6EU969FeeIyEW1nFKTAyA2scaCBQsqIMACLjCoB0LEsbLOBanKyUcgQJN/90mce4xPEZQRu1ipABUpwuVwD5RIeWqCTFYq+qYUSIYE2oibcG68nXXWWXU8l1xySbnuuuuqizOuFlNqcgAXqG4uedgFCAACCAkkINmASPatKMQcnqCqz8q5FwmYfmzFAzhLY9ZNLagSKw+35FrccdW/DeHEHtpyrD9joBzIiWzaRERkFrha2iqrTosESUsOkwk09xJYJGJYOQDeMcAAZO+cdZN/ILF+18m+dgAPICByOdqQEEk5cQJ34j0PxNCeuhJXgmRIoC3HyOkY8YCPnGIU46Mq6iDzkUceWV9FnB49uo86tdFG/qQkh8kWW3jI5r8vUYsIGCMuYKWAjQQ0SuA+hDgESNyF68oCm3Joi8KwbiTQlwAXUaZ+eUCnXUQCfGzaCfekvnEAPNpHOAR0XdLmeeedV3+R+cILL6y36GOsrez/82gz4WgpAeujDqyWZbNWgNpcj+Q6ArBcgAGJ5CNLuArXuQUqQj3U8S+7Lr744rq6oFL6ATZiII0+EQ0xrUAQwLgQT55r8vXtXJyi3RiP8h4SThIxxtzCfjzDyUYLHIDGsjGGJxYw+QgAUFbuVTx71wAPXERgxTYkoUQIA0gEoQj+64IXhLyCKI9rUB/QCKF/benTHnGCPMaFTIiiX8eIou2oYwwCXn22mFKSg3X6viugTK5J91UEZPDP/OImU5DBOZehHitFLMCEFVMaVh6rCwrj33accsop9d6Jdz60oQzSIAeAuSBkoFJcSQS3SKMcIji2WjFWJPBrPrfddlvZb7/96rskXJHvrnhg6LlOSykdOQBrC0BYpJWHl26QAQAmG1DynANTEIgQrJ+KIITy8qgCgpF5IALc9alRjCEWiUfwyiOQfG0oqx8E0A+ySM4RyR4B9UtdvJR0zTXX1Bt1rls6W2lFcNsSMYw1HTkMChAmOl6aYaWuAde7EkAFGssNn49QwGTxfD9Q5Is55LF8AEr23II7mt7l4Bq0F8Sx6rFRE30iihtwCGscxqUsxQh3Y4x+gUhAjFz+Pwy106/VE+VoLaUjB4uTgDI9WgJKVMB1IIsF7rnnngq6u5TuSiKA2AKYVAIg3rVQ3ndgXAO+uhTGb52zeooEVMtlCZm4JmSQxCqARhRKY6NW1EUZwWaMx88tILR84zV+z2qMwXl8htpwI3/SkSPmDRkCpMlrQHWHUywyf/R9FlYPfOUBCQxqwr8jBGARIFwFgIHrTS3qoS7CIBclsElcDdIZA3cinyJRDpt6VMIXli6//PKqaOoFuX9r/PJbSmnJMZxEoNtMOisEsO+6cjNuXgkqyb4yCARwpCD7fD4wEUR9Mn/LLbdUgikriPVPBZENAZQXR6jDnaiDcOKMIKBH8/4ll5WSADfGNhx3y+fNkANAtkiAI+lI4n6IxKKBBEDkkBcxA+IgiusA5VK4EUSjMtwPIiAL90QxnMczGCpj007EI9qgQMoOxxfjbHnfDDmGkwwMoFhhANHSF9jACpKoowxCIJKVjDiGciCXvEi+m0IB/Lyk5yJeKqIgFAMptIk03BiCxNZiLBGf+c/2zZIjPhhLt0oAtgCVNYsXgCrmECsghfiAW6AeAeikK3CMHB6Wedbi1r3/MK1dSiNf4Ioc4gxKI2DV1mxNTZODesR9EISIpSp3ggSUwcbNAFl5Fi9NEiPADaApzcLR/3mxKlIXASU3tCKgdW02upKYC/umyeEDBEDAtqoI0MNlIIkUwNeT0R/1fi9FWcSTglDiF8RTN8r8Xhuz4Xrz5JgEIYgyvDZ5/leOhwT6rfb/SnutlZ29DrM1JBKOt5MjIShZhtTJkQWJhOPo5EgISpYhdXJkQSLhODo5EoKSZUidHFmQSDiOTo6EoGQZUidHFiQSjqOTIyEoWYbUyZEFiYTj6ORICEqWIXVyZEEi4Tg6ORKCkmVInRxZkEg4jk6OhKBkGVInRxYkEo6jkyMhKFmG1MmRBYmE4+jkSAhKliF1cmRBIuE4OjkSgpJlSJ0cWZBIOI5OjoSgZBlSJ0cWJBKOo5MjIShZhtTJkQWJhOPo5EgISpYhdXJkQSLhODo5EoKSZUidHFmQSDiOmd/n8BtYPf2zZ8AP3fgxvEhzRj/XeMfoZH5c6Ps+A7/MwELKcX6fjj4DvzED5/8ba99SAiWEzIoAAAAASUVORK5CYII=;" parent="1" vertex="1">
          <mxGeometry x="705" y="410" width="110" height="110" as="geometry" />
        </mxCell>
        <mxCell id="mlGUa6_Ni1E6CcPN0Goh-10" style="edgeStyle=elbowEdgeStyle;rounded=0;orthogonalLoop=1;jettySize=auto;html=1;exitX=1;exitY=0.25;exitDx=0;exitDy=0;entryX=0;entryY=0.25;entryDx=0;entryDy=0;" parent="1" source="OUMXYwsHuOzbVERew2cC-84" target="OUMXYwsHuOzbVERew2cC-69" edge="1">
          <mxGeometry relative="1" as="geometry" />
        </mxCell>
        <mxCell id="OUMXYwsHuOzbVERew2cC-84" value="" style="shape=image;verticalLabelPosition=bottom;labelBackgroundColor=default;verticalAlign=top;imageAspect=0;image=data:image/png,iVBORw0KGgoAAAANSUhEUgAAAIcAAACECAYAAAC6czikAAAAAXNSR0IArs4c6QAAAIRlWElmTU0AKgAAAAgABQESAAMAAAABAAEAAAEaAAUAAAABAAAASgEbAAUAAAABAAAAUgEoAAMAAAABAAIAAIdpAAQAAAABAAAAWgAAAAAAAABIAAAAAQAAAEgAAAABAAOgAQADAAAAAQABAACgAgAEAAAAAQAAAIegAwAEAAAAAQAAAIQAAAAAbqaz/wAAAAlwSFlzAAALEwAACxMBAJqcGAAAGU5JREFUeAHt3UeoZcUWBuDqts05Z73mnHNuU6sgiIqOFBQRBRUd6fDhyIlTRyKigjhQHIiYtVXEHNscrznnnN/56rnuOW4MKO89Vl2rYN8dKp76//WvVXvvc+6cu+++e34p5V+jrac+A5MzcP680RlizJ+82o/7DJgB5KjpyiuvLE888USc9v0/cAZ++OGHcuKJJ5YddtihfvoZciDGokWL/oFT0j9yzMB3331XFixYEKdl7sxRP+gzMJiBTo7BhPTT8Qx0coznoh8NZqCTYzAh/XQ8A50c47noR4MZ6OQYTEg/Hc9AJ8d4LvrRYAY6OQYT0k/HM9DJMZ6LfjSYgU6OwYT00/EMdHKM56IfDWagk2MwIf10PAOdHOO56EeDGejkGExIPx3PQCfHeC760WAGOjkGE9JPxzPQyTGei340mIFOjsGE9NPxDHRyjOeiHw1moJNjMCH9dDwDnRzjuehHgxno5BhMSD8dz0Anx3gu+tFgBjo5BhPST8cz0Mkxnot+NJiBWUWOn3/+efDxfn36Z/m/Lt3PZg05AD9nzpy6gTWI4FqkOI68uP5H+6jz008/zbT5R+VnU97Md2Vb/1BABGCA6HyxxRabueY8gEaOuXPnzpy77kvE0mQdZaQg07BezZzFf5oiB3AC4ElMXLctvvjiZd111y2rrrpqeffdd8t7771XybHKKqvU/E8//bSsvPLKZaWVVipvvvlm+fLLL2t76m644Ya1/uuvv17mzZtXVlhhhfLVV1+Vzz//vCy77LJl9dVXr12+//779fpvjWNyTLPhuAlyAI8iSJMW7zqQfvzxx7LMMsuUww8/vJx88slltdVWK88991x54IEHKhn22GOP8uKLL5b77ruv7LLLLmWLLbYol156abnpppuKb5Zvv/325YwzzijLL798ufbaa2t7W2+9dfn4449rPeTabLPNKnkeffTRcuedd5YPPvigjsWYJokSY3Utrsde2ZZSenKY7KWXXroCapKBE6SIiUaGnXfeuRxxxBFl0003rfl77rln2XHHHcsSSyxRQQfuYYcdVkn00Ucflf3337+qB5D9JsXBBx9cwVxvvfXKU089VagMBdpqq60qSbRDcRDps88+q79lgjzckfFI9urYqJY2Wk6pyUEtxACs/dRTTy0PP/xwefbZZ8s333xT55yKbLvttuW0004re+21V73OLUhrrLFGrYsIlIWrQC6AcTmUBqmkNddcs3zxxRd1+/DDD8snn3xS21JGXXlLLrlk3QB/7LHHlt12263ceuut9TdNvv3229q28ay//vrlkEMOqeQZ/aRW+frrr2cUpHbW0J905AAgC7SR8/nz55ejjz667LrrrhXMtddeu1x11VVVQcQC1AEYwHvjjTdqHIEIEqsWM2hTvniB1QNMHoC5FbEFEqlHSdQRvyCJuAQZ5SmLLEiw1lprlS233LJMT0/X9sQo1Gq77bYrxkhp9PvYY4/VNsMtGpfrLaR05AhimDzH33//fXnnnXfK22+/XYlA2u+9996qIgAGHnkXMLJqwAMRyEANYOUDVXvaFYCycsfUhmLIQxSxBxKoa49YFCzqyge2vuRrY7nllqtthkt56623quJEnRbIMBxjOnKY9JhwgF1//fXVlZx77rnV/7No8QEVeOGFF6oFUxDWiCgBIssVeAKb7CszSRRkUVZ73Io8hAp1UIdaLLXUUmXFFVes9bWlH4AbI0JwPdrafffdy+abb14ViQrdf//95eWXX65lg+jqImgrKR05AMVVAMmKg7STefJtA6jA0pJVDHLAAQdUgIBLQQAn3lhnnXVqPUtWxKA+oRACXOQBrmOEDLcBQPWBj2xBLiTSt4Q4+tPHPvvsUwNVgSsFEZ9QNBsicDexfEboWF7rJ3tKQw4TG8vRM888s4Lz2muvzSw577rrrroSoQYm3S/esVRkQCQAiwOoDRIhg3JIIB/JWDiiAD6ui1PkKY9cxkEp7F1HAqQIlVGXOxG7uLbBBhvUftRFmiCyoJcLPOigg6r7okDPPPNMueOOO2p8k50YxpdK46iGIBHQ/DzLBLjAlAu5+uqrq2UCT+IGSPdLL71UwQJMrCwQgTUDL5SB9WvXKgW4jz/+eCUF8rB0AOoTqZBMW5QDGQBvY/2snnIZl2P5lMfx888/X0ngWD+UQ0JiCiImURb5sqc0ymEyAeL3UJ988sly3HHH1Yk84YQTyjHHHFMWLlxYXnnllWqtSMBSWS7XABx1AW7y3auwB65AlvWrA1yKgTg290S4lbgfYQyOKdgmm2xSSUIB1NE28iAEctpzERSHGhmLcgju2KrFGJDLWJGGW0MuZNVX9pSGHCYKAO4NmED3LQBgWcjigew6grDIyQATCOIEIJh4AHNJSMNyqQd1sIKQqIcVhz2LZsnq2xsDIok3JK7BOOwRCQmplfstyKYPqqMO0iiDdBSPAsnXB/eFIBGL1MaT/0lFDnMVALn1HW6AlbunsNFGG9XpZHXAYLXUQR0uxsQH2MijnrxYxSARq0YAgSpy2MQRgAa8PYJpG7BIJFEfqxBqEWXk2fSpXeNFMqSgOMqHahmvJK+VlIocIbUU4rLLLiu33357OfTQQ8tRRx1VgaYCVCGUASAsFCnkIQTgSblzpAAwa0YAboEbCtfiujIsmjIBDtDaUEaMIDZwHtfUR1JKhEzGoj9tIypi2SR5bvcjGpLE9U6OvzkDEaixNC6EhLNCoAHYdXtKIjZwnYWqJw9AgCTjwN94443rnksBqPIsHPjq6QPICAZAqoCkFAURQlV8HHX1oR0uBPEolvYQ03iscLSLaI61bUzaDPL/zan5v1dLpRw+fUwgVQDCwlEgajVi2Xr88cfP3L0UR5j86dGyFYDiAgRxDCSK4pxVKwdIbsY1LgUZEACBAOtYfIMcwLVHMCSiQgCmaNo3LirgWD39UY5wg6+++mqZHo1Lv60SAxbpyGFQk8nkekoKCFYYdzNZPKulEqx4amqqHgMEUZADwOoDUGyACM65C0tWoGvTPwWgTsrZtBnuwR6hKIHyNoTRDwJ72ktxoo4+uZMgYCiGvXZaSunJARSbYBIBWDwf7tkIlyGP3Nsch7vgRgSjnp+oG65GOQoBXEoAWIQAuvPoCynkIaCyyKQuVZGUV0856kQ1xC/IYQz6Vj6UsDVi+IzpyWFSWajNhFMOoLgJRQ2QgNULKEl7WDyA1EEKCejassSlHu6FAI4iKatNJHBOWQDtOOrqQ7whqUeFKARCaRdZuCeEiDLK2YIYjltKqckRkwpwz1luuOGGctJJJ9XYATjiCAABnntAhm222aa6FARAGHWVY93IdOCBB1a3gxBig6effnqGCLHisFzVpj5cQxrtOEZOLgsp3FehXkjhXDnk41IQy3h8htZIEQROTQ6DBIgbYoJRN5cAzIrJ++TNMHEHwIHCFQAOWK5L5B5YrlMFgD300ENVeeLRvbriFX0IOikFUlAVbsOmvva5N4EolTEW5FBfW1wQMlvGUq5OjgrBf/ePSQVCSDxLBjZrDFVwTjVYurIebklAc1dTAjALBzpFIf1IF7EId6VNCoAA1Eif1MYYuAzEQgKE0WfEG575uKaedhDERq2Mp+WUXjlM8IMPPliBOeecc2qsYcIBCxDBKVUAIFCAqg4ycAGs3IYUgA7CUBUkUVfcgkDhAhBN0OoVRNfk24JA9lSDymjDOLSLpMo98sgj9f6JcbSqGuY4NTmAYOLd8PIOh1vT/LlEBSgJCQckKxdDsFh5wCb1ylMCxOGOKIY2uQ1gsnruiTIAWl0KAFQEsCpCPORSz5jEFepREufqIak2jdGLP8ZGVUJ96qAb+5OaHAACMisHApDIOYABwZ9TBwAAXsxBUQDJvViKAp0biOASwMAUOwgstRluRBnWDnjEUN9mDNp2U4zS2CK+oTLyI45BLnnGZIwtp9TkiIkFmBWECQc+8BAG0ICiCsjjDqgk3/dUkIv0qwdkcQgiqANMJAIgcJVxDdjKIp72qQsiIZ8+4sGautrSB5eCgEjnOmXRVuspNTmAQRlOP/30+n4HILgN7kJAykKBp4xNHqWI4BMJJBYPcPWpDjJoG4DIoQ5isXrXuQjKgYjURB/qh+oEubSnrjzXkMOxB3NclfdIEUV/LabU5DChZH9qdGc0bjCxcNeoCSuNFUa8SAN8z12AC3jlAQV4Vh9xRgSv9qxeO5QlYhZlPXizIRElUZYqaRcBwn0giUBUOWTi+rTpmZCYp5Pjv2QaLDfchMCQ9QLNJAPGRAPMO6TKAhNJgBMEYOHIQwHUYdE2gSsgWXO4C32FwnAd+uQuKADCREwBcP3oEwG5NfXcaTUW49MfEukLSRCEshijcTu2tZLSKYcYwVcOTaYJ97qdl4qtDEwysFkoAgAWYDZxAdeCTFRDeSDKc85tIBUX4xryIAHQ4yGdawClCgBGliBBEEY+4KNd9cU3xoZIxqQukvksxuSurb3ViweG8pE0e0pFDpPrLujZZ59dgTSR7jhyDcjgGIBAZsHTo8fiNsBQDUBpA3Ak3f0NIAFfvqWujcWrbxkMbPVCrSgG60ZCsY325COMvpEQObUrTY/6D7Jpg6sxVn14zWDvvfeuX7UwhosuuqhcccUVlXDZiWF8qcgBMBMPQGCYXPFFBHzci1gAGbzDyTUAg0J4EAdsYLJ2IIb1Kk9JyL46lASg8V1WSkWhkIJb8IqAOsBWVh/iFv0gqjIII/ZQxjkyyacqymgLIX0mfcV3ZoKEXTn+hnmQ8ptvvrnMH31Hlj8n50AmxQGCCQcyEIBhKema5xms23V7YLF+iTUrC2SgIiGyWCIjIktXL1SFW1MHiECmVsaBFPKiD3GJc+NTHvjqaMcYlVfWG22UUN8tEMOcpVIOk2xC/Y4G0KiBeANJAAuciBPCcpHCNUvbuPeBFOrYuxlGBaZGKx4xgD4A6KsH4hAK41v8+tUGUmlbX4jElenbph/gUqcgIddlDNwhkmlfrGQs1EOgvGjRokpEioQ0raRU5GBRJpoLYPEA4kaoyL777lsVQhmAkHsbMIDP9QCV6xFHABAJEEx7AlFta9MPsyALMJUBmEAWeZTTvmuIoz8qQ53EDdrTjzKIoi9jVJeyKWujgOIeLpJbMR5bfMYWCJKKHCYsJg+IgKcglp6WoaQdCeKGFTAAT9IRBUn4/nApyOBYm0jA8rWjPlXRvvLqI4tN3AJ41g9kpFEeWcUN2qMK6nEj8rkWY0EW/YhREGt6FKwab7gn44nPWA+S/0lHjsnJAyppNvk2Vgoox4ADKqsVtEosFSjyWbINuSw1uQgP8BAMWBEjcBcARCztUBOAO+dmfPtOH/pDRMdcjbaVCTXSvnMk0Z6xI7i9FMSoJ438SUmOybkzuayUTLNMVm2igzTAFfDZIh6wZ92uKSduQQouh+VTEACqiyiAdg2xgjyI6JhiuD9BZVxTX3zi3LH27dVFRH0650qUaTmlJgdisHBvh19wwQX1ZtJOO+1UQeW/pUlCsG7ngAYOcP1W2NTIXUhcSYBG/hFNGUqBLPpCPG7Bl7CV92VrLsZYKIvYQ8yhD2TQjrr6daxs3IEVt4Ry1AE09ic1OcylySXXIn3gu/chKGShJByAQIv7EVyBRC24CHlAB7i2LEu1x/pdj8AVwFSAK5CPOFTFKsR1fWsjAl6qQFWUVc57H1ZIrsWqp2VimMP05DBIiYWzZktQ8o4UAAMMkrBSQLseRAi5BxJFcC4PgK4JPimAmESeutoQsyinbQGsvXsoiMC9WZ7ac11cE8L6zTLtURMvLVOP1lMz5GCpAkKTDxAyzvKBGysUsk7yAUsBIj4BknNJmSAGImhXWxL14HbUV446iSW0g1D6Ukd5RPLMhJJwNdTFMtjNLvVmQ2qCHMCkDFyL1YoVA0C4CD4eMEBi2TYAh/sAFCVwjwKwAJx0CUDUHpeAENRIe+KQWK5GcGrlQjWQh1JQDARFVtf8eO2NN95YyWTMracmyGGSTTZQuRD7+M0N51wGYIGJAKxaQgxEcU2eMsoiizIUgRpYhsbdUKqgPJJFnQhsEYwyINPUKMgN8hgLt6R9m/Fpo3WCNEUOquEhmRiAYgAfuKwXqCwY+IABkHx7BBEkci3Akw9wBJGnvrLAtmkHgagRAnFn3JXNy8OWvupRGe1xOQjjx+N8F0awy0V1clQb/d//ASjArD5IODLEvQwgAY4rARarl49EXATCIAZXhEzAlK8d5Il6HozpQ1seygW5xB0IFCsVxwijrWgfGbSHJEjnvPXUjHIAhPVbNZBxoAKdFSMHsAEmAdfSFjmCJICzwgAoFyBRD6RDgrixRTW0hxzIwN1I+g9yydeeuEQ/9pRETOQXi/UxG1JqcgDfBggkABarpBgSNQgLRQKqoSxyANM1mzZIPFAdu4YMzpEj3AwFUR/QiGMZK89bXOrrl+oIUN3XoDL6QS6EU969FeeIyEW1nFKTAyA2scaCBQsqIMACLjCoB0LEsbLOBanKyUcgQJN/90mce4xPEZQRu1ipABUpwuVwD5RIeWqCTFYq+qYUSIYE2oibcG68nXXWWXU8l1xySbnuuuuqizOuFlNqcgAXqG4uedgFCAACCAkkINmASPatKMQcnqCqz8q5FwmYfmzFAzhLY9ZNLagSKw+35FrccdW/DeHEHtpyrD9joBzIiWzaRERkFrha2iqrTosESUsOkwk09xJYJGJYOQDeMcAAZO+cdZN/ILF+18m+dgAPICByOdqQEEk5cQJ34j0PxNCeuhJXgmRIoC3HyOkY8YCPnGIU46Mq6iDzkUceWV9FnB49uo86tdFG/qQkh8kWW3jI5r8vUYsIGCMuYKWAjQQ0SuA+hDgESNyF68oCm3Joi8KwbiTQlwAXUaZ+eUCnXUQCfGzaCfekvnEAPNpHOAR0XdLmeeedV3+R+cILL6y36GOsrez/82gz4WgpAeujDqyWZbNWgNpcj+Q6ArBcgAGJ5CNLuArXuQUqQj3U8S+7Lr744rq6oFL6ATZiII0+EQ0xrUAQwLgQT55r8vXtXJyi3RiP8h4SThIxxtzCfjzDyUYLHIDGsjGGJxYw+QgAUFbuVTx71wAPXERgxTYkoUQIA0gEoQj+64IXhLyCKI9rUB/QCKF/benTHnGCPMaFTIiiX8eIou2oYwwCXn22mFKSg3X6viugTK5J91UEZPDP/OImU5DBOZehHitFLMCEFVMaVh6rCwrj33accsop9d6Jdz60oQzSIAeAuSBkoFJcSQS3SKMcIji2WjFWJPBrPrfddlvZb7/96rskXJHvrnhg6LlOSykdOQBrC0BYpJWHl26QAQAmG1DynANTEIgQrJ+KIITy8qgCgpF5IALc9alRjCEWiUfwyiOQfG0oqx8E0A+ySM4RyR4B9UtdvJR0zTXX1Bt1rls6W2lFcNsSMYw1HTkMChAmOl6aYaWuAde7EkAFGssNn49QwGTxfD9Q5Is55LF8AEr23II7mt7l4Bq0F8Sx6rFRE30iihtwCGscxqUsxQh3Y4x+gUhAjFz+Pwy106/VE+VoLaUjB4uTgDI9WgJKVMB1IIsF7rnnngq6u5TuSiKA2AKYVAIg3rVQ3ndgXAO+uhTGb52zeooEVMtlCZm4JmSQxCqARhRKY6NW1EUZwWaMx88tILR84zV+z2qMwXl8htpwI3/SkSPmDRkCpMlrQHWHUywyf/R9FlYPfOUBCQxqwr8jBGARIFwFgIHrTS3qoS7CIBclsElcDdIZA3cinyJRDpt6VMIXli6//PKqaOoFuX9r/PJbSmnJMZxEoNtMOisEsO+6cjNuXgkqyb4yCARwpCD7fD4wEUR9Mn/LLbdUgikriPVPBZENAZQXR6jDnaiDcOKMIKBH8/4ll5WSADfGNhx3y+fNkANAtkiAI+lI4n6IxKKBBEDkkBcxA+IgiusA5VK4EUSjMtwPIiAL90QxnMczGCpj007EI9qgQMoOxxfjbHnfDDmGkwwMoFhhANHSF9jACpKoowxCIJKVjDiGciCXvEi+m0IB/Lyk5yJeKqIgFAMptIk03BiCxNZiLBGf+c/2zZIjPhhLt0oAtgCVNYsXgCrmECsghfiAW6AeAeikK3CMHB6Wedbi1r3/MK1dSiNf4Ioc4gxKI2DV1mxNTZODesR9EISIpSp3ggSUwcbNAFl5Fi9NEiPADaApzcLR/3mxKlIXASU3tCKgdW02upKYC/umyeEDBEDAtqoI0MNlIIkUwNeT0R/1fi9FWcSTglDiF8RTN8r8Xhuz4Xrz5JgEIYgyvDZ5/leOhwT6rfb/SnutlZ29DrM1JBKOt5MjIShZhtTJkQWJhOPo5EgISpYhdXJkQSLhODo5EoKSZUidHFmQSDiOTo6EoGQZUidHFiQSjqOTIyEoWYbUyZEFiYTj6ORICEqWIXVyZEEi4Tg6ORKCkmVInRxZkEg4jk6OhKBkGVInRxYkEo6jkyMhKFmG1MmRBYmE4+jkSAhKliF1cmRBIuE4OjkSgpJlSJ0cWZBIOI5OjoSgZBlSJ0cWJBKOo5MjIShZhtTJkQWJhOPo5EgISpYhdXJkQSLhODo5EoKSZUidHFmQSDiOmd/n8BtYPf2zZ8AP3fgxvEhzRj/XeMfoZH5c6Ps+A7/MwELKcX6fjj4DvzED5/8ba99SAiWEzIoAAAAASUVORK5CYII=;" parent="1" vertex="1">
          <mxGeometry x="715" y="420" width="110" height="110" as="geometry" />
        </mxCell>
        <mxCell id="OUMXYwsHuOzbVERew2cC-98" style="edgeStyle=none;orthogonalLoop=1;jettySize=auto;html=1;exitX=1;exitY=0.5;exitDx=0;exitDy=0;entryX=0;entryY=0.5;entryDx=0;entryDy=0;startArrow=classic;startFill=1;endArrow=classic;endFill=1;" parent="1" source="OUMXYwsHuOzbVERew2cC-96" target="OUMXYwsHuOzbVERew2cC-97" edge="1">
          <mxGeometry relative="1" as="geometry" />
        </mxCell>
        <mxCell id="OUMXYwsHuOzbVERew2cC-96" value="" style="shape=image;verticalLabelPosition=bottom;labelBackgroundColor=default;verticalAlign=top;imageAspect=0;image=data:image/png,iVBORw0KGgoAAAANSUhEUgAAAHwAAAB5CAYAAAD700UNAAAAAXNSR0IArs4c6QAAAIRlWElmTU0AKgAAAAgABQESAAMAAAABAAEAAAEaAAUAAAABAAAASgEbAAUAAAABAAAAUgEoAAMAAAABAAIAAIdpAAQAAAABAAAAWgAAAAAAAABIAAAAAQAAAEgAAAABAAOgAQADAAAAAQABAACgAgAEAAAAAQAAAHygAwAEAAAAAQAAAHkAAAAAtbA2kgAAAAlwSFlzAAALEwAACxMBAJqcGAAAKApJREFUeAHt3cnPbUW5x/EFoig2YIN9c8AGewVbBPREg4omJsaoEwdoHBgnxsSBsxtHMvIfcMCAgQNHDgwBo1w9ig0I9j16FFTssEERsbvvp8z33HXfxDvg3WvvfV53JfXWWlVPPfXU7/c8VbXW3vucU44dO3Z0mqb/2su7dPgR+MBpe3NE9tHDP9fdDCGA8JGuvPLK6eabb+52Vx4iBM4///zp7W9/+5jRCcKRvSP8ELG8byoRfuq++t3tIUdgR/ghJ3j/9HaE70fkkN/vCD/kBO+f3o7w/Ygc8vsd4Yec4P3T2xG+H5FDfr8j/JATvH96O8L3I3LI73eEH3KC909vR/h+RA75/Yl36SfjPF/60pdOl1122fSwhz1s+u1vfzv97ne/m84888zpvve973THHXdM3/nOd6bPf/7z029+85sxvac+9anTc57znOnRj3709M9//nP69a9/PdruvPPO6c9//vP0pz/9adTT8chHPnLoPeuss6aHPOQh0/3ud7/Rfvvtt0/Hjx+fvv/975/QezJhd1IRfv/73386++yzp+c+97nTG97whsmnQMg59dRTp9NOO2065ZRTpr///e/TX//615ER8ctf/nK67rrrBnmvetWrpkc96lHDIf7yl78MB0H2P/7xj+k+97nPKO+5556h429/+9u4p/uMM84Y+huDfs71zW9+c/rYxz42nEq/kyFtLeFPetKTpje/+c0Tkn/2s59NL37xi6cLL7xwevzjHz894AEPGET+8Ic/HJEsAh/84AcPWcSJRhn5R44cmd71rncNQpGnXnTL7k8//fThAEjVxmlyHKTecsst089//vPhaA996EOHjBWE43Ggl73sZdMnP/nJ6cMf/vB02223TRxlm9NWEn7xxRdPH/rQh6ZnPOMZ09133z0IRogokkXaYx/72BPEk1EvUpGIdJmcpB6xCNXOEaqPeCRqV5JB+gMf+MDRz8fGlnBO+LjHPW7UkUGuMV75yleOLeCaa66ZbrrppuGgbNrGtHWEP/OZz5yuuOKK6bzzzpt+//vfD3KQB2DLcEsnB3jQgx50Ynm2zEYkoOuDwKKYjtoQTdddd901/eEPfxh9rRLzSKfj4Q9/+Nj3//jHP04/+MEPhpMh3cpDh73f2JzhjW984/SiF71o+vKXvzx94QtfGBHP2bYpbRXhj3jEI6b3v//907Oe9awR2QhECLA7PAFZFl2iECkRql5dxNYuCskp1bVKOOzZHhzw7OXq6eVIdOrDYRzgXvKSl4zovfXWW0cfBz9tEY9YxNNh6+EA9vjvfe97w1G2hfStIRzw733ve6ejR4+OqEGOaAPkj3/84+nb3/72APHI3p4MaM4gI0iWEB1J7iOfI9DjXm6lsIRzJOM4ySOdg+UwbHId6aLXucFJ3Ynens4xyLQ6cBZOgXzEP/vZz56+8pWvjIOjuk2nrSAc4O973/vGIQ0gRQ7ykGLZtLz/4he/GEsskFsqgS3PSecs6iIcwZ3G9XVPnoyxZZHJMZCS7shxL4tmZwfOYdVBPBvp7OD4mMc8ZqwQ+toCOICD3dOe9rRhv6cGTsMpNpE2QrjDkMjyiPT85z9/ev3rXz8etQAPPIRJCAGyRy/ynpuRBeTIJNc+ihT1nEQpIVEfEVmf/ZFWfXo5HDvc688O1/RzDMkcyEnqOBQ5xMvnnnvu9Ktf/WpsF2w3D+cT15zFif7qq68e+z2960prJRyI7373u6d3vvOdAwAAyaIN2ZZQwJYiD1hItNx6VDrnnHMGee3J6otw5NKlL5JlfZTaZLKRq0QYpwl4dtKBbNsGYumTOYvxyDoDIF5ST5Z+tqp/4hOfOJy07QnJVgB6nAs8dhr/hhtuGH2b95LlWgl3GHvHO94xPN1ji9OxpXpOctdAARTQXVePGElbzkIXEskiwjUC6Bd5SoSLPBGGUISQ4Qxs6DGqNiQjz9gIpDf9OUeOo49rjlN2b2VyoncofMpTnjLsRbptwZi2BlFv6bd6rSOtlfCendtPLW2iQhI1EhIBGKFFmXoHI0QAk4yEKMQUYYhBsDrjeOVqae2k74WJfRX5yNaPrESnJwUEl3I0dkZ6de7ZSV7pnmNxCDay3YsibcbibA6gCGYbu6xeTvScQv+l09oIRxiQgSUKEGAJ95wLcFm9drn9MQBEpGVQPTlAIQGQnEUdoOe6jAFYMtqNxwGqE72IoYdeEcmp9FOyORmORc49Pcix7Ed2DscGDkevNrKim05RzW6Eu6dPPrL35OEgx7al09oIR2LPvUgBILIBAhhAAg1Q2tyLOMAW3e7VAzWCgSiqAhTY7bHG1F/JYWQJsPpFqAhEBALZpk0f9Wxij0wXW+kh77EsncbskOaanVYSjiN3cGOnNiUdVgGl17Q+6PnpT3+6KOdrI1wE2a+A4PHKRAEKWG2uASopAQxs4CAGGQhHCMJaOpEPPGDTi3D9gMyhikJ6JA6lr/GLQDbkeCLOGHSqdy2r14cNCEK0MehnH/tFrkh1T4ZO9Uq6rCDm37yNX5Q/+clPnp7+9KdPfvK1JOmLEW4yL3zhC8cBBVAObN45AxwhAAGChAwyJYS7zwEAKLtHhGdY5KbLku3Qo41uDkQ/MoBNF9IQXdl4ZGTbDRLZEunKVhP19JLNUYp08zAuZzCGLUP0Ow9oy37XkZ3j0K9dPXkvak5Kwn1OfdVVV40oMCkRiyAgmhxvV0qWZ4BpmycEq9NmmRS9wPAJlmUXaZFJB1lEe7736jOnQrL+Mp3u9UOcBHzkITNyjGkMmd1kkMiBilJ1SDQ2p6OTU5gv3eol9XS4z4nNnWxOq+TErUSj4wJ/FotwYIg6AAHeREwKGACT1QGj5Vv7PGkTLQi+/vrrx6dQ2hGrDah0S0Wg51xPA9XTiWDjchig68s+pawv4sr0OTX7WBSR6i3fdBrTfswh6LWq0GubMQZZTqPNWI3PZu2cTl+ppV49PWTMd8m0GOE+TvzJT34yIsejEIARCwSA8W7J5It+4BQB2tx7jPFGSmTTY1+29NHNEUQd5wGeZVmbayQCHcBABChgRaxrjsEOcmxgFzLdk6PbmEiwGrGfPku2OqQiWlan1C8Himh9OIGS88jayCkbU7u6pdNihH/3u98dBxhvmyyVgDRZwJmkyQEujwe6HGAA9d7505/+9AA+oj3X+prSJZdcMn384x8fMqLPkowY4wCfLgTQj+D2b23ukcA5jAN4tpGRrExf//rXh/NxMg7EQdmrLwdip1UgB1IvG5dOjsuJOLNrtiTfHPVNL0zI9fYuW1btAIsRDugvfelLky8zmKwJqEN+kQAcnm2iQJCLHnW+kybSENqSilTZHv26171ufDEh3QC3DLdF0I1MKQdwzXmsCuxQH+EIcSBsefaWzArS3s2Z6NTOTm/K9DEeXREeoY1JvzYEk6OH42unw36OcLrhY0uyQi6RFiOcsV/84hfHBEWIydoDTZLnR7JoEG0mXR0wRbfHHO3IAYjSsq2MdON4XenjU+BZpmUkiESE0GVMYNaORGOyC/hIsYR7rCLbiiLiOJtIRBQ5DhbxyDenObnkZPNghxLRsmtzMrZSv+bl0ZKzdP4wt1WnRQkHIECQ1cSUJl0UABuJgAQ+sC2vPBxZnAUAZJCgBD6dMmAtwU64vpXqmzJ0ApoD+AjTOSA75quFqDMWh5PYxpEQYQWx5Nsq6EuG3WxEuoxEtsutKGwiL6vXJ5nazEkd3bYpOtnb/FdNdPoWJRyYoosHm7wIRrbSxBEnI0E9kpDHURzKAkT/COg8wDkATs55gTMguwMikDmEJdrY+qsDNJCRawWgQ0km8qwCxmzv1iYi50n/nJftMnsl8s3NPJt3ZHMo7cYzlq0DVpLStrRU+r+zWPEovBWB3oEDTwRIJm7SJUABFFDA9y1Vhyv3+unvVC36yDkLyL4+5HUk4Hy7xPO3iKTbWMDzNSPRb2luL6aDbUryHIGsVUA/kU/WgTPylPRG4Pxef6TKEjl6syVn0K7NuObMBnNDOH0c6Pjed95znPBZZbko4QxFuCgCCrB4tgkHnskhD5lkyLYvkhMBljyEiVjgiQBO4SQtgn271UFH9Iteuuki75oOY1sVRC5d5Oifg46QG2+8cehFOkciI7MbKTI5utVJxmKXMchaRWwHxjJ+q4GSrP5WM/KcytxtPa1aQ+lCfxYlHLAmg1BAAQkgQHCvBBSSgQcQDhAwSEGkKBAtgKIL4Q5p9nn6fLvEOHTQCVTJtb70IZ0soEUvUozr3jW9xvO+X38ri350qlfK6tloRTCHyGab9g6GjUGHcei3eiBZf870hCc8YUQ3pzOGrY0DOLwtlRYl3NeXEBG5kQAY4Js8oEzYgQUwZBGALABYppEVKclapoHoi4W+AUMfcIGZYyiND0wfUdJtRbDPiz7nC+Mg3aois4OjOhPox0nLbGBLdhatnJYezsBm/ek3P1sUctnKngin22cNSg5sJWSfzxycYUT8EmlRwpFhgk7WItSEZOBUmlREAY7skb3PhxHHMeqTcwDP6R34vjrMIbTZ80uIoFNfhGtvf28MhNBDLrLpADTnEWkIbFUqeumko8wBXbOH7SJ7Ht2WadtDSzjbzI2TGgPRrVhwsVqJ/JOOcGD5uA8IwDYZHg7MCC/KixR9nKaBK5s0QJAjAw4plkb3Pn3zckYUqaM3/UgWPaJN1GpHiiVXhHJAzmNpRgpC2MFBJPf655iukU9GP6QhmxzC2Su6rQDK5suhRDcZdexS+hYrm8zx+N5BDenG5ixI9z23JdJiEe6HfpZRk7CEAsbkJSAiBoBIUA+IrpEBQCB5hkayvRjYrgGGJPIAzpHo1S9HMpYxEGxfpM++7+UKUBHHoVpukcqREBbhxqTPWPTTpR+yuzYGR9JPf7I5BjnEupeUHNtTB7K9NLK1sCFn8dk44q08q06LEP6CF7xg+uAHPzgd2VuaRTiCgAVE5EQKgE1eAgTSA4aslcHbtqKYLgAiQIR5LONMAOdY9BrHeMglo7QyABbwwLWKfOITnxhjATk72AJoy22HMjZxQDIcUz3bkI0k9uhHRnads+qrDxuaF5uO7OGijeOJbHoksmwXKLbDa6+9dtSv8s//PgyvQCuw3/rWt04f+chHxvfNkQAA3l/m/QBBEhBLc7KLfjKyiBLZANFGp8cez9gA9NjmkGX55hTayQG6SES0wxDyyb32ta8dDmC5NzbiRZ1nYtHviwjq6WM7XchmC4LY4xpBiC66zQkOCNaHg+9P9ugf/ehH43MC9oQNXRLcfE7gZ9GrTiuNcI8073nPe0aUAMtETMLklbL6CG2CJoU4WTuSkNtSrZSRz1kkwIoyyx4CcyRkqA/wokt9KwDi/RrkFa94xQAe0UhGOpttH5Z6Y9At2UKcFehu32cTh7AqWMqL7uw1nyJ7KNn7Y37qPVbS5aQuf+Mb3xjbTYHgm6xvetObhmMd39vjV5VWFuHABKDIA66JmpzJI1Adb1YvAhBh4pI6y6QlV33y6txLdCEAIByFDMexLFquRQWygK4PMMnoIwI5EB0IJGdsp3wftdo62O2ZH/nIM7Y6/RGNZPaLbNfGoMuK0HsC9kjajGd888/Rlebq16X2b6+CX/3qV48XR/41C/rYyD4rhlXm0ksvHfYPxSv4s7IIFyH+VQZAMhh5kkm6BpYoBCAw1AFIhEjugaNd6Z5cYEU8Z0GGyFbH0URHz9Yi0/KNJIAjD3HkgW089x6JRBGbyCsBjjyJg6qjA8GIluk3Fw5mRSiys5vN7LPc57DmIJsvm+lzSr/gggvGHC3vHhGbN6c1T30cfv302BzZf9C0EsIZ9ra3vW2AaFJNrAmLNk4AIAACg2PoByi5aDBRyeRcayMHKPfq6QO+ZVaUeFkBEGAjysnenu5wJrqNK3KM6x6xVgqEAt0HMPqxm52WfLbLCDYWh3HSNzanEdn06oOoiFbm4Pqzl0xzMaaxEWkvV88u+ulmJ3nzVnJOh0jnla0h3MeSr3nNawaJwGQogkzeJJQiUUa0NtkEgAOEvFs9ggGhnj7RBDxOwfslZKt/+ctfPp73XX/1q18d+pBEXx9KADFg2WC5ZCOgkcZp6GvJdq0/oo3r3ophHi37ln46Ithc6q+PbG7qI4+zsUMfczE37epEPWcT6drYiGxLv7mxm76DppVE+EUXXTSIQAajAcw4k45AEwt4RgN0XmojCwwAAAlAlliR4JADdAckjgCUt7zlLePAow99xuNgkoghg1SEGV8Uk6GXfnXu6bMlsNnyTp7TkddfSb+xbV3s0ce42ugxFhk2yq45t7lEdMSbp39GhEN6wnCvjTN5amC7rYIey30OOCZ2wD8rIdyBAzA8FnEAMAklzwwQgAJAJicBRjJh7a0Aogeolk8A83RkOGAhxx7s2vKon6gGjKikU7SRdw1AYyIRiK0g2pDmnrOKpDnA9GozBju0I4VdEhu1mat5kuUAxtNWFq3mlww543gX4Ctg6uFHL6dyEDW2rYbdoh8uq0gHJhz43gyZKBIjDJAmbHK83z0yLKFWAYkjmFAeDvRk9QMAmfYxL1p8aGJv5gQ+yiRDhxcYogNwiGSHvTiHYAv92q0CgDUuYItOpCCHHjKiTHSqI+9c4L5kvpHlms3spdN8zZPOVj62qJc4K9I/+9nPjm/q6Msec3UG8bIJ0RzNBz6rSgcm3P4HmPYe4APbxE1QKQMViAAyCaXlNCdBHBlOYeLq6aJDG4AAIEKBqB7JH/3oRwewIlo7so2nL11WHYAHvHpyyDNGGeCcQhRrAzqSOahsz6ZjntjJgRAsmzcdkrnkjPpxFG3GZx/dbEamudi6yDe+enJWqZxkPva9vT4w4V62AEtiGCOBbpImZ5KyeiAAiOcjQVIHKDpct18GjpJzAAMolm3jkKu/pQ/45CS6yJMDNGdxjRR2IJwzSMDWTym59mrTt2XJ6EuffpJx6FJGNMeVmwddc8drDHikw/ytVMZAbisJWc6FaK+VjQWXxh8KDvDnwC9eLHeBbcKMY6TIQZaJ8VqRZiWQgGMCwNUXAb7BotQGSPV0kAFU1+2lxgJKJHKA+iHb4crjDHvY2OkaeYDkJFYLdpDPATkqez0nI0N/NrENieZmNbNPW7GMqY49zQl5iDMW2yPaHCT32rOLfvOnS72AKOLZaCVYVTpwhH/rW98aUYsYE2Y0YEwG4bKJAoGMCQAHoZL7tgMABQqZyKaD7hxLPX32aONJxpTsgbaZI3sfUOjja1BsdMjjdJZrb+acBUQvsIFLJ130ShwA+MDmEMZmB3KtMhLi2NzYrunRj+OQbw7k9aWHXZHOuWwZMLCN1Mf4bHVu0W9V6cCE+xKh5c/LjwhHFvAY2gGNwSYpqwcSGVGEdEAAVkY68AKHrEy/LJFLV/Ii2ntpb9AQRz/CRLMXM5Zqn9F7jEQyXc4BXmo4eDqAShzCUwG7OuGzU5SzS0IkUthgfETJzdF180E+GauFbF70kNWGcJhxJFhyWvPV/8ie4yJ9VV97OjDhQPjUpz413kmbiAkB2YQiSLSbXPfkgGlJFGH6mCAAAVnfImK+XAOuDNT6qhMRnm0diEQZPbYRTmf5Bxz52gGqDZgc9+jRo8MODuJz8+N7H1qQz25z0Md85KI4eyrNRUo/OXXmChvktoKw0zU7zN2cja9e4gy+Kubfc03vaLiXfw5MuHE/85nPTJdffvkwEpmiof3NIY3RLZXugYhEABTtyAGYMiK1k+NUHES/5IAIKPWStvZ098BhiyhHmH5kfYfdY5dXqpZ5yVLq4GTf1s9WAXQRhxw2IhiBdCFHSVamW3LNDlm7eSBOpkddp/r6mbO5kKHHGGy2p7snx5E5g/qDppUQLkK8LLBHliyFTR5xQBIhSChylTIgJKV2yeQQZG9DkGuTByIZIHEkL1zI0m0ZRpZ6ctos2doBK/l0zLV20Wb59jzvZEwHWURrA3Jv1fpuuxVDf5m9bJLNwzwjVF+ZTqnx2W4u+iZTGx3skmHHSZDOplWllRDO0M997nPjYz4TQYayky2DRTgvVk/eZGQAAEy9SZogAACObFGLcH0ARHfXTuwiwipAPx3epwNd9OsnciOcI/hiAeczBofw3TH97eH6sKdMp9O+Q6AzgJchDlnZz95kkY3IlmxjIM7cmqtr8mSNby6108lu7a61u1bXVrQK0ldCOKP9YN8/TOPxx0SBJ8qLdEu8CTYRJJiYvuRbLoGo3rYgOpGCEH3rr0/99aXTeKLPUshR6As8juAe0P7dU1HuYERePrJ3MPJMnC106YM07fo6DBrLqZ8dIheREnvNj4MrJbL05RRkXdOrvjmx0XUrA11kJG1f+9rXxnmiutFwgD8rIdz4lkbvhn3FCRhAki2PyIlwbSYCfNnkASiaikSySLOMihpR3/M3nSafDIAazwpApzariXolAkWmfZgjIc09ArT7tA+x9Opja6ILaR7dyLLZ4en43kHOqd64bOJsxmQn0hCbw6iXyJinPt1rsxpkr7mTKbMFds4S7FxVWhnhDBblDkMihsHIAX6HuEA0KeCYrGuEu+bp7kUKwt0D0KlaBDq8aKdPBrJ2JAGFYxRFdCIKYbLHME6FODZZOSz5+nscowMxbPQJ1vOe97zhcPQg1vz08Vjnky7fWnHoI29MthqfvLlnh5JuyVjaZOSbZzabl6yNnNzqtiqy6VkZ4ZTZL0W5fyzXclhiPECkuberl0weMAhU8nyldiR5fva4JXJaNpOlr6jPYSzXvmCAOPu2LJKRzdH0IYtE+mxD2uUinOMe34tmp3pjmQ9ZhNoS/D8qIp0TIklq32a7OisEffQiNjLZUVZXRnhYCABbGl2rTCslHEE+/UGMd+wtbQFbRALcJAMDIO15JqxNAq5Dk0gio40z8HyA0KMe4QBFCAfxZQx7LqLJGB9wSqDSq4+sni6RShd57VYUK4N7drIpx1V6ueN0b0xE64vE7GePfuZlnOZnLGMW0ZFJv74cUuksIq86rZRwxiFElFtyvfmKdJM0GRkwEhACOlDnIIlU+ymAAcVhnBXsbQAja+8lo93jocco/yFOb9KAh7Q5AchBkuhkZyDTSZZd7GabjAxj02Ee+nAeW4a+7NMvp2BX4+UIlfDRVx84ZJux1dtuHHSdM+hedVo54Qw0Kf++iwlZVoEnahDTJMmZtIkCRwIYsIDTIQ1hIhrgCLW364MUgHt+VmoDXtEOPGPpb5wAbjxynELJWTzDk7VCONzleMbJCfRlh6XW9iW6jaPO/DiHucwd2dz1yw5bSfaoN07tHFm7dxpIXyItQjhDgeBwY6KWZQQCEgBABRBCeHEeb+LALerdO1iRAYYMLCQ5yB3ZOxxyIqABSGncCNDfGPoEuJJjcaqcsMgUvRI9cmSryzb9e4JAOP0SWTrnmZ360a+fbK5KNknmq11kG59uL4+WSosRzmAE2eeQ5qDTWyvkI70lMhCAow4AJi/ygBrR6vUT1fZQeyznEBXkXYs+/5WUHxpY7qXApV+WjIMcpOinPjuMq46MvrJVCznGl/Ulo3/z0A+ZSs5EZ84T2TmguUQ229XDyVKevcPQFf9ZlHC2AtGbIkT4RM3PZwAEiMB2bcIA0AYoAMvA6PSLQAcxByrLsdVCuz1VFmUyJ3PQ84YMKXOQu84GY7uWjC8BnF71yHNtldGXDZ4YRCTSEGmV4QRkk49sJYdUkpe7pj+H8nUnL4WWJNvcFifcICYoSj2nI98jDzJ6No545IiMEjCRGqDJqXONCFHBmTgH8uznQPXIZAuxmgA2sCOTLOdQsk+mz5jsIIc8/ZQI125sKwt5z+89KxvLfDgFJ9enknNI2dH8tJN3/lgH2cZdC+FNUAkgp3jfOhHxnoGdxkUustoDRRLy3QNYlItAIAFQRCPb2zhZQi5CyKjjCMhDqgRcpGlvOUUcIpTqlZJ28hHPEbRxEuRyBCuNt3Q+SrX16MNm+iT9y+71b1x20E0WFq7XkdZOuEkBq5Oof31JdIoOgAMIoCIY2TlChIs0ZHvleHzvxQjyyYs2JVAdfMhxLg6FdPVABbTxJNcy0CMXIeRkjsLWyMhx2KaeLCflBCLUmK45h7k0H3JzJ6ieUztsWv3WlTZCeJMTuQj3ebRPxQCFDCR7RraUt+wCTO6wBDQE20/JiW7AcgZOgGCkSAgvQu2nZCSrATLpjWQ6jMEBlEhmg6SNXsn49NPNBiuKSGW/vtot6671qy8HkziKfd/jXQ41Ghb+szHCgeyXI16b+pWkRzjEAwQhsmugz4EHIBKc+D2aIY0u4M8jJ6KKRDjShxBZvaxvhOcU6hE5z3PCtEuI4kCI8+SAdG/HEG0s7frRz276XVut5itWTjSULvxnY4Tbty23gEC6ZTKSAWCp0yYB2DVgJQ5gdRDV+mkDLpKBinh7KWfQpg4ByPGMbgUoahHgOtDpQDS9SFG6l4rqZOlmM1KtNvZ0utkiS2wv000f+9XRo07/daWNEW7/Apjl2KT7ooEoQUCnYvswwMkgJyL0BZSsXRsQkRThgAW8e1EnshHPAcghiRPpr468a46kzT29Mj0IUhpbnbERTD955wj66TaWNvPIVqSaR2S714dz5iDqlkwbIxwoAG2y9jRR714GYmACDJCSPoAG2rxEgDZRjTy5yI1weiSkIhpJxkWCNn1cq2df9dpqVxrXePSw0SGRLEdROoOor80JPpuMT4Zt9PSFSrLrSBsjHNAIAoRoACAQHNaQIZqQLEIkBHAEhAJMW0sr8qV0kNXPPf3aRZB+dADaSkFXEU6GrJRTRay+svHIsZMu7TL7rVg9KZib7UO98TgJ0iVjcgg22l60kdfePIbgQn82RrhJI8SEi0ATLkoBKgW2aAIeogBOFunagR5YkaS/tghXD2TjIkJCoPqirT5FMZ1k3M/JbrzkjINgtnMgpMrubSXslszB4c7351z7Drp+nNxpnb6l08YI59UAlZuo6wgECALUIQ0pMifRpkQC+fpHhHpZP22ugQ94y25tRaY2OtU3Hr05nXrJmGzoPnltXRsj2+lwzy6JM5yz95Gx177scj7xcsjKkPMPwQX/bIxw0YYQQEWKsmdXcwaCRMZ1ZACQrCzKlZL62vQBuKSfegTKCOmM4JTtnow+bNImRZy2dNDDFnI5W3rda+cU1bnXVx9ng7Yskd2cnF2sXHQunTZGuKgCEHABEvkt08CXtSkl8u3drmX9EB4RQJT0U5+O2uf9XItABEVyOhFGR2U2ZA+5dNNBTh376Gt8NqQHqeTUGY9za7PqcAR7+tJpY4SLHsmEkeGQVTSokwEYaQEV4dXT4VrfeX9kqK+NY2hXAlppDCCrt+ciynWRV//syZmMKRmDvLm0StBNjxKpItk89CWjj63EIc3qQjeHQfjxvVfFS6eNEW7iQLC0mzSAAqVJB3iySrLqlZxAcj0vyZFJXrtrCdGua4sgMh20ECYhSiYbscbMKZQSeZkzNg+lRy2Es0U/epCt3qtk1+Ysi/51pI0RzruBACjRDXARAMQABwDAa9sPiPoSUPUF6pyo2pXaZP2A7Fpyzxagt8RzDHqyzRbELv2kyO66cREt6ddbvbltPuEzHsI5SHa0pYzOC/7ZGOG+jMj7AQRcCeCBOievCEFGSV25KAxYQNJJByJlKQdRn1O1HNPd4xQ5uuiNCDr0K6ePLLLJNw/35iazRUKsa6+MzVl0S/QZgwOsI22McD/S9zUkS3r7Z94OaAAHIuCAGejkIgNYAIxsBGhTkqtP9dok9bLI5WhsUHaYRBq9cs6BHH20zXOkI1S9MfRzzy6JjHmI/OTq5+NRjrCOtDHCPX/6IZ936YD0yAKACDR54LkHiDZA9pGpNqDaD4GoreiLmO4jga6iEInIFdnKthPjIAkpyWsjnwzbkiPbdQSzxbVSYkc2KMnL2mXRbqx1pI0RbnJ+tOAXIqLLq8lI1AYQEYog4DnVIhdAnAOICAeWUl/ykRPZCNGHjuREadGPSNcRYlzgF4nuWwnIuqZzLk9GHVuVjUlGm+y6ec37q+PQtQ+hBf9slHBkeb3os22EANTEHXZcW2KRIQIB7UMKRCJQZEZM0RHZkQnoyCaDEP3pmpfG5Azk1ZOdOwe9+tCrPb300S+rkyX6qo/cCCVTnWs67d+1L8j1UL1Rwlnga7n+zZWiA7iiy34X0F5JAglAnIQzWBXUFYkIichIASJHQiACpJzBtf6IlelsvAhLpzb9JHrYqo+x6aanscm5z2nI06dONodIJ+vjYN9D/48hXITLfq0JSMBJlm8HOlEuS4Cy/GkDOHnAqu/ABThZG7ARriRDd+SRoQcJ2rVZNeRsyAk4ULrI6yd3CKMbeeQkMuzTrp979mSbe8mjqXOMcl1p4xEOiGPHjo1PkObEAdTSDkjAIwGpgFSvLLpEJrDnEUoXsGU69I8UgCPDGOlAtLMBUoxDF3lZXeOx1/gcr/NDhCONbpk8WdfZEfnq/LTJv1ZBzzrTxgkHlm+wyr4i5PDWYxpAAY6AlmklAiynskQHgoAMzEhST56+nCIyPAY5CFoBnBH6jFofWdI3wtS5Jp8zcpbInEcvOVld1/q5pseKZitTt+60ccJNGHG+240UJPi4EMnAEYlKJBYxAacOKRGMcDnwrQz0zB2GPl/87wWI/ggvWwnUzQmmEzkygtnBZiXS53Y1tpIOORlj+HdifGFT+ybSVhAOSP9oju+mIwehPkwQmRJCZfUAzwEQGuFFmhKY5PXXLqszjs+gvd5EIj2WcquKg2H7dyTRJZo5odXG+HOHQHRZW/YZK0LpQLh5Wcb9my21/ccSbuJetfr33vx/XSIByMB0DTRARxpgAxWx2tWRT1Y/CdnaRDadolt0qrOi2Ld9PIkQuuilh3PowzlaDejjFGQ5BadpTPqyQT07spEzcRz/TAj5TaatiHAAAKdfo1xyySXjt2d9fIgY0SwhoiUSwICPpIgnK2rrB2QRijhkk9dmBUA2EiVy2hDmYEZeNqZkLGN275p8NrDLONrVscMYyPZ7+XUf0IbR+/5sDeHZBeCrr756AO4Hh8BDAGBFa+AGtHvJvVwSnTLAyRR12kU/wnMKYyBbjmzk6J9O0S8hNcJb3tUbg5NYRTgqXRJZSzlH2Ia0dYQDBVj+0RwR7/tfIgWgCAc8oNUF+H5HEHkiGQHJVXIA/dqvySCRPIIRjiREG6t+7Jo7VQ7AcSS/mvGBkC0gskfDlv3ZSsLDCIh+uuNxzfe+vIhBlqUbqJEW+DlE/Vt+tSPL3iuR0+ZVrUgWkUieOxWiOwfoo78+ZCQ6ZPaw0ZK9LVE8DPw3f7aacDYj1ld4vW+23/q2qygFvrY5UQh1CLNUIyuiIwdpIlhEW2a91lSqI+tZnH46jFFER7L7dCn1EdH+AYKTgWx4bj3hjJSQ5IQtiz6Ai/TI+JfUv07RyLLURo4odN/qwEks35bzeX9O1efzSJetIojlYBHeGYDDHd/7HhqnOVnSSUP4HFBE/7vEMeR7k5DvRC2LXA6CbGnuGOo4U6vMvRlrU31OSsLXARaC/z/HWocNS4zxL/ddQvNO51YisCN8K2lZzqgd4cthu5Wad4RvJS3LGbUjfDlst1LzjvCtpGU5o3aEL4ftVmo+8Rzu++G7dDgRmHN7yt4XCK/bm+bRwznV3az2IfDfIvwD+yp3t4cXgQ/8DzS7eCuAovXSAAAAAElFTkSuQmCC;" parent="1" vertex="1">
          <mxGeometry x="1081" y="415" width="110" height="110" as="geometry" />
        </mxCell>
        <mxCell id="OUMXYwsHuOzbVERew2cC-97" value="" style="shape=image;verticalLabelPosition=bottom;labelBackgroundColor=default;verticalAlign=top;imageAspect=0;image=data:image/png,iVBORw0KGgoAAAANSUhEUgAAAHsAAAB6CAYAAACfmyzaAAAAAXNSR0IArs4c6QAAAIRlWElmTU0AKgAAAAgABQESAAMAAAABAAEAAAEaAAUAAAABAAAASgEbAAUAAAABAAAAUgEoAAMAAAABAAIAAIdpAAQAAAABAAAAWgAAAAAAAABIAAAAAQAAAEgAAAABAAOgAQADAAAAAQABAACgAgAEAAAAAQAAAHugAwAEAAAAAQAAAHoAAAAA0oIwCQAAAAlwSFlzAAALEwAACxMBAJqcGAAAJapJREFUeAHt3UeMZLX2BnAPOeccm5zDEEUecs4iDAgJkFjABhYIkFj8NWIFO4TYISEWLNggMoggcg5DzqHJOef8r5/1vqYoPfQe87pcXU1Z8tx77eNj+/vOObZvVfXMuPfee2eVUv6vk0dpeiMwZ4HO/BA9a3rPczQ7CCC7pssvv7zMnTs3j6PrNEFg5syZ5ZRTTqmzmSAb0SOypwnDPdMI2fP1lI8epzECI7KnMbm9UxuR3YvINH4ekT2Nye2d2ojsXkSm8fOI7GlMbu/URmT3IjKNn0dkT2Nye6c2IrsXkWn8PCJ7GpPbO7UR2b2ITOPnEdnTmNzeqY3I7kVkGj+PyJ7G5PZObeIjzt6KYXief/756zB//fXXSR/ujBkzygILLFBc6e/uQ5n822+/TXq//VQ4lGQvuOCCZWxsrGy55ZZloYUWKk8++WR59913K/jzzTdfkUPOEkssUeSvv/66fPbZZ+Wnn376SzwXXXTRsuSSS9b2a665Ztl1113LIossUl544YXy3HPPlcUXX7z8/vvvZamllirLLLNMeeaZZ8pbb701NKQPHdm8+dBDDy1nnHFGWWONNcr3339f3n///fLaa6+Vb775phL5888/V2IXXnjhsvbaa1cPVXf//feX2267rXz11Vd/IpyX7rjjjuXAAw8sm266adFeGXIZ1t57711JRzLjWnrppSvp9F100UXl0Ucf/ZO+qfowdGQj5cwzzyzrrrtu9V5ezMNnzZpVPeyTTz4p4+Pj1QB++eWXSvS3335br/vtt1+9XnfdddVIQspxxx1X5syZU9ZZZ53y3XfflQ8//LC8+eab5YsvvigMZqWVVqoEu+f5ooMosdZaa5UTTzyxyr3yyitRV68MguFoq/9nn322fPDBB3+Saf0wZcheffXVC68VjhOCe8EA7qmnnloB/PTTT2t1wjQPRIKwu/zyy1eA33nnnXpFEuJ47GabbVZef/31CW888sgjq3euttpq5ccff6wGQ6dnSTvj+eGHH8oKK6xQy9yLFJYG4ZwRIVeoF2k23njjcsIJJ5Ttt9++jsdYn3jiiXLVVVfVCFSVDOCfgZMN1HPOOaf4YhzwHnrooXLllVeWN954409wnH766eWYY44pG264YTUKgH/++ef1nnfbTGWt5n0rr7xybc9DearNFG8U+oVrEWDZZZctF1xwwQSxQrQ1WSLP+BD/5ZdflrfffrsaIqPUjlFZ48kJ7yLOBhtsUOVmz55dnxdbbLEaKWJkhx9+eLniiitKDLV21PCfgZK94oorlssuu6zstttudY0U7oRSIfriiy8uTz31VA2jl156aTn22GMrodZSJCAOaLyZNwEe4UiQkcQjGQC9L774Yl1vtedx6623Xu1HX/QlqZcl+tTRgVTkMSJGwdhEDJ6tv48++qisuuqq1RhdyYgU5JBNB2PYYYcdys0335zuml4HSvZZZ51VgQcE4KyxQNpiiy3qBuzCCy8sp512WjnppJMq2EJ1iAGkjVbIR0aARzwDQILwutFGG5X33nuv9rH77rvXMiQjLv1mXTcW3m0c7hFFD4+2jCgjq1wipw9jE2mMR9SwlLgnayyMUlsbRuO0PLROAyMboXa5AAECEhEGRKQDRejm9cqB6go8Vx7DmwCLBORLCEQO8OlGHEJ5lWVirHNk016fPFU9nUK9MTAU5XbiEj08HEHKrNXk9Z9xpQ05fSbqxOjIGh/S6RP2/1Fkb7XVVpUYoIeUhDwgIgjhjjd2tDJigS2TdX355ZfrlfFYS4EafcI44+FVWT+F8/XXX7/qRxqdSBL2Eyn0bVzIYiDkuj1Vv/TSry0jiIdvt912dW2nS33GQJ4ehrzzzjvX+WRDV62qwT8D82xrs/AHWNbO6oEIDB7GO5FCxq5aUmbzhUxkCMXavPrqq3VDpB64dDAGGdGAJu9FCdLitYjkYcawyiqrVE8ly9h4vH54PAOySaObccQoMk6GKKJ4wYJ8UST7CXoyHv1pS55RdH5nV8/9jnstUlOygYMgGxhEAhqZvI7VIxygyEecOiHa+RQBQE9GomR3boedNVaZOvpk8nSqRyh9dCMgIZpuJAuv2rg3FuNDmnFbMj7++OPq6fTRQd5xzHw8y9qLCDaf0cMA9GFNjzEzuL322qvK33HHHdW4jL2fqRnZ1sqzzz67vgABBgBtmhyxhFAZODwBEEBEEBmJZwIM0AADao5egA3Y5HgQsrqXBV6qX3L6JufqOZFCv/oIySKKvhhPd5RgJKLBcsstVw1IdGFEvFvfMm81fmPT3povKmmnXDaXbbbZpjz99NPVmPpJNN1NyOYBl1xySX35AEwAxnOESW+fhEkvI4CCeMAjmrwyIDEGJCGHDi9gyCizLCCBPHDVJwOVEUkI5mlklNMVfZFDrHCb87m2xivTb2yIFXnIKTNmhkM2xpENpL2HOnuKsY7RK9eXhHQRR1m/UxOyDznkkLLLLrtUspCGHEQAjeUDizf5YGHPPfesZAiZyuO1CEFUElAdh7yGZCyWB7rp5VkAZxzCuDK64u10iAxIVS6pI6dMe0sHA5ToiT79ihD6EuLdI13izTEic0Swd/YMwrneWMxBn2lLN10tUhOyvUgQ6qzNCeEmjUDeyPM333zz+j6bnPAION4CCDISMrRLzpppY8TLA6S2yUgEKJKQaIMlIVV5PNtVIs/LvFJFnLG4hkRyxsEQhOW8TbOkMKAYEd28l+c+//zzde4iiraM3JjJGKc5t0hNyEYYoFl0CAc+MEwegICzSwUEDyCr3hWJPAXgEnnPst01YoCnH3UIEylk4NPDy+iiwxXAwJboNx7PvNCrUTq1s4RkfdUOYfrRxlzoJWd+DEB7BJpDDMoznV4N64fxyqKHM3mLEG6eTcg2IWAAJYQANh4Tj+XJ1sKEUIAqC7EhBejayIhAMDCVAxHQPA2hIRppIYac/rvDODA8A16UYDCIMxYk0asfOpDc3Y/+yMoxsMyPHu2EbVEgO3PtGYEwr65FakK2Fx/OlSaOICQgEEhAYe2eAQEYBKmTgItwpIZkbdTLyiSkWOe1lZXTpZ2oYXePJP2ri66EZ8/ATzimk6zTQrybvhicvs2DDB3aIc0ykXkaJ51SQny3wRmnEN8qNSH7kUceqRsvIRpAQEdgrByI8V73MiBEAzIywgAGSADmHuiMJaR5BrJ6/dnE2e0K9/rQnnyMgqy2rsaW5SYkKhOZLDHaMYr0x5NFg0QEJwOkayu5ph99xDjSJ13KW6UmZPNsrz15N6B4m82VXWxIR3BIMHn3iAFIiHcFLCJDjHuJ59JBt5csDzzwwMTGD+GWD+CHrJAQUvWF6O4+6dKOcSGFfvKMVTIWnm4sQr8lAJGZi77I0ynRoz59q2+ZmpBtcjfddNMEwQCytlnDeIwwaQ0DSgDNNZ5qF0+PZ6CFHJ6EFJ+HA084z/fHyDryIEwCvEwuRCAxuuhVrx9tGJCxGguZGKBn41GGPBszITxE64t+euijl3yIpocOYyfXKjUh22R8T+z666+vn3SZOHJ5JSAQ7jwNBOADCcgywoCZ8MqbyMjCK6Ohz/to7ejlYaJGSIvheA7g7hMlhGPe6TkySDImevStHrn6I6fcvazcWC0TknnEmNKfcfXWjXe+PjUtyTYpH1i4+laHNRjRIRx5AAYiYADnCkSAdZNMVltG4OosLAMdQT7ZCiEhAuH6pisZiTyS0ZDXv6wNA7KZsgToh06Gp29v1hgIOVdJdMkGE9mS/hiPOrokdbKNnDU+srWyz/8082zzCOHA3nbbbSuxwPOsTkay9RzJ2bl2extZoDOSGAADASjiYxxCJDk5u3l1+tMO0XbvQKcLyXTry8ZORoSxWKMd7bTVl3HSz9vJ0KudZPzxcM8MgK5uz9aGPsbSMjUlOxPzvTDgIty6DbyABlgkWzMRqC5kAw55nrXXRrbTdiWLMHWIIM976LQvoFN7RPNIVx7sUys6ka5MO4lRIMna7fyPHBEJufr0AQZ9kRc9ko3HfSJEtwy9PmQx1pZpIGSboN0rMHyQDxDg8ExgZ8MGaOWIABBgAc1ztHUlg4gYDKJ5IGJ9EoUgXxLw/jyRgow+8z00z97AIZteuhgDr0auPYVNn/CdZUYZI/IDBaRlXK50SAnfxhJvV8cQzbN1GhjZJsq6vbTwmTTghDtgAR/B7nmEjKiEfOB6ZhxCNM9EEEBlBoIUUcMxjMzDDz9cy9Uj0dru/K1PehAj6Vud760xFs82l/pmIAxR/Vjn0yt9aC8kMw6yyJSNgSEi2jwkZRKjau3V+h0o2QbA444++ugaKgHefe5WLwEPSUgHIDn3PH2sAzoC4l3KgYsEBuReyM2XFkSBRIKXXnqpGo167azfCDziiCPqhm+8s1t2gmAMPlUjg3BebUw+ukQ8PZYm6zhZpEv6ZpSujJHBIJzMP5Jsk7cmZi0EJoAAGw8hIwOMxwONd8g+A49HxyCAy6MYRTzebh2Z3nMLyXn/jqx8RUoUEA0Yg4jjwxAeK+zasRsXAzMG4yQnHDt+IY8h2t0nRBtDDE69dtrb3ZtD6zRwz+YlCcMAQRiSEIZsWUKaegQDVGjlvTxWm8iTdU8HsAHM00QMBFs6kBoPQySCkcd7yWanjWgfvSIvXsloYhT6sJegK30m8hiTPumVPGffwTjMp3UaONnOsUhj8cgEXEIxMEK2coDzCi9NXH3RgWcCOB6cNsAHNJ3qhGeeiGyvb0M2QrUXWpFKHuH6Uua7cpYJcozSCcKab4zdL1VCpL4S7pHNIPSVuaWf1kTrb+BkmzxwWX6IzX2sv/uZUQBWKPb9LWEyRGtPFtjKeLYy3o0gUQDwPmkSkhFqRy7xZgZk906Gx0t+9YlgpPuhHuLpY3DaIFy00c5c6NSv/ozNeBAtGRMZeRBp4GQ7ggENOFJ3OAZ6EtI8IxtRiBZ23QM6CaDI5qXu6eO5MvBlb/Ictey4Hf14rTFYlxHOmBCCVGRaNg477LC6t0AcOfLakWcYCNcGueYix+joMXbjYQwhP2NudZ0SZI93dr28R8iTAZYEJGDxfqQiwobOu3BrLVkgA5KcK8NAgnLGAPTozqtVIZ2x0M/gkKoNYt1rqz9eyrD0aQzx5EQY4wmBDCvLhSWEjKwPyZUsPYNIAyfbpAHGE4CBFGRJuSKQjIy8sc5xyxmZrDrtZPcyQCPPo5FAFgGIt0ew/vJMb8G8NuVtiEk4FhkQLvSLANmkKWNU8VZjjE5zoNdRLgaQsWV89P+jybYjRyKweRJgkgISEtUhGviOasqAnkTWM0LIAhXoQrcUXcqRN96JKEK6kIw0RoF0beiWrNEMR4rxiSaMRx82YdqRcy/aIF+o1093NjZzjO6qtOE/A/fshGSg8DjAxWuAotwVuPnGibMyQJGiHonJyJLt0ntJii5rrA1WvqgY8ng6z+OZwr1y49MPYkOwvo1TvXuGp95VJKFf34zOVXvZGMkwPnWtUzOyTdCvNr0aNVFvznxsePzxx094A/DiqYiRESfxGjqQaF0Ecuq1cQ9QGyVXIAvPDIgOzzxTHVKzyWJINl8803p8991313BvTdcH4hGITP26N/5sAI1ZskQYH0Kz7pOJ8RmfcRo/3V7atE5NyOYdfvqzySabVM8RytwD2d9DASrQkOGKAMCQi0cAk7cBH+gSAuP9IRjZ2uXLh0gEuPZS5OjX1tszrz0RQ68fMyBdFKHf8hKPRrikTF33mHm68euLrmzk9CHrF+EMwi9Yvc0j1zI1IdsfmfG3THgEy+cd1mkbGveScmCFcGXxVmXABHJ3G4SFcCADFNGMgoEhB5kA9u5aoke5foXUhGC6lDEK/WiPMIaYXBV0/gnJxoxISXv9MzaRIxHG2OPVxqgPZCParzi1aZX6TrawvdNOO1WAEAUcAADQxF2VIcG9OsAhTQIocHsBVxdvCuj0uEf2wQcfXK+8EqAiglesNmPI1Lc+Mh7LhJDP4+jVJ3KMpzd196fOM0LJW6/1px0dsr6UkWNoxuIvNOnHFyO1kdLG/PuR+k62ryBlvUWCidkEmVjKAQIEJCAHCK7Ak4DFO5V3A0GHLAVUhFmPeTx5hJLJ+2x7BaQbizKvT5FgF60f49CGVxunMainP4mBxEiU029cCNdWv1m/RQpLieQ8TyZHtPPOO6++ofNGjx54MGoGqcxY9T1Zqe9kO3cCIOExZJswwIELAACx/pxDPdvMmKy2nhkAkMkDJ6AjxD2yAGunbQPEgyTttdVmrHN0CylkEe9lSmT1w1CEYjrpdtbuNjI6EUwfeffGKbtHNH2ulgkbMlef0DEi+unV3qb1oIMOqlgwdkud8SPbX43y16MmK/WVbFZqYgaPcEQiFHC8CgCeTRAByAKeUOoLAUDyTpphBMh4ER0xDu3pRw5SGZBvkIx1iOWxaWs86n34Qj8P0sYHI/E+UcF6ywtFCf0oQ5zE+yQ6kUVnEl36VqcfYzInerQzdlcGLzMo5HOIjFt/dNogWop8rcqr3clIf4x0MrT16EAgDzNZYCVMIZrlIwvgwEE8OUk5yzdpoI93Xn4EXAADVR198UJtZF6qDED+0Nwee+xRQWdExkPGvQ2YP73FsOzcea96xyYAq5P0gwjjyxiUGYeMwOSQrB2SZeQpd40xMwhzkJFtjuZiTObNSBgDzLy7V6/9/5r6SrbB+bueIUY45WmOWwBHNMBMKmdnZeTt3l1NUkQweR6MSITyTM/0hUh1yOKJCPArFCTakaujKxkBQGcU+vb9MnWAdW9M9NLvmcHRY7zCLaLcSyHbeEMww5HJudJNX4hndOZlXCKJPugja6euTD2vN4fJOJf3nWxfGLDuCJ3AsG4BWQiTlHkGRIi0VicKAJKRkOH5LB8ByHj88cdrJktOXUgFOkDtdsnrJ8ArJxegnRj06ReVPB3QvNmewhERAV4AITn9IMa95Eo3IlNmLPpRFtIR7h6JPJphw8Gz6GLM5FPGw+kbGrKBYRNk4kDPBLs9BFDq1fFWEwQKwCOn3L3MMBDM04RcZ2hhVp12QPNMD4/grcgEnn4SJhGLAN4jhIoWgFcmkWNk/uwWo/WhifYMgLEZXwgKkfqXE46Rx0g8uzePrNWiEC/O3OkyZlGMIepfm+wn6qD+h3/67tkZm4kJv7zUO2lEmYTJAMcVCPG4EEteAgKjkAEn81YkIgJoCCCPPJEEaAhlDIzDc7KxMAL6GI8jGNCT6PcFCd+GQZbxAl808YUHGygbR9FGe3PQ3vgRKjrEQJUZqznqHxYxejIMxfjpkZXJxiAZ42SkZmQbLECAavMDfJ4hJYzzKoC6hlQAIRqQAVQ9MAGnTHtg8WbLhB083U4BMo9kBIC0ngNazg8IyAMceTaO9LpnjPrRTh/+2qI6O33kMyrrPd3GiVTyIRpZxqG9cXo2zoRw98q11cYcE53IwsDcGcdkpKZkG7CJPvbYY/V9dHa4wGD5SDRhhJuoe1mdq3pg04FEZCEPMHQgQMhFFOB5uvfe7v1GHJFATRgFNqIAykN9mqaNtZpOBiEq0Kt/pHgbqM5Ho/TSmVOEZzqNk/EgLobAU81Lvf5d6TTPZHOTtDMmczIG+4XJSM3JBpj/hsFfObL2mSjweAASQzKLdx9D8AwgGxl7ALtXQIQ4YVXYtS+Q6IyhOOrpc/xfRzjtjEMUsAw8+OCDNRoYj2frN8Ls1OmnB/gIZHiOQ5YB+wEkGjt9yES4e3LCP+I8mwud5oBUOs1JNlZGSE4/2rryaFGQQU9Gak62QZusX2j4WhAQAGZySPDMwzwDzrN7QFp/rbMIj4cAnWfZsSILUEgBoH6QJfFWBgZw+vfff//6xwHIMgJf9NcHL7bEMB4vdRDOAMjR52oj5cMMZHshI8QrRxZykWxM7jMepJonUvVjXtooT7SxxLlXbpzGDoPJSgMh2+C99wWwkGtiPBiBvBvYPDQegDgT583qySMZeJaCsc6bMhkJPIY8GbIMI2ERkfvuu28NxfoFNDnEIJes5YEOBKpDOENRpj9EyepFjHvuuaf261n/vJxexHd7KgIRR0+SORurbB8gYjFsSdvJTgMj20SEVl/CDxnWN5ZtQ4Vs5QBnBLJ7gMvqeBxvdk4WeoHMKOhgGMhjFAGQLLJ5G1mJFyLIZsz6Trf2CCWnH7t9OnijMTAimcHod7wTGXISoFfu9vR4PlJDIr1kJHsPREuprw+T/M9AybbxMElfZAA4z7C7BWT+ZFQ8KWHP/Hk+OZsjBNkVIyZEJdxn84YowNLBszzzKv31JnrpYVw8EbmuCEQWY2JEdLtnlO5FIWOlE/ExDn1qqy5erQ6p9NHvKNoiDZRsk7/zzjvrxgpACYNCM49BuF2vxBgQKrsn4yzNW7VDCJIQzRMRAGCAIlpfvBrJnl2TAC8jQXKPIG3oRSTyXfVhb2HzhGzllgHeG4PUlg7eq386jEV9+jUGZQze0tEiDZRsExTKb7zxxnLUUUfVsAgAIMnWRCAKcwBMYhhCuNCLaCACFfCigiui4pWAJSsiMAbkSPqgVz0dIRuhxkGHq2fGI7unn3cjHZEITKSxLChnCJYQdXSnP30yBOPl0X473ioNnGwTdfRBmv+/w7odEgCJMIDHU3g1suR4CZK0YRjK44GIJGNN92e5HM2sx/QiTZRARDIddCEiXq1vbZCHxIwnffhf/egSgbTRvw0dA2IcruamLylE28nzavpbpSlBNkAQDiiEAAQ48SpgeJYTzkOMq3JEA1VGMAKQ6tcc3nwJ+cp5JRIQhxTy+pcl+tzHIMiHaASrMz6G5FWq/6zGWZh+43XCEOIZEPIj716Ztvp2GjHGlmlKkJ0J+9aGHa4f0wEZ+QDiba4SsDzHmxEdz3GPUFfhHGF2+zZwZCRGoa2NIS+1VEiIQqA6V8QKw4gjGy+lH4E2h/YADMGS4p2BMQvn11xzTSVUXxJ9MU7t6RItWqcpQ7aXIl5UAN8bqhtuuKF6O0Ksg0iQkAa4ZOUMQegFqkQe6OOdIxHCeBWQtWEINncihFeh2jIGhoEssvQwFusysulAcHef+iBr2XEiYKSOez4k8YsVL43Ix7iM07M+yMV464Ab/TMlyObBvkNuAyXZiftvE70E8eUH527gqI9n8URgI8k9st0jhSyyyKrrBhboiOKNZITdrN/eYCHXM4+V6dWGkWnnarwMwOZSKEe0iJOx+5IlQhkTghkWHVKObfWh8T8DJxuh/v8uv30GCGBYv+OIXbe/b8LzrIshEgEIIc/zkY6YvAxRL1uTZaRL5LMM0M2ohNS5c+fWcmR7po+cdsgly0NFCxnZ3qwxQjKzZs2qhsioGES+iXP77bfXz8j1G9L1SRcjbJ0GSrb19Pzzz6/AIRhQyAZM3qYpGxsbq8aAcLtY4AEW4UIuoq2xCJaQYTnw1aZszJQzFlkb7fVF1vtvROtr6623nhgDosmFdPXJ2hmXdwF+MoRg67g2lgo/QRaJbDzHO8sJckUAH764V55lx9hapIGR7TPkc889t5Loww3AA8nVmopInuoegEhDnv8WyceVvA8RjET4RoizNAJEC3sAz8hRJyE6Xg9wYOuTpyHP/8ttzeXVMYhEDm3j7XQikpczWGRaDhiYjRpj1Gde5Rqr8I1s8nm9e8stt9TI1IJofQyEbB86+D+wWT/weTIg43XuEeyKTCETcAjxHWsG4Xtt2gGQPkDniwtIQCB9yGIU0Y1E4OtXGVLoZVTWcc/6pZusEB4PR6K+RR1tYkhk/Gc2fs7D8BgyYxVt6PNKVZ/k6fapm//pl4wPUoyxRWpONmBOPvnkss8++1RAAQ5EYJi8DEhkSTY5PIGXIgDwdrvkgI4kZPNkoPLUJGQhlW79dBOuHPD6odvZl/fFyIxJJuOqXEaYfrVTZxwiECOg87777qvl5sBQRZBEK3qUmQcDNA/3QrrNYr/TH8j0u6d/6bcm2nQBwIRN1j0Q7HDjaTwWYM64gFUOLMTxBC9fbNxseGR61PEsCRHIRUBI776q14ZufQnL451wzHjUxWj0m2ycyEa6sWcsCNeXCGRPwctFmoxHv3RIxk6/ceqD3AEHHFBuvfXWujmsQn36pynZABWGeWIAABxvZ9ky0JRJyEYEkpOABETepR2y6AKi8qQQTV59yHcvx9C014/Q79ulyES4cuRmTTcGbejRnn66Zd6r3s6f0foghpHRYVyytp6N0b32dDMCGzsvlLyM0a5fqSnZPNEvNOI5mSywGYIw6sgVQnksUgGjDUCB4T6gkwWmum6vIyfzOhFDAjZvjj73EsDVKXcMy5FNeE/I7iaJMeo/fSBP/2S1QXYMJ8QyHJmhRFciBRkbUMdPJ45+pWZkA9bxxKQkz0BDMqBCWtZOwKkLqUACDmAkQCNZvfYIIs+AyKiXeJ2zsxyvVa5dru6NR58+FRNh6MzyQIfMaEQaUUBU0Sb9GZ/nkErWGOiRJcaE6JSbP0OnW51ThBc1ZPqRmpHNe/w5K+BIPAn4wAOyCSMc8ICy6eHlgAKEeuAEPOGSLm3okYCdK/1IZwDIQXaiBoCNhy79IYosotQJ496M2UAhngEak3t6jCPj1n/aI8k46TJm5ekDwcrTb5YgYyYriwoMzEe6/UjNyDZ4k+eN8TAkA0AK0CYdAJQjVBlQU+7qRQp9yLELVw9oOpNiUMgj5xUmIyJPjm5khzD3xiH0+3Ki+xiNMScqKUuIR74jFh10a5s5dUcXY9Wffo0F2YjXZ1Lq8zzZ12ZkIyxfqhNy441I46WIImPCgOARQFEOKFcJgGQ8e4/tbAx8RgRsdTxPYhT6kenyzEv1wzORiRhEISzLgnpRwMue7M7p05cjnvFory/ttdNezvj05Z4uUUEfiM4cU5cr0unqJl+fk5makW0iNh8+DXL8QgwSAIVwyUSB5ApMJCIVUFnHgIMkwI13jkoARgiPUkYuZNPpXtYXI0Ii8I2HHuDTweCMRX8MQwh3lNI3GTq0STTRlrx+Y7BkjZ1sdBuP8Xk2Z32pT8Sgk37tyJLpV2pGtgnwRMcLE7WO8gwAAcBklccLhckQH8+x/iIjxgBE39umizyS6KOHbokOOX0yCKEXwKIHgJOj29s6myV6RQL1DMVzDIduBmLsCEdSDAOBdLuSF/6NwWmDvL7JqxfKJWX6kvuVmpJtcrzbudJ7bhNEJJB4DKLVAcfLBvWIVR8QAI8UnsLz7J69l3asQwZSyGQjFOCArt4SYqMV0NVnE+XKaLyxs67TwUgQRa/smRyi6UEasmOQxqx/84kBu9Khb8YmOtFNlhx92jiuufYrNSXbJADjG6XCKWIBAaiEcm/GAMOzEAQYACCbLIPxLMdr7F59ec+aytsZR4hKG888n0w+s0aUckbmSp/31jxbuwCvTg4p9BsvsnNyyNX4ZDKu2pmfeXvOeJDsWTJfn7pN1m+6qtJ/809zso0ByD65si4DEBBIlbwLBzKvBYis3pUnSDxbBqh2WbO9WmVASANk2rsCGag8i4fHu+mI9wr9iNcP8ozDvXI6jRtxsvaWA5nxiBTGQl47z+Ym60Nb0SBGoJwhSNojOsZVC/vwz0DIzjzizXl2Bd5dd91VQfJFQeQgC1EAc0U0wIETgIV1RyueiRjl8aZuwwh59MoBn14GgRBGQwf9+qabQTEKiV7GgHBEuZKVY4jkkCkiiTxyDCh1CKdfmxZpoGT/1QQR4HNrQNkV8zbAWDOFYl4bkhGUEIuo8c4OnSciUhuySKBT5nHAVYc8pDIAZNNpE6Vee+WpI5tx0MfwsgvXLsblyjjIiFK+GGFfkZD9V3NuUT4lyTZxYPkdN7B8IUDoBbiNU87IIQsJSJd5EGAtAyGb9yAB2SFIZCCHZIQmkUNkdvOpY1AMI/LGRzZ6PatjJIzOV5asw+qnSpqyZAMIScjj4T7s92mZBFBrM09HQDyOVwLdx4zCq521hDDlCEYEMulGPi/miSGVwSiT3TMYRCNSTiJPh6tyEcfRkAH5MMUYplqa0mQHLCTZIfvFSDwS2UiXEsYBb90GvmOM9Z8hIAV5yEU6OVekI9O9q8QT3eeYpCyGkfae9cFIcpxDtnbWZfVTMQ0F2YBDrPM3YpHjWah1jyAexdMlYJMTRuOVyhLqtbHJkkQGCVFk6PVRo1+WMhRy1nkkWntFBnosJYjmzfpgQDZqcgynKp5C/wwN2dbuhEseFeIQhAgeLytHEEKRr45HRh4p8V56EKOOsTAeS4Uzft7gMYZkewR6XZHsSp/+9M0ochybQhxPDGVoyHYuF5q93RKSAYw0RALYxktZ95qMSKQgVZ2cTRkEtM/azJBs/sgzIPsE7ckjmJwU4t2nvb7zOXj+cJ76qZaGhmyfQF177bVl9uzZlQDrLW9CIO8FuGflgHcVkhPueS9CGQdZbcggEmlCsTO6aCB8a0ce2VnjkZelQ1tGoX/6PDtq+f6ZNlMxDQ3ZAPSlPCT4bjcCAjaSEYY4XwnyWTTPRJq1VRvyvBMpwq02vYmR2MWLIH6/lU2XvmMs2QPECIyBXvsDP1VC/FRNQ0M2ABFx9dVX1xctPldGYhKy7cQR7b27hFhteGjW7Mj/uysZpCHdbtwJwBXpDCchPPoYlyXEfoJX628qp6EiG5B2u/6kpB+/I8NGCkkIciYXVnvT3w2rQj1djEfYtuYzLBnxnnmz6GE5cP93++gdY4vnoSMbKEInj+VVOeb8N577dwEV+hP+bfzSl2s/+vu74/u78kNJdibZGnD9SblmHMNy/eP937CMeDTOeUZgRPY8Qzd8DUdkDx9n8zziEdnzDN3wNRyRPXyczfOIR2TPM3TD13Di6DVz5szhG/1oxP8RgW5eZ3T+NMSdnRaz/mOrkcCwI3AXz54z7LMYjf+/QmDO/wOTh6i2engWPAAAAABJRU5ErkJggg==;" parent="1" vertex="1">
          <mxGeometry x="1262" y="415" width="110" height="110" as="geometry" />
        </mxCell>
        <mxCell id="OUMXYwsHuOzbVERew2cC-101" value="Map Reconstruction" style="text;html=1;align=center;verticalAlign=middle;whiteSpace=wrap;rounded=0;" parent="1" vertex="1">
          <mxGeometry x="1106" y="540" width="60" height="30" as="geometry" />
        </mxCell>
        <mxCell id="OUMXYwsHuOzbVERew2cC-102" value="Cryo-EM&lt;div&gt;Ground Thruth&lt;/div&gt;" style="text;html=1;align=center;verticalAlign=middle;whiteSpace=wrap;rounded=0;" parent="1" vertex="1">
          <mxGeometry x="1288" y="540" width="84" height="30" as="geometry" />
        </mxCell>
        <mxCell id="OUMXYwsHuOzbVERew2cC-103" value="Loss" style="text;html=1;align=center;verticalAlign=middle;whiteSpace=wrap;rounded=0;" parent="1" vertex="1">
          <mxGeometry x="1201" y="428.5" width="51" height="30" as="geometry" />
        </mxCell>
      </root>
    </mxGraphModel>
  </diagram>
</mxfile>
